<svg class="marks" width="414" height="312" viewBox="0 0 414 312" version="1.1" xmlns="http://www.w3.org/2000/svg" xmlns:xlink="http://www.w3.org/1999/xlink"><rect width="414" height="312" fill="white"></rect><g fill="none" stroke-miterlimit="10" transform="translate(7,5)"><g class="mark-group role-frame root" role="graphics-object" aria-roledescription="group mark container"><g transform="translate(0,0)"><path class="background" aria-hidden="true" d="M0.5,0.5h400v300h-400Z"></path><g><g class="mark-line role-mark layer_0_marks" role="graphics-symbol" aria-roledescription="line mark container"><path d="M0,300L0.40040040040040037,295.1517680200261L0.8008008008008007,290.36642134223183L1.2012012012012012,285.6433482135214L1.6016016016016015,280.9819421707383L2.002002002002002,276.3816019977809L2.4024024024024024,271.8417316830523L2.8028028028028027,267.3617403772411L3.203203203203203,262.9410423514312L3.6036036036036037,258.579056955537L4.004004004004004,254.27520857706355L4.404404404404405,250.02892660018705L4.804804804804805,245.83964536515464L5.205205205205205,241.70680412800064L5.605605605605605,237.6298470205768L6.006006006006006,233.60822301089394L6.406406406406406,229.64138586377345L6.806806806806807,225.7287941018055L7.207207207207207,221.86991096661174L7.6076076076076085,218.06420438041053L8.008008008008009,214.31114690788218L8.408408408408409,210.61021571833194L8.80880880880881,206.9608925481486L9.209209209209208,203.36266366355616L9.60960960960961,199.81501982365666L10.01001001001001,196.31745624376194L10.41041041041041,192.8694725590119L10.81081081081081,189.4705727882774L11.21121121121121,186.12026529834498L11.611611611611611,182.81806276838253L12.012012012012011,179.56348215468233L12.412412412412413,176.35604465568062L12.812812812812812,173.19527567725004L13.213213213213212,170.08070479826506L13.613613613613614,167.0118657364362L14.014014014014014,163.98829631441188L14.414414414414415,161.00953842614686L14.814814814814813,158.0751380035327L15.215215215215217,155.1846449832913L15.615615615615615,152.33761327412714L16.016016016016017,149.53360072413722L16.416416416416414,146.7721690884772L16.816816816816818,144.0528839972801L17.217217217217218,141.3753149238285L17.61761761761762,138.73903515297508L18.01801801801802,136.14362174981144L18.418418418418415,133.58865552858384L18.81881881881882,131.07372102185195L19.21921921921922,128.59840644989094L19.61961961961962,126.16230369033346L20.02002002002002,123.76500824804994L20.42042042042042,121.40611922526742L20.82082082082082,119.08523929192101L21.22122122122122,116.80197465624038L21.62162162162162,114.55593503556722L22.02202202202202,112.34673362740209L22.42242242242242,110.17398708067964L22.822822822822825,108.03731546726955L23.223223223223222,105.93634225370275L23.623623623623622,103.87069427311924L24.024024024024023,101.84000169743857L24.424424424424423,99.84389800974765L24.824824824824827,97.88201997690832L25.225225225225223,95.95400762237995L25.625625625625624,94.05950419925587L26.026026026026027,92.19815616351384L26.426426426426424,90.36961314747695L26.826826826826828,88.57352793348386L27.227227227227228,86.80955642776739L27.627627627627625,85.07735763453935L28.02802802802803,83.37659363027974L28.428428428428425,81.70692953822962L28.82882882882883,80.06803350308557L29.22922922922923,78.45957666589362L29.629629629629626,76.88123313914265L30.03003003003003,75.332679982054L30.430430430430434,73.81359717606742L30.83083083083083,72.32366760052011L31.23123123123123,70.86257700851917L31.631631631631635,69.4300140030046L32.032032032032035,68.02567001300204L32.43243243243243,66.64923927006384L32.83283283283283,65.30041878489659L33.233233233233236,63.97890832417404L33.633633633633636,62.68441038753381L34.034034034034036,61.41663018475688L34.434434434434436,60.175275613127525L34.83483483483483,58.960057234973526L35.23523523523524,57.770688255384286L35.63563563563564,56.60688450010609L36.03603603603604,55.46836439361269L36.43643643643644,54.35484893735028L36.83683683683683,53.26606168815549L37.23723723723724,52.20172873684446L37.63763763763764,51.16157868697261L38.03803803803804,50.145342633763036L38.43843843843844,49.152754143202884L38.83883883883884,48.18354923130558L39.23923923923924,47.23746634353843L39.63963963963964,46.31424633441412L40.04004004004004,45.413632447244424L40.44044044044044,44.535370294055376L40.84084084084084,43.679207835662396L41.24124124124124,42.84489536190462L41.64164164164164,42.03218547203604L42.04204204204204,41.24083305527378L42.44244244244244,40.47059527150117L42.84284284284284,39.72123153212483L43.24324324324324,38.992503481084604L43.64364364364364,38.28417497601529L44.04404404404404,37.596012069558114L44.44444444444444,36.92778299082252L44.84484484484484,36.27925812699537L45.24524524524524,35.65021000509735L45.64564564564565,35.04041327388525L46.046046046046044,34.44964468589906L46.446446446446444,33.87768307965242L46.846846846846844,33.324309361965966L47.247247247247245,32.789306490441774L47.64764764764765,32.27245945607837L48.048048048048045,31.773555266024612L48.448448448448445,31.292382926472328L48.848848848848846,30.828733425685506L49.249249249249246,30.382399717165796L49.64964964964965,29.953176702952856L50.050050050050054,29.54086121705891L50.45045045045045,29.145252009036028L50.85085085085085,28.76614972767486L51.25125125125125,28.403356904835476L51.651651651651655,28.05667793940666L52.052052052052055,27.725919081394668L52.45245245245245,27.410888416140335L52.85285285285285,27.1113958486618L53.25325325325325,26.82725308812475L53.653653653653656,26.558273632435736L54.054054054054056,26.30427275296118L54.454454454454456,26.065067479367887L54.85485485485485,25.840476584587048L55.25525525525525,25.63032056989757L55.65565565565566,25.4344216501313L56.05605605605606,25.252603738996292L56.45645645645646,25.084692434519084L56.85685685685685,24.930515004603482L57.25725725725725,24.789900372706853L57.65765765765766,24.662679103631323L58.05805805805806,24.54868338942976L58.45845845845846,24.447747035425273L58.858858858858866,24.35970544634458L59.25925925925925,24.284395612562026L59.65965965965966,24.221656096455803L60.06006006006006,24.17132701887399L60.46046046046046,24.133250045709897L60.86086086086087,24.107268374586443L61.26126126126127,24.093226721648055L61.66166166166166,24.090971308459142L62.06206206206206,24.100349849009174L62.46246246246246,24.121211536822507L62.862862862862855,24.153407032172925L63.26326326326327,24.19678844940204L63.66366366366366,24.251209344339696L64.06406406406407,24.31652470182718L64.46446446446447,24.39259092334092L64.86486486486486,24.47926581471773L65.26526526526527,24.57640857397815L65.66566566566566,24.683879779250184L66.06606606606607,24.80154137678977L66.46646646646647,24.92925666909962L66.86686686686686,25.066890303144053L67.26726726726727,25.214308258660147L67.66766766766766,25.37137783656298L68.06806806806807,25.537967647446568L68.46846846846847,25.713947600177313L68.86886886886887,25.899188890580316L69.26926926926927,26.09356399021917L69.66966966966966,26.29694663526522L70.07007007007007,26.50921181545901L70.47047047047047,26.730235763161115L70.87087087087087,26.959895942492118L71.27127127127127,27.198071038561988L71.67167167167166,27.444640946786148L72.07207207207207,27.699486762289915L72.47247247247248,27.962490769398418L72.87287287287288,28.233536431213757L73.27327327327328,28.51250837927558L73.67367367367366,28.79929240330782L74.07407407407408,29.09377544104825L74.47447447447448,29.395845568161416L74.87487487487488,29.705391988234766L75.27527527527528,30.02230502285571L75.67567567567568,30.34647610177077L76.07607607607608,30.677797753124693L76.47647647647648,31.01616359378001L76.87687687687688,31.361468319715925L77.27727727727728,31.71360769650564L77.67767767767768,32.07247854987234L78.07807807807808,32.43797875632166L78.47847847847848,32.8100072338527L78.87887887887888,33.18846393274369L79.27927927927928,33.57324982641414L79.67967967967968,33.96426690236246L80.08008008008008,34.36141815317724L80.48048048048048,34.764607567622974L80.88088088088088,35.17374012179899L81.28128128128128,35.588721770371436L81.68168168168168,36.0094594378772L82.08208208208208,36.43586101009907L82.48248248248248,36.86783532551311L82.88288288288288,37.3052921668053L83.28328328328328,37.74814225245877L83.68368368368368,38.19629722841075L84.08408408408408,38.64966965977713L84.48448448448448,39.10817302264742L84.88488488488488,39.57172169594495L85.28528528528528,40.04023095335649L85.68568568568568,40.51361695532765L86.08608608608608,40.99179674112396L86.48648648648648,41.47468822095901L86.88688688688688,41.962210168186374L87.28728728728728,42.4542822115568L87.68768768768768,42.95082482753973L88.08808808808809,43.451759332707795L88.48848848848849,43.95700787618534L88.88888888888889,44.46649343215834L89.28928928928929,44.980139792447595L89.68968968968969,45.49787155914322L90.09009009009009,46.01961413729957L90.49049049049049,46.54529372769217L90.89089089089089,47.07483731963333L91.2912912912913,47.60817268384906L91.69169169169169,48.14522836541347L92.09209209209209,48.68593367674359L92.49249249249249,49.2302186906514L92.89289289289289,49.77801423345408L93.2932932932933,50.329251878141754L93.69369369369369,50.88386393760194L94.09409409409409,51.44178345790043L94.49449449449449,52.00294421161864L94.89489489489489,52.56728069124603L95.2952952952953,53.134728102627825L95.69569569569569,53.70522235846782L96.09609609609609,54.2787000718847L96.49649649649649,54.855098550022966L96.89689689689689,55.4343557877169L97.2972972972973,56.01641046120742L97.69769769769769,56.601201921911894L98.09809809809809,57.18867019024555L98.49849849849849,57.778755949495455L98.89889889889889,58.37140053974468L99.2992992992993,58.9665459518485L99.69969969969969,59.56413482146059L100.10010010010011,60.16411042310905L100.5005005005005,60.766416664322755L100.9009009009009,61.37099807980667L101.30130130130131,61.977799825666146L101.7017017017017,62.58676767367967L102.10210210210211,63.197848005620074L102.5025025025025,63.810987807623064L102.9029029029029,64.42613466460347L103.30330330330331,65.04323675471835L103.7037037037037,65.66224284387681L104.10410410410411,66.28310228029608L104.5045045045045,66.90576498910342L104.9049049049049,67.5301814669834L105.30530530530531,68.15630277687093L105.7057057057057,68.7840805426882L106.10610610610611,69.41346694412677L106.5065065065065,70.04441471147376L106.90690690690691,70.67687712048117L107.30730730730731,71.31080798727892L107.7077077077077,71.9461616633314L108.10810810810811,72.58289303043581L108.5085085085085,73.2209574957637L108.90890890890891,73.86031098694376L109.30930930930931,74.50090994718688L109.7097097097097,75.14271133045254L110.11011011011011,75.78567259665564L110.5105105105105,76.42975170691464L110.91091091091091,77.07490711883958L111.31131131131131,77.72109778186078L111.7117117117117,78.36828313259639L112.11211211211211,79.01642309026006L112.5125125125125,79.66547805210722L112.91291291291292,80.3154088889205L113.31331331331332,80.96617694053334L113.7137137137137,81.61774401139171L114.11411411411412,82.27007236615414L114.5145145145145,82.92312472532835L114.91491491491492,83.57686426094627L115.31531531531532,84.23125459227498L115.71571571571573,84.88625978156507L116.11611611611612,85.54184432983453L116.5165165165165,86.19797317268969L116.91691691691692,86.85461167618092L117.31731731731732,87.51172563269466L117.71771771771773,88.16928125687973L118.11811811811812,88.8272451816095L118.5185185185185,89.48558445397795L118.91891891891892,90.14426653133046L119.31931931931932,90.80325927732842L119.71971971971973,91.46253095804796L120.12012012012012,92.12205023811167L120.5205205205205,92.7817861768542L120.92092092092092,93.4417082245203L121.32132132132132,94.10178621849595L121.72172172172174,94.76199037957161L122.12212212212212,95.42229130823776L122.52252252252254,96.08265998101287L122.92292292292292,96.74306774680186L123.32332332332332,97.4034863232874L123.72372372372371,98.06388779335109L124.12412412412412,98.7242446015267L124.52452452452454,99.38452955048264L124.92492492492492,100.04471579753651L125.32532532532532,100.70477685119836L125.72572572572571,101.36468656774494L126.12612612612612,102.02441914782277L126.52652652652654,102.68394913308083L126.92692692692692,103.34325140283337L127.32732732732732,104.00230117075029L127.72772772772771,104.66107398157693L128.12812812812814,105.31954570788257L128.52852852852854,105.97769254683648L128.92892892892894,106.635491017013L129.3293293293293,107.29291795522319L129.7297297297297,107.94995051337514L130.13013013013014,108.60656615536092L130.53053053053054,109.26274265397082L130.93093093093094,109.91845808783526L131.3313313313313,110.5736908383916L131.7317317317317,111.22841958687937L132.13213213213214,111.88262331136058L132.53253253253254,112.53628128376629L132.93293293293294,113.18937306696947L133.33333333333331,113.84187851188243L133.73373373373371,114.4937777545811L134.13413413413414,115.14505121345302L134.53453453453454,115.79567958637142L134.93493493493494,116.44564384789373L135.33533533533532,117.09492524648411L135.73573573573574,117.74350530176172L136.13613613613614,118.3913658017714L136.53653653653654,119.03848880028012L136.93693693693695,119.68485661409572L137.33733733733732,120.33045182041016L137.73773773773775,120.97525725416597L138.13813813813815,121.61925600544559L138.53853853853855,122.26243141688438L138.93893893893895,122.90476708110538L139.33933933933932,123.54624683817819L139.73973973973975,124.18685477309889L140.14014014014015,124.82657521329304L140.54054054054055,125.46539272614088L140.94094094094095,126.10329211652339L141.34134134134132,126.74025842439151L141.74174174174175,127.37627692235614L142.14214214214215,128.011333113299L142.54254254254255,128.645412728006L142.94294294294295,129.27850172282055L143.34334334334332,129.910586277318L143.74374374374375,130.54165279200103L144.14414414414415,131.1716878860152L144.54454454454455,131.80067839488504L144.94494494494495,132.42861136827023L145.34534534534532,133.05547406774198L145.74574574574575,133.6812539645788L146.14614614614615,134.30593873758207L146.54654654654655,134.92951627091185L146.94694694694695,135.55197465194095L147.34734734734732,136.17330216912916L147.74774774774775,136.7934873099153L148.14814814814815,137.4125187586297L148.54854854854855,138.03038539442403L148.94894894894895,138.64707628922065L149.34934934934932,139.2625807056797L149.74974974974975,139.87688809518474L150.15015015015015,140.4899880958467L150.55055055055055,141.10187053052533L150.95095095095095,141.71252540486864L151.35135135135135,142.32194290537046L151.75175175175175,142.9301133974445L152.15215215215215,143.53702742351695L152.55255255255256,144.1426757011352L152.95295295295296,144.7470491210947L153.35335335335336,145.3501387455818L153.75375375375376,145.951935806334L154.15415415415416,146.55243170281662L154.55455455455456,147.1516180004161L154.95495495495496,147.7494864286495L155.35535535535536,148.34602887939047L155.75575575575576,148.9412374051112L156.15615615615616,149.53510421714017L156.55655655655656,150.12762168393635L156.95695695695696,150.7187823293784L157.35735735735736,151.30857883106972L157.75775775775776,151.89700401865878L158.15815815815816,152.48405087217586L158.55855855855856,153.06971252038275L158.95895895895896,153.65398223913994L159.35935935935936,154.23685344978722L159.75975975975976,154.8183197175391L160.16016016016016,155.39837474989628L160.56056056056056,155.97701239507003L160.96096096096096,156.55422664042186L161.36136136136136,157.1300116109175L161.76176176176176,157.70436156759504L162.16216216216216,158.27727090604665L162.56256256256256,158.84873415491518L162.96296296296296,159.41874597440398L163.36336336336336,159.98730115480032L163.76376376376376,160.55439461501305L164.16416416416416,161.12002140112304L164.56456456456456,161.68417668494791L164.96496496496496,162.24685576261885L165.36536536536536,162.80805405317176L165.76576576576576,163.36776709715056L166.16616616616616,163.92599055522408L166.56656656656656,164.48272020681543L166.966966966967,165.0379519487442L167.36736736736736,165.59168179388104L167.76776776776777,166.14390586981514L168.16816816816817,166.69462041753428L168.56856856856857,167.24382179011613L168.96896896896897,167.79150645143315L169.36936936936937,168.3376709748682L169.76976976976977,168.8823120420436L170.17017017017017,169.4254264415607L170.57057057057057,169.96701106775214L170.970970970971,170.5070629194453L171.37137137137137,171.04557909873787L171.77177177177177,171.5825568097843L172.17217217217217,172.11799335759406L172.57257257257257,172.65188614684098L172.97297297297297,173.184232680684L173.37337337337337,173.71503055959866L173.77377377377377,174.24427748022035L174.17417417417417,174.77197123419734L174.57457457457457,175.29810970705563L174.974974974975,175.8226908770744L175.37537537537537,176.345712814171L175.77577577577577,176.86717367879842L176.17617617617617,177.3870717208515L176.57657657657657,177.9054052785843L176.97697697697697,178.4221727775378L177.37737737737737,178.93737272947735L177.77777777777777,179.45100373134053L178.17817817817817,179.9630644641955L178.57857857857857,180.47355369220782L178.978978978979,180.9824702616191L179.37937937937937,181.4898130997336L179.77977977977977,181.99558121391584L180.18018018018017,182.49977369059692L180.58058058058057,183.00238969429108L180.98098098098097,183.50342846662085L181.38138138138137,184.00288932535233L181.78178178178177,184.50077166343968L182.18218218218217,184.99707494807808L182.5825825825826,185.49179871976648L182.982982982983,185.98494259137948L183.38338338338338,186.47650624724733L183.78378378378378,186.96648944224603L184.18418418418418,187.45489200089506L184.5845845845846,187.94171381646467L184.98498498498498,188.42695485009108L185.38538538538538,188.91061512990146L185.78578578578578,189.39269475014575L186.18618618618618,189.87319387033867L186.5865865865866,190.35211271440852L186.986986986987,190.82945156985514L187.38738738738738,191.30521078691635L187.78778778778778,191.7793907777417L188.18818818818818,192.25199201557461L188.5885885885886,192.72301503394297L188.98898898898898,193.1924604258569L189.38938938938938,193.66032884301518L189.78978978978978,194.12662099501878L190.19019019019018,194.5913376485924L190.5905905905906,195.05447962681401L190.990990990991,195.51604780835135L191.39139139139138,195.97604312670603L191.79179179179178,196.4344665694663L192.19219219219218,196.8913191775651L192.5925925925926,197.3466020445472L192.99299299299298,197.8003163158429L193.39339339339338,198.2524631880492L193.79379379379378,198.70304390821772L194.19419419419418,199.15205977314983L194.5945945945946,199.59951212869933L194.994994994995,200.04540236908124L195.39539539539538,200.4897319361882L195.79579579579578,200.93250231891327L196.19619619619618,201.37371505247955L196.5965965965966,201.813371717777L196.99699699699698,202.25147394070507L197.39739739739738,202.6880233915227L197.79779779779778,203.1230217842045L198.1981981981982,203.55647087580334L198.5985985985986,203.98837246581977L198.998998998999,204.41872839557718L199.39939939939939,204.84754054760398L199.79979979979979,205.27481084502145L200.20020020020021,205.7005412509383L200.60060060060061,206.1247337678507L201.001001001001,206.54739043704927L201.4014014014014,206.96851333803139L201.8018018018018,207.38810458791988L202.20220220220222,207.80616634088753L202.60260260260262,208.2227007875872L203.00300300300302,208.63771015458855L203.4034034034034,209.05119670381956L203.8038038038038,209.4631627320146L204.20420420420422,209.87361057016759L204.60460460460462,210.28254258299103L205.005005005005,210.6899611683808L205.4054054054054,211.09586875688626L205.8058058058058,211.50026781118552L206.20620620620622,211.90316082556686L206.60660660660662,212.304550325415L207.00700700700702,212.7044388667028L207.4074074074074,213.10282903548844L207.8078078078078,213.4997234474174L208.20820820820822,213.89512474723028L208.60860860860862,214.2890356082751L209.009009009009,214.68145873202513L209.4094094094094,215.07239684760168L209.8098098098098,215.4618527113018L210.21021021021022,215.849829106131L210.61061061061062,216.23632884134096L211.01101101101102,216.62135475197186L211.4114114114114,217.00490969839998L211.8118118118118,217.38699656588955L212.21221221221222,217.76761826415006L212.61261261261262,218.1467777268972L213.013013013013,218.52447791141967L213.4134134134134,218.9007217981498L213.81381381381382,219.27551239023884L214.21421421421422,219.64885271313722L214.61461461461462,220.0207458141787L215.01501501501502,220.3911947621695L215.4154154154154,220.76020264698153L215.81581581581582,221.12777257915008L216.21621621621622,221.49390768947578L216.61661661661662,221.8586111286309L217.017017017017,222.22188606677022L217.4174174174174,222.58373569314543L217.81781781781783,222.94416321572413L218.21821821821823,223.30317186081325L218.61861861861863,223.66076487268595L219.01901901901903,224.01694551321273L219.4194194194194,224.37171706149746L219.81981981981983,224.7250828135157L220.22022022022023,225.07704608175865L220.62062062062063,225.42761019487986L221.021021021021,225.77677849734667L221.4214214214214,226.1245543490947L221.82182182182183,226.4709411251868L222.22222222222223,226.81594221547545L222.62262262262263,227.1595610242689L223.02302302302303,227.50180097000114L223.4234234234234,227.84266548490564L223.82382382382383,228.1821580146923L224.22422422422423,228.5202820182284L224.62462462462463,228.85704096722316L225.025025025025,229.19243834591558L225.4254254254254,229.52647765076574L225.82582582582583,229.85916239015012L226.22622622622623,230.19049608405953L226.62662662662663,230.52048226380109L227.02702702702703,230.84912447170362L227.4274274274274,231.17642626082576L227.82782782782783,231.50239119466818L228.22822822822823,231.82702284688827L228.62862862862863,232.15032480101894L229.029029029029,232.47230065018994L229.42942942942946,232.7929539968529L229.82982982982983,233.1122884525089L230.23023023023023,233.43030763744005L230.63063063063063,233.74701518044324L231.03103103103103,234.06241471856796L231.43143143143146,234.37650989685594L231.83183183183183,234.6893043680851L232.23223223223223,235.00080179251566L232.63263263263264,235.31100583763944L233.033033033033,235.61992017793222L233.43343343343346,235.9275484946086L233.83383383383384,236.23389447538054L234.23423423423424,236.53896181421774L234.63463463463464,236.8427542111117L235.03503503503504,237.14527537184222L235.43543543543547,237.44652900774648L235.83583583583584,237.74651883549123L236.23623623623624,238.04524857684765L236.63663663663664,238.34272195846873L237.037037037037,238.63894271166936L237.43743743743747,238.93391457220918L237.83783783783784,239.22764128007793L238.23823823823824,239.52012657928358L238.63863863863864,239.81137421764285L239.03903903903904,240.10138794657422L239.43943943943947,240.39017152089366L239.83983983983984,240.67772869861292L240.24024024024024,240.96406324073985L240.64064064064064,241.24917891108183L241.041041041041,241.53307947605086L241.44144144144147,241.81576870447194L241.84184184184184,242.09725036739277L242.24224224224224,242.3775282378971L242.64264264264264,242.65660609091915L243.04304304304304,242.93448770306108L243.44344344344347,243.21117685241285L243.84384384384384,243.48667731837338L244.24424424424424,243.76099288147563L244.64464464464464,244.0341273232121L245.04504504504507,244.30608442586387L245.44544544544547,244.57686797233094L245.84584584584584,244.8464817459655L246.24624624624624,245.11492953040673L246.64664664664664,245.38221510941798L247.04704704704707,245.64834226672608L247.44744744744742,245.91331478586253L247.84784784784785,246.17713645000714L248.24824824824825,246.4398110418331L248.64864864864865,246.70134234335484L249.04904904904907,246.96173413577708L249.44944944944942,247.2209901993465L249.84984984984985,247.47911431320514L250.25025025025025,247.73611025524568L250.65065065065065,247.99198180196845L251.05105105105108,248.24673272834107L251.45145145145142,248.50036680765916L251.85185185185185,248.75288781140924L252.25225225225225,249.00429950913377L252.65265265265265,249.25460566829727L253.05305305305308,249.50381005415528L253.45345345345342,249.75191642962398L253.85385385385385,249.9989285551528L254.25425425425425,250.2448501885975L254.65465465465465,250.48968508509603L255.05505505505508,250.73343699694584L255.45545545545542,250.97610967348228L255.85585585585585,251.2177068609597L256.2562562562563,251.45823230243357L256.65665665665665,251.69768973764403L257.0570570570571,251.93608290290223L257.45745745745745,252.1734155309767L257.8578578578579,252.40969135098274L258.25825825825825,252.6449140882725L258.6586586586586,252.87908746432691L259.0590590590591,253.11221519664954L259.4594594594594,253.3443009986613L259.85985985985985,253.57534857959718L260.2602602602603,253.80536164440443L260.66066066066065,254.03434389364185L261.0610610610611,254.26229902338153L261.46146146146145,254.48923072511062L261.8618618618619,254.7151426856359L262.26226226226225,254.94003858698895L262.6626626626626,255.16392210633313L263.0630630630631,255.38679691587186L263.4634634634634,255.60866668275818L263.86386386386386,255.82953506900603L264.2642642642643,256.0494057314024L264.66466466466466,256.2682823214211L265.0650650650651,256.4861684851384L265.46546546546546,256.7030678631487L265.8658658658659,256.9189840904828L266.26626626626626,257.13392079652664L266.66666666666663,257.34788160494185L267.0670670670671,257.56087013358734L267.46746746746743,257.7728899944419L267.86786786786786,257.9839447935286L268.2682682682683,258.19403813083994L268.66866866866866,258.4031736002644L269.0690690690691,258.61135478951445L269.46946946946946,258.81858528005506L269.8698698698699,259.02486864703417L270.27027027027026,259.23020845921394L270.67067067067063,259.43460827890317L271.0710710710711,259.6380716618908L271.4714714714715,259.8406021573808L271.87187187187186,260.04220330792793L272.2722722722723,260.2428786493748L272.67267267267266,260.4426317107898L273.0730730730731,260.6414660144063L273.47347347347346,260.8393850755631L273.8738738738739,261.03639240264516L274.27427427427426,261.23249149702656L274.67467467467463,261.4276858530135L275.0750750750751,261.6219789577888L275.4754754754755,261.81537429135744L275.87587587587586,262.0078753264925L276.2762762762763,262.1994855286835L276.67667667667666,262.390208356084L277.0770770770771,262.5800472594612L277.47747747747746,262.7690056821466L277.8778778778779,262.9570870599868L278.27827827827826,263.1442948212963L278.67867867867864,263.3306323868102L279.0790790790791,263.5161031696387L279.4794794794795,263.700710575222L279.87987987987987,263.8844580012859L280.2802802802803,264.06734883779916L280.68068068068067,264.249386466931L281.0810810810811,264.4305742630094L281.48148148148147,264.6109155924811L281.8818818818819,264.7904138138712L282.28228228228227,264.9690722777452L282.68268268268264,265.1468943266701L283.0830830830831,265.3238832951779L283.4834834834835,265.5000425097287L283.88388388388387,265.67537528867547L284.2842842842843,265.8498849422294L284.68468468468467,266.02357477242555L285.0850850850851,266.1964480730899L285.48548548548547,266.3685081298071L285.8858858858859,266.5397582198883L286.28628628628627,266.71020161234094L286.68668668668664,266.87984156783824L287.0870870870871,267.04868133868973L287.4874874874875,267.2167241688128L287.88788788788787,267.38397329370457L288.2882882882883,267.550431940415L288.68868868868867,267.71610332751993L289.0890890890891,267.88099066509557L289.4894894894895,268.0450971546932L289.8898898898899,268.2084259893149L290.2902902902903,268.37098035338977L290.69069069069064,268.53276342275046L291.09109109109113,268.6937783646113L291.4914914914915,268.8540283375462L291.8918918918919,269.0135164914674L292.2922922922923,269.17224596760514L292.6926926926927,269.33021989848794L293.0930930930931,269.4874414079231L293.4934934934935,269.64391361097796L293.8938938938939,269.79963961396214L294.2942942942943,269.9546225144102L294.69469469469465,270.1088654010643L295.09509509509513,270.26237135385867L295.4954954954955,270.4151434439032L295.8958958958959,270.567184733469L296.2962962962963,270.7184982759734L296.6966966966967,270.86908711596624L297.0970970970971,271.0189542891165L297.4974974974975,271.1681028221993L297.8978978978979,271.31653573308347L298.2982982982983,271.46425603072015L298.69869869869865,271.6112667151311L299.09909909909913,271.7575707773983L299.4994994994995,271.90317119965346L299.8998998998999,272.04807095506857L300.3003003003003,272.1922730078463L300.70070070070074,272.3357803132119L301.1011011011011,272.4785958174042L301.5015015015015,272.6207224576686L301.9019019019019,272.7621631622492L302.3023023023023,272.9029208503825L302.7027027027027,273.04299843229074L303.10310310310314,273.1823988091763L303.5035035035035,273.32112487321587L303.9039039039039,273.45917950755603L304.3043043043043,273.59656558630843L304.70470470470474,273.7332859745457L305.1051051051051,273.8693435282978L305.5055055055055,274.00474109454916L305.9059059059059,274.13948151123515L306.3063063063063,274.2735676072406L306.7067067067067,274.40700220239694L307.10710710710714,274.53978810748157L307.5075075075075,274.6719281242158L307.9079079079079,274.8034250452647L308.3083083083083,274.9342816542365L308.70870870870874,275.06450072568265L309.1091091091091,275.1940850250981L309.5095095095095,275.32303730892227L309.9099099099099,275.45136032454013L310.3103103103103,275.5790568102835L310.7107107107107,275.70612949543323L311.11111111111114,275.8325811002212L311.5115115115115,275.958414335833L311.9119119119119,276.08363190441094L312.3123123123123,276.208236499057L312.71271271271274,276.3322308038368L313.1131131131131,276.4556174937833L313.5135135135135,276.57839923490116L313.9139139139139,276.7005786841714L314.3143143143143,276.82215848955605L314.7147147147147,276.9431412900038L315.11511511511515,277.0635297154551L315.5155155155155,277.18332638684836L315.9159159159159,277.30253391612575L316.3163163163163,277.4211549062401L316.71671671671675,277.5391919511611L317.1171171171171,277.6566476358828L317.5175175175175,277.7735245364308L317.9179179179179,277.8898252198695L318.3183183183183,278.00555224431076L318.7187187187187,278.12070815892116L319.11911911911915,278.235295503931L319.5195195195195,278.34931681064296L319.9199199199199,278.4627746014407L320.3203203203203,278.5756713897985L320.72072072072075,278.68800968029046L321.1211211211211,278.79979196860035L321.5215215215215,278.9110207415316L321.9219219219219,279.02169847701725L322.3223223223223,279.13182764413085L322.7227227227227,279.24141070309673L323.12312312312315,279.3504501053014L323.5235235235235,279.45894829330405L323.9239239239239,279.56690770084856L324.3243243243243,279.67433075287494L324.72472472472475,279.78121986553083L325.1251251251251,279.887577446184L325.5255255255255,279.9934058934343L325.9259259259259,280.09870759712646L326.3263263263263,280.2034849383622L326.7267267267267,280.3077402895137L327.12712712712715,280.41147601423637L327.5275275275275,280.51469446748234L327.9279279279279,280.6173979955136L328.3283283283283,280.7195889359161L328.72872872872875,280.82126961761304L329.1291291291291,280.92244236087953L329.5295295295295,281.0231094773564L329.9299299299299,281.1232732700648L330.3303303303303,281.2229360334205L330.7307307307307,281.32210005324913L331.13113113113116,281.42076760680055L331.5315315315315,281.5189409627643L331.93193193193196,281.6166223812848L332.3323323323323,281.7138141139766L332.73273273273276,281.81051840394014L333.13313313313313,281.9067374857774L333.5335335335335,282.00247358560785L333.933933933934,282.09772892108435L334.3343343343343,282.1925057014095L334.73473473473473,282.2868061273519L335.13513513513516,282.38063239126245L335.53553553553553,282.4739866770914L335.93593593593596,282.5668711604046L336.33633633633633,282.65928800840084L336.73673673673676,282.75123937992856L337.13713713713713,282.8427274255031L337.5375375375375,282.93375428732406L337.93793793793793,283.02432209929265L338.3383383383383,283.11443298702926L338.73873873873873,283.2040890678909L339.13913913913916,283.2932924509894L339.53953953953953,283.3820452372089L339.93993993993996,283.47034951922416L340.34034034034033,283.5582073815184L340.74074074074076,283.64562090040175L341.14114114114113,283.7325921440294L341.5415415415415,283.81912317242046L341.941941941942,283.9052160374758L342.3423423423423,283.9908727829973L342.74274274274273,284.07609544470654L343.14314314314316,284.1608860502633L343.54354354354354,284.24524661928467L343.94394394394396,284.32917916336436L344.34434434434434,284.4126856860914L344.74474474474476,284.4957681830696L345.14514514514514,284.57842864193685L345.5455455455455,284.6606690423844L345.94594594594594,284.7424913561765L346.3463463463463,284.82389754716974L346.74674674674674,284.9048895713327L347.14714714714717,284.985469376766L347.54754754754754,285.0656389037217L347.94794794794797,285.1454000846234L348.34834834834834,285.2247548440859L348.74874874874877,285.3037050989356L349.14914914914914,285.38225275823015L349.5495495495495,285.46039972327907L349.94994994995,285.53814788766334L350.3503503503503,285.61549913725634L350.75075075075074,285.69245535024373L351.15115115115117,285.76901839714395L351.55155155155154,285.84519014082883L351.95195195195197,285.9209724365438L352.35235235235234,285.99636713192876L352.75275275275277,286.07137606703844L353.15315315315314,286.1460010743633L353.5535535535535,286.2202439788502L353.95395395395394,286.294106597923L354.3543543543543,286.3675907415035L354.75475475475474,286.4406982120323L355.15515515515517,286.51343080448993L355.55555555555554,286.58579030641727L355.955955955956,286.6577784979372L356.35635635635634,286.729397151775L356.7567567567568,286.8006480332799L357.15715715715714,286.8715329004461L357.5575575575575,286.9420535039336L357.957957957958,287.0122115870899L358.3583583583583,287.08200888597077L358.75875875875874,287.15144712936177L359.1591591591592,287.22052803879944L359.55955955955955,287.2892533285925L359.95995995996,287.3576247058436L360.36036036036035,287.42564387047L360.7607607607608,287.49331251522574L361.16116116116115,287.5606323257224L361.5615615615615,287.62760498045094L361.96196196196195,287.6942321508031L362.3623623623623,287.76051550109264L362.76276276276275,287.82645668857725L363.1631631631632,287.8920573634798L363.56356356356355,287.95731916900974L363.963963963964,288.02224374138524L364.36436436436435,288.08683270985404L364.7647647647648,288.1510876967156L365.1651651651652,288.21501031734226L365.5655655655655,288.2786021802014L365.965965965966,288.34186488687635L366.3663663663663,288.40480003208876L366.76676676676675,288.4674092037197L367.1671671671672,288.5296939828315L367.56756756756755,288.59165594368955L367.967967967968,288.6532966537836L368.36836836836835,288.71461767385L368.7687687687688,288.77562055789275L369.1691691691692,288.83630685320543L369.5695695695695,288.8966781003931L369.96996996996995,288.9567358333936L370.3703703703703,289.0164815794996L370.77077077077075,289.0759168593799L371.1711711711712,289.13504318710136L371.57157157157155,289.1938620701505L371.971971971972,289.2523750094552L372.37237237237235,289.3105834994063L372.7727727727728,289.3684890278793L373.1731731731732,289.4260930762561L373.5735735735735,289.48339711944647L373.973973973974,289.5404026259098L374.3743743743743,289.5971110576767L374.77477477477476,289.6535238703707L375.1751751751752,289.70964251322977L375.57557557557556,289.76546842912796L375.975975975976,289.8210030545969L376.37637637637636,289.87624781984755L376.7767767767768,289.9312041487916L377.1771771771772,289.9858734590632L377.57757757757753,290.04025716204035L377.97797797797796,290.09435666286635L378.37837837837833,290.1481733604715L378.77877877877876,290.2017086475946L379.1791791791792,290.2549639108041L379.57957957957956,290.30794053052L379.97997997998,290.36063988103484L380.38038038038036,290.4130633305355L380.7807807807808,290.46521224112445L381.1811811811812,290.5170879688409L381.58158158158153,290.5686918636825L381.981981981982,290.62002526962647L382.38238238238233,290.6710895246511L382.78278278278276,290.7218859607567L383.1831831831832,290.77241590398717L383.58358358358356,290.8226806744511L383.983983983984,290.8726815863429L384.38438438438436,290.9224199479643L384.7847847847848,290.97189706174504L385.1851851851852,291.02111422426464L385.58558558558553,291.07007272627266L385.98598598598596,291.1187738527106L386.38638638638633,291.16721888273247L386.78678678678676,291.215409089726L387.1871871871872,291.26334574133347L387.58758758758756,291.31103009947276L387.987987987988,291.3584634203585L388.38838838838836,291.4056469545226L388.7887887887888,291.45258194683527L389.1891891891892,291.499269636526L389.58958958958954,291.5457112572041L389.98998998999,291.59190803687983L390.39039039039034,291.6378611979847L390.79079079079077,291.68357195739253L391.1911911911912,291.72904152644L391.59159159159157,291.7742711109472L391.991991991992,291.81926191123847L392.39239239239237,291.8640151221627L392.7927927927928,291.908531933114L393.1931931931932,291.9528135280522L393.59359359359354,291.9968610855234L393.99399399399397,292.0406757786801L394.39439439439445,292.08425877530186L394.79479479479477,292.1276112378157L395.1951951951952,292.17073432331597L395.59559559559557,292.21362918358517L395.995995995996,292.2562969651139L396.3963963963964,292.29873880912106L396.7967967967968,292.34095585157405L397.1971971971972,292.3829492232089L397.59759759759754,292.42472004955033L397.997997997998,292.4662694509317L398.39839839839846,292.5075985425152L398.79879879879877,292.5487084343116L399.1991991991992,292.5896002312003L399.59959959959957,292.63027503294916L400,292.6707339342343" stroke="lightgrey" stroke-width="2"></path></g><g class="mark-line role-mark layer_1_marks" role="graphics-symbol" aria-roledescription="line mark container"><path d="M0,213.79438973995548L0.40040040040040037,212.97626910167244L0.8008008008008007,212.15575722881093L1.2012012012012012,211.3329217506436L1.6016016016016015,210.50783102075837L2.002002002002002,209.68055410390565L2.4024024024024024,208.85116076257876L2.8028028028028027,208.01972144333513L3.203203203203203,207.18630726285969L3.6036036036036037,206.3509899937781L4.004004004004004,205.5138420502222L4.404404404404405,204.67493647315558L4.804804804804805,203.8343469154614L5.205205205205205,202.99214762679975L5.605605605605605,202.14841343823988L6.006006006006006,201.30321974667163L6.406406406406406,200.45664249900284L6.806806806806807,199.60875817614797L7.207207207207207,198.759643776814L7.6076076076076085,197.90937680108917L8.008008008008009,197.05803523384145L8.408408408408409,196.2056975279316L8.80880880880881,195.3524425872484L9.209209209209208,194.4983497495718L9.60960960960961,193.64349876926968L10.01001001001001,192.78796979983665L10.41041041041041,191.9318433762788L10.81081081081081,191.07520039735414L11.21121121121121,190.2181221076724L11.611611611611611,189.36069007966321L12.012012012012011,188.50298619541888L12.412412412412413,187.64509262841784L12.812812812812812,186.78709182513714L13.213213213213212,185.92906648656006L13.613613613613614,185.0710995495862L14.014014014014014,184.21327416835118L14.414414414414415,183.35567369546325L14.814814814814813,182.49838166316349L15.215215215215217,181.64148176441782L15.615615615615615,180.78505783394706L16.016016016016017,179.9291938292027L16.416416416416414,179.073973811296L16.816816816816818,178.2194819258877L17.217217217217218,177.36580238404457L17.61761761761762,176.51301944307232L18.01801801801802,175.66121738732986L18.418418418418415,174.81048050903422L18.81881881881882,173.96089308906198L19.21921921921922,173.1125393777557L19.61961961961962,172.26550357574175L20.02002002002002,171.41986981476785L20.42042042042042,170.5757221385664L20.82082082082082,169.7331444837524L21.22122122122122,168.89222066076138L21.62162162162162,168.05303433483652L22.02202202202202,167.2156690070702L22.42242242242242,166.380207995509L22.822822822822825,165.54673441632764L23.223223223223222,164.71533116507993L23.623623623623622,163.88608089803344L24.024024024024023,163.05906601359476L24.424424424424423,162.23436863383208L24.824824824824827,161.41207058610254L25.225225225225223,160.59225338479052L25.625625625625624,159.77499821316374L26.026026026026027,158.96038590535392L26.426426426426424,158.1484969284681L26.826826826826828,157.33941136483844L27.227227227227228,156.53320889441454L27.627627627627625,155.72996877730714L28.02802802802803,154.9297698364874L28.428428428428425,154.13269044064955L28.82882882882883,153.33880848724104L29.22922922922923,152.5482013856686L29.629629629629626,151.76094604068314L30.03003003003003,150.977118835952L30.430430430430434,150.1967956178225L30.83083083083083,149.4200516792821L31.23123123123123,148.6469617441225L31.631631631631635,147.87759995131069L32.032032032032035,147.11203983957353L32.43243243243243,146.35035433220042L32.83283283283283,145.5926157220695L33.233233233233236,144.83889565690123L33.633633633633636,144.0892651247451L34.034034034034036,143.3437944397038L34.434434434434436,142.60255322789845L34.83483483483483,141.86561041368054L35.23523523523524,141.13303420609333L35.63563563563564,140.40489208558884L36.03603603603604,139.6812507910014L36.43643643643644,138.96217630678444L36.83683683683683,138.24773385051247L37.23723723723724,137.53798786065187L37.63763763763764,136.8330019846051L38.03803803803804,136.13283906702966L38.43843843843844,135.43756113843642L38.83883883883884,134.74722940406994L39.23923923923924,134.0619042330727L39.63963963963964,133.38164514793723L40.04004004004004,132.7065108142475L40.44044044044044,132.0365590307131L40.84084084084084,131.3718467194968L41.24124124124124,130.71242991683988L41.64164164164164,130.0583637639843L42.04204204204204,129.4097024983963L42.44244244244244,128.76649944529134L42.84284284284284,128.1288070094623L43.24324324324324,127.49667666741232L43.64364364364364,126.87015895979378L44.04404404404404,126.24930348415421L44.44444444444444,125.63415888798924L44.84484484484484,125.02477286210589L45.24524524524524,124.4211921342933L45.64564564564565,123.8234624633044L46.046046046046044,123.2316286331473L46.446446446446444,122.64573444768695L46.846846846846844,122.06582272555757L47.247247247247245,121.49193529538455L47.64764764764765,120.92411299131753L48.048048048048045,120.36239564887265L48.448448448448445,119.80682210108398L48.848848848848846,119.25743017496386L49.249249249249246,118.71425668827138L49.64964964964965,118.17733744658709L50.050050050050054,117.64670724069498L50.45045045045045,117.12239984426813L50.85085085085085,116.60444801185865L51.25125125125125,116.09288347718989L51.651651651651655,115.58773695174924L52.052052052052055,115.08903812367993L52.45245245245245,114.59681565697018L52.85285285285285,114.11109719093815L53.25325325325325,113.63190934001027L53.653653653653656,113.15927769379044L54.054054054054056,112.69322681741927L54.454454454454456,112.23378025221965L54.85485485485485,111.78096051662678L55.25525525525525,111.33478910740044L55.65565565565566,110.8952865011162L56.05605605605606,110.46247215593318L56.45645645645646,110.03636451363622L56.85685685685685,109.61698100194766L57.25725725725725,109.20433803710803L57.65765765765766,108.7984510267206L58.05805805805806,108.39933437285805L58.45845845845846,108.00700147542702L58.858858858858866,107.62146473578723L59.25925925925925,107.2427355606225L59.65965965965966,106.87082436605957L60.06006006006006,106.5057405820307L60.46046046046046,106.14749265687767L60.86086086086087,105.79608806219171L61.26126126126127,105.4515332978875L61.66166166166166,105.11383389750544L62.06206206206206,104.78299443373982L62.46246246246246,104.45901852418817L62.862862862862855,104.14190883731736L63.26326326326327,103.83166709864355L63.66366366366366,103.52829409712037L64.06406406406407,103.23178969173267L64.46446446446447,102.94215281829005L64.86486486486486,102.6593814964171L65.26526526526527,102.38347283673541L65.66566566566566,102.11442304823315L66.06606606606607,101.85222744581786L66.46646646646647,101.5968804580477L66.86686686686686,101.34837563503736L67.26726726726727,101.10670565653336L67.66766766766766,100.87186234015493L68.06806806806807,100.64383664979528L68.46846846846847,100.42261870417943L68.86886886886887,100.20819778557323L69.26926926926927,100.00056234863963L69.66966966966966,99.79970002943735L70.07007007007007,99.6055976545574L70.47047047047047,99.41824125039263L70.87087087087087,99.23761605253593L71.27127127127127,99.06370651530287L71.67167167167166,98.89649632137244L72.07207207207207,98.7359683915443L72.47247247247248,98.58210489460465L72.87287287287288,98.43488725729827L73.27327327327328,98.29429617440186L73.67367367367366,98.16031161889256L74.07407407407408,98.03291285221L74.47447447447448,97.91207843460373L74.87487487487488,97.79778623556513L75.27527527527528,97.69001344433595L75.67567567567568,97.58873658049183L76.07607607607608,97.49393150459443L76.47647647647648,97.40557342890855L76.87687687687688,97.32363692817952L77.27727727727728,97.2480959504672L77.67767767767768,97.17892382803058L78.07807807807808,97.11609328826118L78.47847847847848,97.05957646465826L78.87887887887888,97.00934490784398L79.27927927927928,96.96536959661202L79.67967967967968,96.92762094900817L80.08008008008008,96.89606883343617L80.48048048048048,96.87068257978585L80.88088088088088,96.85143099058085L81.28128128128128,96.83828235213885L81.68168168168168,96.83120444574354L82.08208208208208,96.83016455882199L82.48248248248248,96.83512949612611L82.88288288288288,96.84606559091097L83.28328328328328,96.86293871610975L83.68368368368368,96.88571429549967L84.08408408408408,96.91435731485552L84.48448448448448,96.94883233308735L84.88488488488488,96.98910349335922L85.28528528528528,97.03513453418479L85.68568568568568,97.08688880049701L86.08608608608608,97.14432925468783L86.48648648648648,97.2074184876159L86.88688688688688,97.27611872957725L87.28728728728728,97.3503918612374L87.68768768768768,97.43019942452092L88.08808808808809,97.51550263345588L88.48848848848849,97.60626238496954L88.88888888888889,97.70243926963292L89.28928928928929,97.80399358235177L89.68968968968969,97.91088533299965L90.09009009009009,98.0230742569921L90.49049049049049,98.14051982579866L90.89089089089089,98.26318125738895L91.2912912912913,98.39101752661279L91.69169169169169,98.52398737550908L92.09209209209209,98.66204932354321L92.49249249249249,98.80516167776955L92.89289289289289,98.95328254291704L93.2932932932933,99.10636983139528L93.69369369369369,99.26438127322051L94.09409409409409,99.42727442585652L94.49449449449449,99.595006683972L94.89489489489489,99.76753528910899L95.2952952952953,99.94481733926338L95.69569569569569,100.12680979837346L96.09609609609609,100.31346950571647L96.49649649649649,100.50475318521032L96.89689689689689,100.70061745461896L97.2972972972973,100.90101883466055L97.69769769769769,101.10591375801637L98.09809809809809,101.31525857823922L98.49849849849849,101.52900957855948L98.89889889889889,101.74712298058807L99.2992992992993,101.9695549529154L99.69969969969969,102.19626161960382L100.10010010010011,102.42719906857349L100.5005005005005,102.66232335988063L100.9009009009009,102.90159053388639L101.30130130130131,103.14495661931605L101.7017017017017,103.39237764120749L102.10210210210211,103.643809628748L102.5025025025025,103.89920862299832L102.9029029029029,104.15853068450399L103.30330330330331,104.42173190079296L103.7037037037037,104.68876839375821L104.10410410410411,104.95959632692573L104.5045045045045,105.23417191260755L104.9049049049049,105.51245141893727L105.30530530530531,105.79439117679127L105.7057057057057,106.07994758659126L106.10610610610611,106.36907712499134L106.5065065065065,106.66173635144663L106.90690690690691,106.9578819146653L107.30730730730731,107.25747055894233L107.7077077077077,107.56045913037596L108.10810810810811,107.8668045829659L108.5085085085085,108.17646398459392L108.90890890890891,108.4893945228867L109.30930930930931,108.80555351096083L109.7097097097097,109.12489839305015L110.11011011011011,109.4473867500155L110.5105105105105,109.77297630473693L110.91091091091091,110.10162492739L111.31131131131131,110.4332906406034L111.7117117117117,110.76793162450191L112.11211211211211,111.10550622163197L112.5125125125125,111.44597294177167L112.91291291291292,111.78929046662613L113.31331331331332,112.13541765440677L113.7137137137137,112.4843135442974L114.11411411411412,112.83593736080545L114.5145145145145,113.19024851800013L114.91491491491492,113.54720662363826L115.31531531531532,113.90677148317717L115.71571571571573,114.2689031036764L116.11611611611612,114.63356169758916L116.5165165165165,115.00070768644217L116.91691691691692,115.37030170440788L117.31731731731732,115.74230460176626L117.71771771771773,116.11667744826009L118.11811811811812,116.493381536342L118.5185185185185,116.87237838431628L118.91891891891892,117.2536297393741L119.31931931931932,117.63709758052521L119.71971971971973,118.02274412142522L120.12012012012012,118.4105318131005L120.5205205205205,118.80042334657067L120.92092092092092,119.19238165537108L121.32132132132132,119.58636991797431L121.72172172172174,119.98235156011357L122.12212212212212,120.38029025700736L122.52252252252254,120.78014993548781L122.92292292292292,121.18189477603275L123.32332332332332,121.58548921470282L123.72372372372371,121.99089794498495L124.12412412412412,122.39808591954294L124.52452452452454,122.80701835187622L124.92492492492492,123.2176607178885L125.32532532532532,123.62997875736622L125.72572572572571,124.04393847536906L126.12612612612612,124.45950614353326L126.52652652652654,124.8766483012882L126.92692692692692,125.29533175698894L127.32732732732732,125.71552358896389L127.72772772772771,126.13719114648059L128.12812812812814,126.56030205062956L128.52852852852854,126.98482419512737L128.92892892892894,127.41072574704188L129.3293293293293,127.83797514743779L129.7297297297297,128.2665411119463L130.13013013013014,128.6963926312591L130.53053053053054,129.12749897154754L130.93093093093094,129.55982967480864L131.3313313313313,129.99335455913916L131.7317317317317,130.42804371893868L132.13213213213214,130.86386752504293L132.53253253253254,131.30079662478843L132.93293293293294,131.73880194201047L133.33333333333331,132.17785467697408L133.73373373373371,132.61792630624115L134.13413413413414,133.0589885824725L134.53453453453454,133.50101353416895L134.93493493493494,133.9439734653496L135.33533533533532,134.38784095517127L135.73573573573574,134.83258885748785L136.13613613613614,135.27819030035272L136.53653653653654,135.72461868546426L136.93693693693695,136.17184768755607L137.33733733733732,136.6198512537326L137.73773773773775,137.0686036027524L138.13813813813815,137.5180792242587L138.53853853853855,137.96825287796014L138.93893893893895,138.41909959276117L139.33933933933932,138.87059466584446L139.73973973973975,139.322713661706L140.14014014014015,139.77543241114395L140.54054054054055,140.22872701020265L140.94094094094095,140.6825738190728L141.34134134134132,141.13694946094884L141.74174174174175,141.59183082084485L142.14214214214215,142.04719504436937L142.54254254254255,142.5030195364621L142.94294294294295,142.95928196009083L143.34334334334332,143.4159602349125L143.74374374374375,143.8730325358969L144.14414414414415,144.33047729191628L144.54454454454455,144.78827318430064L144.94494494494495,145.24639914536016L145.34534534534532,145.70483435687538L145.74574574574575,146.16355824855745L146.14614614614615,146.6225504964773L146.54654654654655,147.0817910214674L146.94694694694695,147.5412599874947L147.34734734734732,148.0009378000077L147.74774774774775,148.46080510425682L148.14814814814815,148.92084278359087L148.54854854854855,149.38103195772928L148.94894894894895,149.8413539810117L149.34934934934932,150.30179044062558L149.74974974974975,150.7623231548132L150.15015015015015,151.22293417105814L150.55055055055055,151.6836057642536L150.95095095095095,152.1443204348516L151.35135135135135,152.60506090699607L151.75175175175175,153.06581012663847L152.15215215215215,153.52655125963938L152.55255255255256,153.98726768985418L152.95295295295296,154.4479430172064L153.35335335335336,154.90856105574704L153.75375375375376,155.36910583170308L154.15415415415416,155.82956158151404L154.55455455455456,156.28991274985913L154.95495495495496,156.75014398767388L155.35535535535536,157.21024015015936L155.75575575575576,157.6701862947825L156.15615615615616,158.12996767927007L156.55655655655656,158.5895697595963L156.95695695695696,159.0489781879645L157.35735735735736,159.50817881078478L157.75775775775776,159.9671576666468L158.15815815815816,160.4259009842904L158.55855855855856,160.88439518057237L158.95895895895896,161.34262685843265L159.35935935935936,161.8005828048588L159.75975975975976,162.25824998884966L160.16016016016016,162.71561555938015L160.56056056056056,163.17266684336641L160.96096096096096,163.62939134363245L161.36136136136136,164.08577673687955L161.76176176176176,164.54181087165765L162.16216216216216,164.9974817663415L162.56256256256256,165.45277760710923L162.96296296296296,165.9076867459273L163.36336336336336,166.3621976985394L163.76376376376376,166.81629914246236L164.16416416416416,167.26997991498718L164.56456456456456,167.7232290111885L164.96496496496496,168.17603558194037L165.36536536536536,168.62838893194095L165.76576576576576,169.08027851774523L166.16616616616616,169.53169394580726L166.56656656656656,169.98262497053182L166.966966966967,170.43306149233598L167.36736736736736,170.8829935557218L167.76776776776777,171.33241134735943L168.16816816816817,171.78130519418232L168.56856856856857,172.22966556149393L168.96896896896897,172.67748305108688L169.36936936936937,173.12474839937502L169.76976976976977,173.57145247553893L170.17017017017017,174.01758627968488L170.57057057057057,174.46314094101706L170.970970970971,174.9081077160258L171.37137137137137,175.352477986689L171.77177177177177,175.79624325868951L172.17217217217217,176.2393951596478L172.57257257257257,176.6819254373702L172.97297297297297,177.1238259581138L173.37337337337337,177.56508870486684L173.77377377377377,178.00570577564707L174.17417417417417,178.445669381816L174.57457457457457,178.88497184641125L174.974974974975,179.32360560249592L175.37537537537537,179.76156319152594L175.77577577577577,180.198837261736L176.17617617617617,180.63542056654288L176.57657657657657,181.07130596296807L176.97697697697697,181.5064864100789L177.37737737737737,181.94095496744848L177.77777777777777,182.37470479363495L178.17817817817817,182.8077291446802L178.57857857857857,183.24002137262747L178.978978978979,183.67157492405983L179.37937937937937,184.10238333865695L179.77977977977977,184.5324402477733L180.18018018018017,184.96173937303527L180.58058058058057,185.39027452495935L180.98098098098097,185.8180396015902L181.38138138138137,186.24502858715894L181.78178178178177,186.67123555076293L182.18218218218217,187.09665464506503L182.5825825825826,187.52128010501426L182.982982982983,187.9451062465866L183.38338338338338,188.36812746554733L183.78378378378378,188.79033823623382L184.18418418418418,189.2117331103587L184.5845845845846,189.63230671583517L184.98498498498498,190.0520537556217L185.38538538538538,190.47096900658892L185.78578578578578,190.88904731840674L186.18618618618618,191.3062836124525L186.5865865865866,191.7226728807401L186.986986986987,192.13821018486976L187.38738738738738,192.552890654999L187.78778778778778,192.96670948883394L188.18818818818818,193.37966195064163L188.5885885885886,193.79174337028272L188.98898898898898,194.20294914226466L189.38938938938938,194.61327472481634L189.78978978978978,195.0227156389816L190.19019019019018,195.4312674677343L190.5905905905906,195.83892585511293L190.990990990991,196.24568650537555L191.39139139139138,196.65154518217454L191.79179179179178,197.05649770775153L192.19219219219218,197.4605399621518L192.5925925925926,197.86366788245823L192.99299299299298,198.26587746204433L193.39339339339338,198.6671647498478L193.79379379379378,199.06752584966156L194.19419419419418,199.4669569194448L194.5945945945946,199.8654541706526L194.994994994995,200.2630138675837L195.39539539539538,200.65963232674744L195.79579579579578,201.05530591624827L196.19619619619618,201.4500310551882L196.5965965965966,201.84380421308802L196.99699699699698,202.23662190932487L197.39739739739738,202.62848071258796L197.79779779779778,203.0193772403515L198.1981981981982,203.40930815836404L198.5985985985986,203.79827018015504L198.998998998999,204.18626006655776L199.39939939939939,204.57327462524822L199.79979979979979,204.9593107103005L200.20020020020021,205.34436522175767L200.60060060060061,205.7284351052179L201.001001001001,206.11151735143645L201.4014014014014,206.49360899594205L201.8018018018018,206.87470711866874L202.20220220220222,207.25480884360115L202.60260260260262,207.63391133843504L203.00300300300302,208.0120118142511L203.4034034034034,208.38910752520295L203.8038038038038,208.76519576821767L204.20420420420422,209.14027388271072L204.60460460460462,209.51433925031225L205.005005005005,209.88738929460726L205.4054054054054,210.25942148088714L205.8058058058058,210.6304333159137L206.20620620620622,211.00042234769435L206.60660660660662,211.36938616526962L207.00700700700702,211.73732239851057L207.4074074074074,212.10422871792818L207.8078078078078,212.47010283449248L208.20820820820822,212.8349424994622L208.60860860860862,213.19874550422452L209.009009009009,213.56150968014433L209.4094094094094,213.92323289842244L209.8098098098098,214.28391306996392L210.21021021021022,214.6435481452539L210.61061061061062,215.00213611424286L211.01101101101102,215.35967500623957L211.4114114114114,215.71616288981218L211.8118118118118,216.0715978726967L212.21221221221222,216.425978101713L212.61261261261262,216.77930176268757L213.013013013013,217.13156708038326L213.4134134134134,217.48277231843528L213.81381381381382,217.83291577929353L214.21421421421422,218.1819958041704L214.61461461461462,218.53001077299473L215.01501501501502,218.87695910437057L215.4154154154154,219.2228392555413L215.81581581581582,219.56764972235817L216.21621621621622,219.91138903925352L216.61661661661662,220.25405577921825L217.017017017017,220.59564855378304L217.4174174174174,220.93616601300323L217.81781781781783,221.27560684544721L218.21821821821823,221.6139697781878L218.61861861861863,221.95125357679663L219.01901901901903,222.2874570453411L219.4194194194194,222.62257902638345L219.81981981981983,222.95661840098222L220.22022022022023,223.28957408869556L220.62062062062063,223.62144504758595L221.021021021021,223.9522302742265L221.4214214214214,224.28192880370815L221.82182182182183,224.61053970964798L222.22222222222223,224.9380621041981L222.62262262262263,225.26449513805505L223.02302302302303,225.58983800046929L223.4234234234234,225.91408991925476L223.82382382382383,226.2372501607985L224.22422422422423,226.55931803006933L224.62462462462463,226.88029287062622L225.025025025025,227.20017406462588L225.4254254254254,227.51896103282942L225.82582582582583,227.83665323460744L226.22622622622623,228.1532501679439L226.62662662662663,228.46875136943868L227.02702702702703,228.78315641430785L227.4274274274274,229.0964649163826L227.82782782782783,229.40867652810567L228.22822822822823,229.71979094052557L228.62862862862863,230.0298078832885L229.029029029029,230.3387271246277L229.42942942942946,230.64654847134992L229.82982982982983,230.9532717688191L230.23023023023023,231.25889690093715L230.63063063063063,231.5634237901215L231.03103103103103,231.8668523972793L231.43143143143146,232.16918272177824L231.83183183183183,232.47041480141402L232.23223223223223,232.77054871237394L232.63263263263264,233.06958456919696L233.033033033033,233.36752252472974L233.43343343343346,233.66436277007884L233.83383383383384,233.96010553455878L234.23423423423424,234.25475108563606L234.63463463463464,234.54829972886873L235.03503503503504,234.84075180784214L235.43543543543547,235.13210770409964L235.83583583583584,235.42236783706934L236.23623623623624,235.71153266398613L236.63663663663664,235.99960267980921L237.037037037037,236.2865784171348L237.43743743743747,236.57246044610434L237.83783783783784,236.85724937430786L238.23823823823824,237.14094584668254L238.63863863863864,237.42355054540667L239.03903903903904,237.7050641897883L239.43943943943947,237.98548753614926L239.83983983983984,238.26482137770452L240.24024024024024,238.54306654443604L240.64064064064064,238.82022390296225L241.041041041041,239.09629435640193L241.44144144144147,239.37127884423398L241.84184184184184,239.64517834215104L242.24224224224224,239.91799386190937L242.64264264264264,240.18972645117285L243.04304304304304,240.46037719335234L243.44344344344347,240.72994720744035L243.84384384384384,240.9984376478401L244.24424424424424,241.2658497041903L244.64464464464464,241.5321846011847L245.04504504504507,241.79744359838696L245.44544544544547,242.06162799004042L245.84584584584584,242.3247391048733L246.24624624624624,242.58677830589917L246.64664664664664,242.84774699021224L247.04704704704707,243.10764658877878L247.44744744744742,243.36647856622292L247.84784784784785,243.62424442060885L248.24824824824825,243.88094568321753L248.64864864864865,244.13658391831981L249.04904904904907,244.39116072294468L249.44944944944942,244.6446777266428L249.84984984984985,244.8971365912467L250.25025025025025,245.14853901062597L250.65065065065065,245.39888671043835L251.05105105105108,245.64818144787733L251.45145145145142,245.89642501141503L251.85185185185185,246.14361922054167L252.25225225225225,246.38976592550068L252.65265265265265,246.63486700702072L253.05305305305308,246.87892437604341L253.45345345345342,247.12193997344772L253.85385385385385,247.3639157697709L254.25425425425425,247.60485376492568L254.65465465465465,247.84475598791465L255.05505505505508,248.08362449654075L255.45545545545542,248.3214613771152L255.85585585585585,248.55826874416215L256.2562562562563,248.79404874012008L256.65665665665665,249.02880353504065L257.0570570570571,249.26253532628502L257.45745745745745,249.49524633821673L257.8578578578579,249.72693882189293L258.25825825825825,249.95761505475224L258.6586586586586,250.187277340301L259.0590590590591,250.41592800779688L259.4594594594594,250.64356941193023L259.85985985985985,250.87020393250364L260.2602602602603,251.09583397410933L260.66066066066065,251.32046196580484L261.0610610610611,251.54409036078687L261.46146146146145,251.76672163606324L261.8618618618619,251.98835829212408L262.26226226226225,252.20900285261047L262.6626626626626,252.42865786398258L263.0630630630631,252.64732589518633L263.4634634634634,252.86500953731874L263.86386386386386,253.08171140329247L264.2642642642643,253.29743412749949L264.66466466466466,253.51218036547334L265.0650650650651,253.72595279355167L265.46546546546546,253.93875410853707L265.8658658658659,254.15058702735834L266.26626626626626,254.3614542867305L266.66666666666663,254.57135864281497L267.0670670670671,254.78030287087952L267.46746746746743,254.98828976495778L267.86786786786786,255.19532213750895L268.2682682682683,255.40140281907742L268.66866866866866,255.60653465795264L269.0690690690691,255.8107205198294L269.46946946946946,256.0139632874678L269.8698698698699,256.2162658603544L270.27027027027026,256.4176311543633L270.67067067067063,256.6180621014183L271.0710710710711,256.81756164915527L271.4714714714715,257.01613276058555L271.87187187187186,257.2137784137601L272.2722722722723,257.4105016014346L272.67267267267266,257.60630533073555L273.0730730730731,257.80119262282756L273.47347347347346,257.99516651258136L273.8738738738739,258.1882300482436L274.27427427427426,258.38038629110764L274.67467467467463,258.5716383151856L275.0750750750751,258.76198920688245L275.4754754754755,258.9514420646705L275.87587587587586,259.13999999876654L276.2762762762763,259.32766613081014L276.67667667667666,259.51444359354355L277.0770770770771,259.7003355304934L277.47747747747746,259.88534509565477L277.8778778778779,260.06947545317587L278.27827827827826,260.25272977704594L278.67867867867864,260.4351112507845L279.0790790790791,260.6166230671323L279.4794794794795,260.7972684277454L279.87987987987987,260.97705054288974L280.2802802802803,261.15597263113983L280.68068068068067,261.33403791907745L281.0810810810811,261.5112496409948L281.48148148148147,261.68761103859794L281.8818818818819,261.8631253607138L282.28228228228227,262.03779586299936L282.68268268268264,262.2116258076524L283.0830830830831,262.38461846312566L283.4834834834835,262.5567771038427L283.88388388388387,262.7281050099167L284.2842842842843,262.89860546687123L284.68468468468467,263.06828176536413L285.0850850850851,263.23713720091314L285.48548548548547,263.4051750736249L285.8858858858859,263.5723986879255L286.28628628628627,263.7388113522948L286.68668668668664,263.9044163790022L287.0870870870871,264.0692170838456L287.4874874874875,264.23321678589275L287.88788788788787,264.39641880722536L288.2882882882883,264.5588264726855L288.68868868868867,264.72044310962497L289.0890890890891,264.88127204765715L289.4894894894895,265.04131661841114L289.8898898898899,265.200580155289L290.2902902902903,265.3590659932254L290.69069069069064,265.5167774684494L291.09109109109113,265.67371791824996L291.4914914914915,265.8298906807428L291.8918918918919,265.98529909464025L292.2922922922923,266.1399464990246L292.6926926926927,266.29383623312197L293.0930930930931,266.4469716360811L293.4934934934935,266.59935604675275L293.8938938938939,266.7509928034726L294.2942942942943,266.90188524384666L294.69469469469465,267.0520367045384L295.09509509509513,267.2014505210594L295.4954954954955,267.35013002756165L295.8958958958959,267.4980785566325L296.2962962962963,267.6452994390921L296.6966966966967,267.79179600379354L297.0970970970971,267.93757157742436L297.4974974974975,268.0826294843114L297.8978978978979,268.2269730462277L298.2982982982983,268.37060558220145L298.69869869869865,268.51353040832714L299.09909909909913,268.65575083757966L299.4994994994995,268.79727017962966L299.8998998998999,268.9380917406618L300.3003003003003,269.07821882319485L300.70070070070074,269.217654725904L301.1011011011011,269.3564027434453L301.5015015015015,269.4944661662822L301.9019019019019,269.631848280514L302.3023023023023,269.76855236770655L302.7027027027027,269.9045817047246L303.10310310310314,270.0399395635667L303.5035035035035,270.17462921120136L303.9039039039039,270.3086539094057L304.3043043043043,270.4420169146056L304.70470470470474,270.5747214777178L305.1051051051051,270.70677084399404L305.5055055055055,270.83816825286675L305.9059059059059,270.9689169377966L306.3063063063063,271.09902012612184L306.7067067067067,271.22848103890914L307.10710710710714,271.3573028908067L307.5075075075075,271.4854888898982L307.9079079079079,271.61304223755917L308.3083083083083,271.73996612831445L308.70870870870874,271.8662637496974L309.1091091091091,271.991938282111L309.5095095095095,272.1169928986898L309.9099099099099,272.2414307651639L310.3103103103103,272.36525503972484L310.7107107107107,272.4884688728917L311.11111111111114,272.61107540737976L311.5115115115115,272.73307777797044L311.9119119119119,272.85447911138203L312.3123123123123,272.9752825261427L312.71271271271274,273.0954911324641L313.1131131131131,273.21510803211675L313.5135135135135,273.33413631830695L313.9139139139139,273.45257907555435L314.3143143143143,273.5704393795715L314.7147147147147,273.6877202971444L315.11511511511515,273.80442488601415L315.5155155155155,273.92055619476065L315.9159159159159,274.0361172626863L316.3163163163163,274.15111111970225L316.71671671671675,274.265540786215L317.1171171171171,274.3794092730145L317.5175175175175,274.4927195811638L317.9179179179179,274.60547470188914L318.3183183183183,274.7176776164724L318.7187187187187,274.8293312961434L319.11911911911915,274.94043870197436L319.5195195195195,275.0510027847756L319.9199199199199,275.16102648499145L320.3203203203203,275.27051273259866L320.72072072072075,275.3794644470048L321.1211211211211,275.4878845369489L321.5215215215215,275.59577590040243L321.9219219219219,275.7031414244718L322.3223223223223,275.80998398530244L322.7227227227227,275.91630644798323L323.12312312312315,276.022111666453L323.5235235235235,276.12740248340754L323.9239239239239,276.2321817302083L324.3243243243243,276.3364522267922L324.72472472472475,276.4402167815822L325.1251251251251,276.54347819139986L325.5255255255255,276.64623924137885L325.9259259259259,276.7485027048791L326.3263263263263,276.85027134340334L326.7267267267267,276.9515479065137L327.12712712712715,277.05233513175074L327.5275275275275,277.1526357445528L327.9279279279279,277.2524524581773L328.3283283283283,277.351787973623L328.72872872872875,277.4506449795536L329.1291291291291,277.549026152223L329.5295295295295,277.64693415540165L329.9299299299299,277.744371640304L330.3303303303303,277.84134124551815L330.7307307307307,277.93784559693574L331.13113113113116,278.03388730768455L331.5315315315315,278.12946897806137L331.93193193193196,278.2245931954671L332.3323323323323,278.31926253434267L332.73273273273276,278.41347955610723L333.13313313313313,278.50724680909696L333.5335335335335,278.6005668285061L333.933933933934,278.69344213632894L334.3343343343343,278.78587524130376L334.73473473473473,278.8778686388581L335.13513513513516,278.9694248110558L335.53553553553553,279.0605462265451L335.93593593593596,279.15123534050934L336.33633633633633,279.24149459461796L336.73673673673676,279.3313264169806L337.13713713713713,279.42073322210126L337.5375375375375,279.5097174108357L337.93793793793793,279.5982813703493L338.3383383383383,279.6864274740771L338.73873873873873,279.7741580816858L339.13913913913916,279.86147553903703L339.53953953953953,279.94838217815243L339.93993993993996,280.0348803171807L340.34034034034033,280.12097226036633L340.74074074074076,280.2066602980199L341.14114114114113,280.29194670649053L341.5415415415415,280.37683374813963L341.941941941942,280.46132367131696L342.3423423423423,280.54541871033837L342.74274274274273,280.62912108546493L343.14314314314316,280.71243300288455L343.54354354354354,280.795356654695L343.94394394394396,280.877894218889L344.34434434434434,280.960047859341L344.74474474474476,281.0418197257958L345.14514514514514,281.1232119538594L345.5455455455455,281.2042266649912L345.94594594594594,281.28486596649856L346.3463463463463,281.36513195153276L346.74674674674674,281.4450266990873L347.14714714714717,281.5245522739977L347.54754754754754,281.6037107269434L347.94794794794797,281.6825040944516L348.34834834834834,281.7609343989027L348.74874874874877,281.8390036485378L349.14914914914914,281.91671383746825L349.5495495495495,281.9940669456866L349.94994994995,282.07106493907986L350.3503503503503,282.14770976944436L350.75075075075074,282.2240033745026L351.15115115115117,282.2999476779219L351.55155155155154,282.375544589335L351.95195195195197,282.45079600436185L352.35235235235234,282.52570380463436L352.75275275275277,282.60026985782207L353.15315315315314,282.6744960176598L353.5535535535535,282.7483841239772L353.95395395395394,282.82193600273L354.3543543543543,282.8951534660331L354.75475475475474,282.9680383121951L355.15515515515517,283.0405923257552L355.55555555555554,283.1128172775208L355.955955955956,283.1847149246077L356.35635635635634,283.2562870104817L356.7567567567568,283.32753526500136L357.15715715715714,283.3984614044631L357.5575575575575,283.46906713164765L357.957957957958,283.5393541358676L358.3583583583583,283.6093240930173L358.75875875875874,283.67897866562373L359.1591591591592,283.74831950289916L359.55955955955955,283.817348240795L359.95995995996,283.8860665020576L360.36036036036035,283.95447589628475L360.7607607607608,284.02257801998434L361.16116116116115,284.09037445663404L361.5615615615615,284.15786677674214L361.96196196196195,284.2250565379102L362.3623623623623,284.2919452848963L362.76276276276275,284.35853454968054L363.1631631631632,284.4248258515306L363.56356356356355,284.49082069706935L363.963963963964,284.55652058034343L364.36436436436435,284.62192698289266L364.7647647647648,284.6870413738211L365.1651651651652,284.75186520986847L365.5655655655655,284.81639993548333L365.965965965966,284.8806469828967L366.3663663663663,284.94460777219706L366.76676676676675,285.0082837114061L367.1671671671672,285.07167619655525L367.56756756756755,285.1347866117633L367.967967967968,285.19761632931466L368.36836836836835,285.26016670973894L368.7687687687688,285.3224391018903L369.1691691691692,285.38443484302866L369.5695695695695,285.4461552589006L369.96996996996995,285.50760166382184L370.3703703703703,285.5687753607596L370.77077077077075,285.6296776414161L371.1711711711712,285.69030978631224L371.57157157157155,285.750673064872L371.971971971972,285.81076873550734L372.37237237237235,285.87059804570356L372.7727727727728,285.930162232105L373.1731731731732,285.9894625206012L373.5735735735735,286.0485001264134L373.973973973974,286.1072762541815L374.3743743743743,286.1657920980511L374.77477477477476,286.2240488417611L375.1751751751752,286.28204765873113L375.57557557557556,286.3397897121495L375.975975975976,286.39727615506155L376.37637637637636,286.45450813045727L376.7767767767768,286.51148677136024L377.1771771771772,286.5682132009155L377.57757757757753,286.62468853247856L377.97797797797796,286.6809138697034L378.37837837837833,286.73689030663127L378.77877877877876,286.79261892777924L379.1791791791792,286.8481008082285L379.57957957957956,286.90333701371264L379.97997997998,286.9583286007064L380.38038038038036,287.01307661651333L380.7807807807808,287.06758209935407L381.1811811811812,287.12184607845415L381.58158158158153,287.1758695741318L381.981981981982,287.2296535978853L382.38238238238233,287.2831991524803L382.78278278278276,287.3365072320367L383.1831831831832,287.3895788221155L383.58358358358356,287.4424148998054L383.983983983984,287.49501643380864L384.38438438438436,287.5473843845271L384.7847847847848,287.5995197041477L385.1851851851852,287.65142333672765L385.58558558558553,287.70309621827903L385.98598598598596,287.7545392768535L386.38638638638633,287.8057534326263L386.78678678678676,287.8567395979797L387.1871871871872,287.90749867758643L387.58758758758756,287.9580315684924L387.987987987988,288.00833916019917L388.38838838838836,288.0584223347458L388.7887887887888,288.1082819667904L389.1891891891892,288.15791892369134L389.58958958958954,288.20733406558753L389.98998998999,288.2565282454788L390.39039039039034,288.3055023093056L390.79079079079077,288.35425709602794L391.1911911911912,288.4027934377043L391.59159159159157,288.45111215956996L391.991991991992,288.49921408011454L392.39239239239237,288.5471000111593L392.7927927927928,288.59477075793416L393.1931931931932,288.64222711915386L393.59359359359354,288.6894698870937L393.99399399399397,288.7364998476652L394.39439439439445,288.7833177804906L394.79479479479477,288.8299244589777L395.1951951951952,288.87632065039344L395.59559559559557,288.92250711593744L395.995995995996,288.96848461081515L396.3963963963964,289.0142538843105L396.7967967967968,289.05981567985754L397.1971971971972,289.1051707351126L397.59759759759754,289.1503197820252L397.997997997998,289.19526354690896L398.39839839839846,289.240002750512L398.79879879879877,289.28453810808674L399.1991991991992,289.3288703294596L399.59959959959957,289.37300011909997L400,289.416928176189" stroke="#4c78a8" stroke-width="2"></path></g></g><path class="foreground" aria-hidden="true" d="" display="none"></path></g></g></g></svg>