<svg class="marks" width="410" height="312" viewBox="0 0 410 312" version="1.1" xmlns="http://www.w3.org/2000/svg" xmlns:xlink="http://www.w3.org/1999/xlink"><rect width="410" height="312" fill="white"></rect><g fill="none" stroke-miterlimit="10" transform="translate(5,7)"><g class="mark-group role-frame root" role="graphics-object" aria-roledescription="group mark container"><g transform="translate(0,0)"><path class="background" aria-hidden="true" d="M0.5,0.5h400v300h-400Z"></path><g><g class="mark-line role-mark layer_0_marks" role="graphics-symbol" aria-roledescription="line mark container"><path d="M28.57142857142857,292.6866907030113L28.91462891462892,292.611732761643L29.257829257829265,292.5357580306778L29.601029601029587,292.4587540116266L29.94422994422994,292.38070802843816L30.28743028743029,292.30160722668194L30.630630630630634,292.2214385728687L30.973830973830985,292.140188853915L31.317031317031308,292.05784467675176L31.660231660231652,291.97439246807943L32.003432003432,291.88981847427203L32.34663234663235,291.80410876143077L32.6898326898327,291.71724921559013L33.03303303303302,291.6292255430758L33.37623337623337,291.5400232710167L33.71943371943372,291.44962774801127L34.06263406263407,291.35802414494844L34.40583440583441,291.2651974559838L34.749034749034735,291.17113249967093L35.092235092235086,291.0758139202471L35.43543543543543,290.97922618907387L35.77863577863578,290.8813536062312L36.12183612183613,290.7821803022644L36.465036465036455,290.68169024008284L36.8082368082368,290.5798672170088L37.15143715143715,290.476694866976L37.494637494637495,290.37215666287403L37.837837837837846,290.2662359190391L38.18103818103817,290.1589157938874L38.52423852423851,290.05017929268905L38.867438867438864,289.94000927048086L39.210639210639215,289.82838843511394L39.55383955383956,289.71529935043475L39.89703989703991,289.60072443959547L40.24024024024023,289.48464598849097L40.58344058344058,289.3670461493194L40.92664092664093,289.2479069442622L41.26984126984127,289.12721026928057L41.613041613041624,289.00493789802454L41.956241956241946,288.8810714858506L42.2994422994423,288.75559257394485L42.64264264264264,288.6284825935459L42.98584298584299,288.4997228702656L43.32904332904334,288.36929462850213L43.67224367224366,288.2371789959411L44.01544401544401,288.1033570081415L44.358644358644355,287.9678096132004L44.701844701844706,287.8305176764949L45.04504504504506,287.69146198549305L45.38824538824538,287.55062325463314L45.731445731445724,287.4079821302643L46.074646074646076,287.26351919564553L46.41784641784642,287.11721497599774L46.76104676104677,286.96904994360517L47.104247104247115,286.8190045229615L47.44744744744744,286.66705909595623L47.79064779064779,286.5131940070971L48.13384813384814,286.3573895687647L48.477048477048484,286.1996260664944L48.820248820248835,286.0398837642819L49.16344916344916,285.8781429099086L49.5066495066495,285.7143837402818L49.84984984984985,285.5485864867871L50.193050193050205,285.38073138064823L50.53625053625055,285.2107986582911L50.87945087945087,285.03876856670763L51.222651222651216,284.8646213688172L51.565851565851574,284.68833734882037L51.90905190905192,284.50989681754345L52.25225225225226,284.3292801177688L52.595452595452585,284.1464676295491L52.93865293865293,283.96143977550133L53.28185328185329,283.7741770260787L53.62505362505363,283.58465990481614L53.968253968253975,283.39286899354755L54.3114543114543,283.1987849375919L54.65465465465466,283.002388450905L54.997854997855,282.8036603211952L55.341055341055345,282.60258141499895L55.68425568425569,282.3991326827164L56.02745602745601,282.19329516360125L56.37065637065637,281.98504999070565L56.713856713856714,281.7743783957756L57.05705705705706,281.56126171409636L57.400257400257416,281.3456813892837L57.74345774345774,281.12761897802113L58.08665808665808,280.9070561547386L58.42985842985843,280.68397471623257L58.77305877305877,280.45835658622394L59.11625911625913,280.2301838198523L59.45945945945945,279.99943860810424L59.8026598026598,279.7661032821735L60.14586014586014,279.530160317751L60.4890604890605,279.29159233924247L60.83226083226084,279.05038212391094L61.175461175461166,278.8065126059428L61.51866151866151,278.55996688043393L61.861861861861854,278.3107282072945L62.20506220506221,278.0587800150695L62.54826254826256,277.80410590467227L62.89146289146288,277.54668965302926L63.23466323466322,277.2865152166319L63.57786357786358,277.0235667349946L63.921063921063926,276.7578285340145L64.26426426426427,276.48928512923123L64.60746460746459,276.21792122898245L64.95066495066494,275.9437217374532L65.2938652938653,275.66667175761563L65.63706563706563,275.3867565940549L65.98026598026598,275.10396175567934L66.3234663234663,274.81827295831044L66.66666666666666,274.52967612714946L67.00986700986701,274.2381573991171L67.35306735306736,273.94370312506305L67.6962676962677,273.6462998718405L68.03946803946802,273.3459344242436L68.38266838266837,273.04259378680246L68.72586872586872,272.73626518543324L69.06906906906907,272.4269360689389L69.41226941226942,272.1145941103566L69.75546975546975,271.79922720814864L70.09867009867008,271.48082348723267L70.44187044187044,271.1593712998481L70.78507078507079,270.8348592262542L71.12827112827114,270.50727607525687L71.47147147147146,270.1766108845614L71.81467181467183,269.842852920946L72.15787215787215,269.50599168025514L72.5010725010725,269.16601688720783L72.84427284427285,268.82291849501956L73.18747318747317,268.47668668483414L73.53067353067354,268.1273118649633L73.87387387387386,267.77478466993296L74.21707421707421,267.4190959593325L74.56027456027456,267.0602368164673L74.90347490347492,266.69819854681174L75.24667524667527,266.33297267626324L75.58987558987559,265.9645509491956L75.93307593307593,265.5929253263122L76.27627627627628,265.218087982299L76.61947661947663,264.84003130327864L76.96267696267698,264.4587478840657L77.3058773058773,264.0742305252264L77.64907764907764,263.6864722299429L77.99227799227799,263.2954662006865L78.33547833547834,262.9012058357028L78.6786786786787,262.5036847253106L79.02187902187902,262.1028966480225L79.36507936507937,261.6988355664878L79.7082797082797,261.2914956232669L80.05148005148006,260.8808711364409L80.3946803946804,260.4669565950642L80.73788073788073,260.0497466544671L81.08108108108108,259.6292361314163L81.42428142428143,259.2054199991418L81.76748176748177,258.77829338224L82.11068211068212,258.3478515514621L82.45388245388244,257.9140899183982L82.7970827970828,257.4770040300692L83.14028314028315,257.03658956343725L83.4834834834835,256.5928423198473L83.82668382668383,256.14575821941276L84.16988416988416,255.6953332953592L84.51308451308451,255.24156368833908L84.85628485628486,254.78444564073345L85.19948519948521,254.3239754909548L85.54268554268555,253.8601496677672L85.8858858858859,253.39296468464L86.22908622908622,252.92241713415103L86.57228657228657,252.44850368245753L86.91548691548692,251.97122106385095L87.25868725868725,251.49056607541448L87.60188760188761,251.00653557180075L87.94508794508793,250.51912646014867L88.28828828828829,250.02833569515744L88.63148863148864,249.53416027433747L88.97468897468897,249.03659723345655L89.31788931788932,248.5356436422002L89.66108966108965,248.03129660006695L90.00429000429,247.52355323251547L90.34749034749035,247.0124106873852L90.69069069069069,246.49786613160737L91.03389103389104,245.97991674822745L91.37709137709138,245.45855973375618L91.72029172029171,244.93379229586873L92.06349206349206,244.40561165147017L92.4066924066924,243.8740150251447L92.74989274989275,243.33899964800656L93.09309309309309,242.80056275696987L93.43629343629344,242.25870159445316L93.77949377949378,241.71341340853553L94.12269412269411,241.16469545357916L94.46589446589446,240.61254499133295L94.80909480909482,240.05695929253113L95.15229515229515,239.49793563900053L95.4954954954955,238.93547132628765L95.83869583869583,238.36956366681866L96.18189618189618,237.8002099936006L96.52509652509653,237.22740766447552L96.86829686829687,236.65115406693405L97.21149721149722,236.0714466234973L97.55469755469754,235.48828279767218L97.8978978978979,234.90166010048586L98.24109824109824,234.3115760976034L98.58429858429858,233.7180284170305L98.92749892749893,233.1210147574035L99.27069927069928,232.52053289686611L99.61389961389962,231.91658070253288L99.95709995709996,231.3091561405348L100.30030030030031,230.69825728664574L100.64350064350064,230.083882337482L100.986700986701,229.46602962227018L101.32990132990132,228.84469761517454L101.67310167310168,228.21988494817438L102.016302016302,227.59159042448132L102.35950235950236,226.9598130324829L102.7027027027027,226.32455196020115L103.04590304590305,225.68580661024848L103.38910338910338,225.04357661526694L103.73230373230373,224.39786185383204L104.07550407550407,223.74866246680182L104.41870441870442,223.09597887409217L104.76190476190477,222.43981179185542L105.10510510510511,221.7801622500409L105.44830544830543,221.1170316103117L105.79150579150578,220.45042158429473L106.13470613470615,219.78033425213567L106.47790647790647,219.1067720813333L106.82110682110681,218.42973794582332L107.16430716430716,217.74923514528405L107.50750750750751,217.06526742463228L107.85070785070785,216.37783899367957L108.1939081939082,215.6869545469162L108.53710853710854,214.9926192833908L108.88030888030889,214.2948389266527L109.22350922350923,213.59361974472236L109.56670956670958,212.88896857005724L109.9099099099099,212.18089281947658L110.25311025311024,211.46940051401168L110.59631059631062,210.75450029864558L110.93951093951094,210.03620146190664L111.28271128271128,209.31451395528129L111.62591162591163,208.5894484124088L111.96911196911196,207.8610161680243L112.31231231231232,207.12922927661324L112.65551265551265,206.39410053074286L112.998712998713,205.65564347903475L113.34191334191334,204.9138724437459L113.68511368511369,204.16880253792152L114.02831402831404,203.42044968208828L114.37151437151437,202.668830620454L114.7147147147147,201.9139629365814L115.05791505791507,201.15586506850516L115.40111540111542,200.39455632326087L115.74431574431574,199.6300568907966L116.08751608751608,198.86238785723836L116.43071643071643,198.09157121748135L116.77391677391678,197.31762988708118L117.11711711711712,196.54058771341874L117.46031746031744,195.7604694861152L117.80351780351779,194.97730094667457L118.14671814671816,194.19110879733122L118.4899184899185,193.4019207090835L118.83311883311885,192.60976532889418L119.17631917631917,191.81467228604026L119.51951951951952,191.0166721975975L119.86271986271986,190.21579667304448L120.20592020592021,189.41207831797456L120.54912054912054,188.6055507369043L120.89232089232087,187.79624853516944L121.23552123552126,186.98420731990086L121.57872157872158,186.16946370007417L121.92192192192192,185.35205528562946L122.26512226512227,184.53202068565773L122.6083226083226,183.7093995056541L122.95152295152296,182.88423234383777L123.29472329472328,182.05656078654152L123.63792363792363,181.22642740267506L123.981123981124,180.3938757372675L124.32432432432432,179.55895030409687L124.66752466752469,178.72169657741512L125.01072501072501,177.8821609827793L125.35392535392535,177.040390887001L125.6971256971257,176.1964345872278L126.04032604032602,175.35034129917085L126.38352638352639,174.5021611444963L126.72672672672671,173.65194513739686L127.06992706992708,172.79974517036325L127.41312741312743,171.94561399917637L127.75632775632775,171.08960522714054L128.09952809952813,170.2317732885811L128.44272844272842,169.37217343163013L128.78592878592877,168.51086170032465L129.12912912912913,167.64789491604364L129.47232947232945,166.78333065830967L129.81552981552983,165.91722724498285L130.15873015873015,165.04964371187603L130.5019305019305,164.18063979181863L130.84513084513085,163.3102758932003L131.18833118833118,162.43861307802277L131.53153153153156,161.56571303949167L131.87473187473188,160.69163807917923L132.2179322179322,159.81645108378748L132.56113256113255,158.94021550154673L132.90433290433288,158.06299531827744L133.24753324753326,157.18485503315026L133.59073359073358,156.3058596341747L133.93393393393393,155.4260745734493L134.27713427713428,154.5455657422048L134.6203346203346,153.6643994456721L134.96353496353498,152.78264237780746L135.3067353067353,151.90036159590548L135.64993564993563,151.01762449513188L135.993135993136,150.1344987830063L136.33633633633633,149.2510524538664L136.67953667953668,148.3673537633426L137.022737022737,147.48347120287326L137.36593736593736,146.59947347429016L137.7091377091377,145.71542946450097L138.05233805233803,144.8314082202995L138.3955383955384,143.9474789233279L138.73873873873873,143.06371086522003L139.08193908193908,142.1801734229503L139.42513942513943,141.2969360344143L139.76833976833976,140.41406817426545L140.11154011154014,139.5316393300308L140.45474045474043,138.64971897853053L140.79794079794078,137.76837656262109L141.14114114114113,136.8876814682859L141.48434148434146,136.00770300209254L141.82754182754184,135.1285103690366L142.17074217074216,134.2501726507918L142.5139425139425,133.3727587843834L142.85714285714286,132.49633754130323L143.2003432003432,131.62097750708253L143.54354354354356,130.7467470613379L143.8867438867439,129.87371435830602L144.2299442299442,129.00194730788007L144.57314457314456,128.1315135571625L144.91634491634494,127.26248047254526L145.25954525954526,126.3949151223303L145.60274560274559,125.52888425990035L145.94594594594594,124.66445430745028L146.2891462891463,123.80169134028985L146.63234663234664,122.94066107172411L146.975546975547,122.08142883852128L147.3187473187473,121.22405958697469L147.66194766194764,120.36861785956563L148.00514800514802,119.5151677822323L148.34834834834837,118.66377305225151L148.6915486915487,117.81449692673614L149.034749034749,116.9674022117532L149.37794937794936,116.12255125206617L149.72114972114971,115.28000592150372L150.06435006435007,114.43982761395685L150.40755040755042,113.60207723500739L150.75075075075074,112.76681519418696L151.0939510939511,111.93410139786866L151.43715143715144,111.10399524279002L151.7803517803518,110.27655561020856L152.12355212355214,109.45184086068579L152.46675246675244,108.62990882950174L152.8099528099528,107.81081682269419L153.15315315315314,106.99462161372392L153.4963534963535,106.18137944075912L153.83955383955384,105.37114600457708L154.1827541827542,104.56397646708062L154.52595452595452,103.75992545042075L154.86915486915487,102.95904703672413L155.21235521235522,102.1613947684186L155.55555555555557,101.36702164914948L155.8987558987559,100.57598014528185L156.24195624195622,99.78832218798078L156.58515658515657,99.00409917586221L156.92835692835695,98.22336197820704L157.27155727155727,97.44616093872851L157.61475761475762,96.67254587988559L157.95795795795794,95.90256610773093L158.3011583011583,95.13627041728586L158.64435864435865,94.37370709842887L158.987558987559,93.61492394228948L159.33075933075932,92.85996824813353L159.67395967395964,92.10888683072955L160.01716001716002,91.36172602818228L160.36036036036037,90.61853171022169L160.7035607035607,89.87934928693183L161.04676104676105,89.14422371790766L161.38996138996137,88.41319952182364L161.73316173316172,87.68632078639868L162.07636207636207,86.96363117874324L162.41956241956242,86.24517395607107L162.76276276276278,85.53099197675867L163.1059631059631,84.82112771173668L163.44916344916345,84.11562325619364L163.7923637923638,83.41452034157533L164.13556413556415,82.71786034785991L164.47876447876448,82.02568431609065L164.8219648219648,81.3380329611458L165.16516516516515,80.65494668472525L165.5083655083655,79.97646558853535L165.85156585156585,79.30262948764872L166.1947661947662,78.63347792401798L166.53796653796653,77.96905018012413L166.88116688116688,77.30938529273395L167.22436722436723,76.65452206674695L167.56756756756758,76.00449908910772L167.9107679107679,75.35935474276076L168.25396825396825,74.71912722062493L168.59716859716858,74.08385453956443L168.94036894036896,73.45357455433117L169.28356928356928,72.82832497145667L169.62676962676963,72.2081433630677L169.96996996996998,71.59306718060235L170.3131703131703,70.98313376840312L170.65637065637065,70.37838037716084L170.999570999571,69.77884417718728L171.34277134277133,69.18456227149053L171.6859716859717,68.59557170863025L172.02917202917203,68.011909495328L172.37237237237238,67.4336126088085L172.7155727155727,66.86071800884898L173.05877305877306,66.29326264951222L173.4019734019734,65.73128349054004L173.74517374517373,65.17481750838436L174.08837408837408,64.62390170685262L174.43157443157443,64.07857312734635L174.77477477477478,63.538868858669225L175.11797511797513,63.00482604638374L175.46117546117546,62.476481901695635L175.8043758043758,61.9538737098446L176.14757614757616,61.43703883798237L176.49077649077648,60.926014742516266L176.83397683397683,60.42083897590196L177.17717717717716,59.92154919286552L177.5203775203775,59.42818315603577L177.86357786357786,58.94077874097301L178.2067782067782,58.45937394057502L178.54997854997856,57.98400686884519L178.89317889317888,57.51471576400922L179.23637923637924,57.05153899096478L179.5795795795796,56.59451504305133L179.9227799227799,56.143682543127916L180.26598026598026,55.69908024394701L180.60918060918058,55.26074702781438L180.95238095238096,54.82872190552297L181.2955812955813,54.40304401455616L181.63878163878164,53.983752616547285L181.981981981982,53.57088709399246L182.3251823251823,53.16448694620849L182.66838266838266,52.76459178453222L183.011583011583,52.37124132675588L183.35478335478334,51.98447539079606L183.69798369798372,51.604333887595175L184.04118404118407,51.2308568132526L184.3843843843844,50.86408424038725L184.7275847275847,50.504056308731236L185.07078507078506,50.15081321495808L185.41398541398542,49.804395201747894L185.75718575718577,49.464842546093735L186.1003861003861,49.13219554685484L186.44358644358644,48.80649451156332L186.7867867867868,48.48777974249025L187.12998712998714,48.17609152198232L187.4731874731875,47.87147009707573L187.81638781638782,47.573955663400426L188.15958815958817,47.28358834838416L188.5027885027885,47.00040819377064L188.84598884598884,46.724455137465426L189.1891891891892,46.45576899472281L189.53238953238952,46.1943894386922L189.87558987558987,45.940355980337245L190.21879021879022,45.69370794774947L190.56199056199057,45.454484464871804L190.90519090519092,45.22272442965403L191.24839124839124,44.99846649165956L191.5915915915916,44.78174902914631L191.93479193479192,44.572610125643145L192.27799227799227,44.37108754604613L192.62119262119265,44.17721871225942L192.96439296439297,43.9910406784046L193.3075933075933,43.81259010562585L193.65079365079364,43.64190323651758L193.993993993994,43.47901586920222L194.33719433719435,43.32396333108605L194.68039468039467,43.17678045232402L195.02359502359502,43.03750153902095L195.36679536679534,42.90616034620259L195.70999570999572,42.782790050585085L196.05319605319607,42.66742322317702L196.3963963963964,42.56009180174545L196.73959673959672,42.460827063177895L197.08279708279707,42.369659595777286L197.42599742599742,42.28661927151851L197.76919776919777,42.21173521830679L198.11239811239813,42.145035792267635L198.45559845559845,42.0865485501071L198.7987987987988,42.03630022157554L199.14199914199915,41.99431668207123L199.4851994851995,41.96062292542039L199.82839982839982,41.93524303686744L200.17160017160018,41.91820016631489L200.51480051480053,41.90951650184467L200.85800085800085,41.909213243561084L201.20120120120123,41.91731057778855L201.54440154440155,41.93382765166061L201.88760188760187,41.95878254813712L202.23080223080223,41.992192261482856L202.57400257400255,42.03407267324435L202.91720291720293,42.08443852875833L203.26040326040328,42.143303414227454L203.6036036036036,42.21067973439568L203.94680394680393,42.28657869085708L204.2900042900043,42.37101026103063L204.63320463320463,42.463983177833256L204.97640497640498,42.56550491008162L205.3196053196053,42.675581643652336L205.66280566280562,42.79421826343324L206.006006006006,42.92141833608915L206.34920634920638,43.057184093674906L206.6924066924067,43.201516418118544L207.03560703560703,43.35441482660168L207.37880737880738,43.515877457860874L207.7220077220077,43.68590105943312L208.06520806520808,43.864480975867096L208.4084084084084,44.05161113792122L208.75160875160873,44.24728405276658L209.09480909480908,44.451490795213175L209.43800943800946,44.66422099997522L209.78120978120978,44.88546285499162L210.12441012441013,45.11520309581209L210.46761046761046,45.35342700106306L210.81081081081078,45.600118389002944L211.15401115401116,45.855259615173175L211.49721149721148,46.11883157115487L211.84041184041183,46.39081368443328L212.1836121836122,46.671183919375224L212.52681252681253,46.95991877932054L212.87001287001286,47.256993309787255L213.21321321321324,47.562381102788166L213.55641355641356,47.876054302256954L213.8996138996139,48.19798361057672L214.24281424281423,48.52813829620439L214.58601458601456,48.86648620238301L214.92921492921494,49.21299375693007L215.2724152724153,49.567625983091276L215.6156156156156,49.9303465114434L215.95881595881593,50.301117592834366L216.3020163020163,50.6799001123397L216.64521664521664,51.06665360421886L216.988416988417,51.461336267850896L217.3316173316173,51.86390498462671L217.67481767481763,52.27431533577609L218.018018018018,52.69252162110318L218.3612183612184,53.11847687860644L218.7044187044187,53.55213290495379L219.04761904761907,53.9934402767856L219.3908193908194,54.44234837281587L219.7340197340197,54.8988053966999L220.0772200772201,55.3627584006377L220.4204204204204,55.83415330967896L220.76362076362076,56.31293494669733L221.1068211068211,56.79904705799866L221.45002145002147,57.29243233952788L221.7932217932218,57.7930324636385L222.13642213642214,58.30078810638889L222.47962247962246,58.81563897532763L222.8228228228228,59.33752383773053L223.16602316602317,59.86638054925232L223.5092235092235,60.40214608295382L223.85242385242384,60.94475655866696L224.19562419562422,61.494147272660285L224.53882453882454,62.05025272756487L224.88202488202487,62.613006662523986L225.22522522522524,63.182342083528184L225.56842556842557,63.75819129389748L225.91162591162592,64.34048592487375L226.25482625482624,64.92915696628711L226.59802659802656,65.52413479725716L226.94122694122694,66.12534921689675L227.2844272844273,66.73272947498057L227.62762762762762,67.3462043025436L227.970827970828,67.96570194237816L228.31402831402832,68.5911501793929L228.65722865722864,69.22247637080565L229.000429000429,69.85960747613508L229.34362934362937,70.50247008696377L229.6868296868297,71.15099045644206L230.03003003003002,71.80509452850514L230.37323037323034,72.46470796677625L230.71643071643072,73.12975618313051L231.05963105963107,73.80016436589393L231.4028314028314,74.47585750765533L231.74603174603172,75.15676043266876L232.08923208923204,75.8427978238246L232.43243243243242,76.5338942491708L232.77563277563283,77.22997418796581L233.11883311883315,77.93096205624545L233.46203346203347,78.63678223188927L233.8052338052338,79.34735907917046L234.14843414843415,80.06261697277779L234.49163449163453,80.78248032129565L234.83483483483485,81.50687359013375L235.17803517803517,82.23572132389612L235.5212355212355,82.96894816818092L235.86443586443585,83.70647889080429L236.20763620763623,84.44823840244294L236.55083655083655,85.19415177669049L236.89403689403687,85.94414426952352L237.2372372372372,86.69814133817616L237.58043758043758,87.45606865941932L237.92363792363793,88.21785214724689L238.26683826683825,88.98341796996735L238.61003861003857,89.75269256670218L238.9532389532389,90.52560266329466L239.2964392964393,91.30207528762952L239.63963963963968,92.08203778436943L239.98283998284,92.86541782911114L240.32604032604033,93.65214344196633L240.66924066924065,94.44214300057382L241.012441012441,95.2353452525466L241.35564135564138,96.03167932736315L241.6988416988417,96.83107474770769L242.04204204204203,97.63346144026725L242.38524238524235,98.43876974599348L242.72844272844273,99.24693042983631L243.07164307164308,100.05787468995744L243.4148434148434,100.87153416643231L243.75804375804373,101.68784094944844L244.10124410124405,102.50672758700809L244.44444444444443,103.32812709214424L244.78764478764484,104.1519729496573L245.13084513084516,104.97819912238177L245.47404547404548,105.80674005699026L245.8172458172458,106.63753068934307L246.16044616044616,107.47050644939138L246.50364650364654,108.30560326564141L246.84684684684686,109.1427575691874L247.19004719004718,109.98190629732075L247.5332475332475,110.82298689672157L247.87644787644786,111.66593732624105L248.21964821964823,112.51069605927881L248.56284856284856,113.35720208576421L248.90604890604888,114.20539491374545L249.2492492492492,115.0552145705939L249.59244959244958,115.90660160382733L249.93564993564993,116.75949708155918L250.27885027885026,117.61384259257764L250.62205062205058,118.46958024605946L250.9652509652509,119.32665267092369L251.3084513084513,120.18500301482867L251.6516516516517,121.04457494281728L251.994851994852,121.9053126356142L252.33805233805234,122.76716078757863L252.68125268125266,123.63006460431687L253.024453024453,124.4939697999585L253.3676533676534,125.35882259409844L253.7108537108537,126.22456970841063L254.05405405405403,127.0911583629356L254.39725439725436,127.95853627204562L254.74045474045474,128.8266516400922L255.0836550836551,129.69545315673878L255.4268554268554,130.56488999198325L255.77005577005573,131.43491179087542L256.1132561132561,132.30546866793182L256.4564564564564,133.1765112012551L256.7996567996568,134.04799042636185L257.14285714285717,134.91985782972463L257.48605748605746,135.7920653420336L257.82925782925787,136.66456533118577L258.17245817245816,137.53731059500564L258.5156585156585,138.41025435370898L258.85885885885887,139.28335024211154L259.20205920205916,140.15655230159737L259.54525954525957,141.02981497185084L259.88845988845986,141.90309308236334L260.23166023166027,142.7763418437267L260.57486057486057,143.64951683871996L260.9180609180609,144.52257401320526L261.26126126126127,145.3954696668412L261.60446160446156,146.268160443628L261.94766194766197,147.14060332229874L262.29086229086226,148.01275560656723L262.6340626340626,148.88457491525173L262.977262977263,149.75601917228573L263.3204633204633,150.62704659663314L263.66366366366367,151.49761569212637L264.006864006864,152.36768523724064L264.3500643500643,153.23721427482553L264.6932646932647,154.10616210181064L265.036465036465,154.9744882589036L265.3796653796654,155.84215252030242L265.7228657228657,156.70911488343776L266.066066066066,157.57533555877055L266.4092664092664,158.4407749596609L266.7524667524667,159.30539369233213L267.0956670956671,160.16915254595173L267.4388674388674,161.0320124828472L267.78206778206777,161.89393462888418L268.1252681252681,162.754880264024L268.4684684684684,163.6148108130846L268.8116688116688,164.4736878367287L269.1548691548692,165.33147302269745L269.49806949806947,166.18812817731597L269.8412698412699,167.04361521728976L270.1844701844702,167.89789616181363L270.5276705276705,168.75093312501807L270.8708708708709,169.60268830876896L271.21407121407117,170.45312399584657L271.5572715572716,171.30220254351997L271.90047190047187,172.1498863775387L272.2436722436723,172.99613798656173L272.5868725868726,173.84091991703846L272.9300729300729,174.6841947685647L273.2732732732733,175.5259251897261L273.61647361647357,176.3660738744469L273.959673959674,177.20460355886092L274.3028743028743,178.04147701871486L274.6460746460746,178.8766570673218L274.98927498927503,179.71010655407352L275.3324753324753,180.5417883635239L275.6756756756757,181.37166541505414L276.018876018876,182.1997006631259L276.3620763620763,183.02585709813275L276.70527670527673,183.85009774785368L277.048477048477,184.6723856795128L277.3916773916774,185.4926840024519L277.7348777348777,186.31095587141368L278.0780780780781,187.12716449043856L278.42127842127843,187.9412731173727L278.7644787644787,188.75324506898664L279.10767910767913,189.5630437266977L279.4508794508794,190.3706325428926L279.7940797940798,191.17597504784396L280.13728013728013,191.97903485720943L280.4804804804804,192.77977568010698L280.82368082368083,193.57816132775187L281.1668811668812,194.3741557226439L281.51008151008153,195.1677229082914L281.8532818532819,195.9588270594535L282.1964821964822,196.74743249288713L282.53968253968253,197.53350367857715L282.8828828828829,198.317005251431L283.22608322608323,199.09790202341793L283.5692835692836,199.87615899612774L283.9124839124839,200.65174137372887L284.2556842556843,201.42461457629847L284.5988845988846,202.19474425349938L284.94208494208493,202.9620962985792L285.2852852852853,203.72663686266065L285.6284856284856,204.48833236929747L285.971685971686,205.24714952926473L286.3148863148863,206.00305535555393L286.6580866580867,206.75601717854306L287.00128700128704,207.5060026613082L287.34448734448733,208.2529798150472L287.6876876876877,208.9969170145816L288.03088803088804,209.73778301390357L288.3740883740884,210.47554696173808L288.71728871728874,211.2101784170825L289.06048906048903,211.94164736469548L289.40368940368944,212.6699242304979L289.74688974688974,213.3949798968545L290.0900900900901,214.11678571770432L290.43329043329044,214.83531353350475L290.77649077649073,215.55053568595937L291.11969111969114,216.2624250324958L291.46289146289143,216.97095496046293L291.8060918060918,217.67609940101752L292.14929214929214,218.3778328426678L292.49249249249243,219.07613034444773L292.83569283569284,219.7709675486902L293.1788931788932,220.4623206933739L293.52209352209354,221.150166624016L293.8652938652939,221.83448280508492L294.2084942084942,222.51524733090972L294.55169455169454,223.19243893606125L294.8948948948949,223.86603700518316L295.23809523809524,224.5360215822541L295.5812955812956,225.2023733792573L295.9244959244959,225.86507378424412L296.2676962676963,226.52410486877093L296.6108966108966,227.17944939469615L296.95409695409694,227.8310908203236L297.2972972972973,228.4790133058785L297.6404976404976,229.12320171830766L297.983697983698,229.76364163539233L298.3268983268983,230.40031934916792L298.6700986700987,231.03322186864423L299.01329901329905,231.66233692182143L299.35649935649934,232.28765295700012L299.6996996996997,232.90915914338356L300.04290004290004,233.52684537097238L300.3861003861004,234.14070224975606L300.72930072930075,234.75072110820165L301.07250107250104,235.35689399104868L301.4157014157014,235.95921365641433L301.75890175890174,236.55767357221833L302.1021021021021,237.15226791193888L302.44530244530245,237.74299154970802L302.78850278850274,238.32984005476266L303.13170313170315,238.91280968526252L303.47490347490344,239.49189738149227L303.8181038181038,240.0671007584646L304.16130416130414,240.63841809794076L304.50450450450444,241.2058483398902L304.84770484770485,241.7693910734068L305.1909051909052,242.32904652710545L305.53410553410555,242.88481555902004L305.8773058773059,243.43669964602583L306.2205062205062,243.9847008728118L306.56370656370655,244.52882192042583L306.9069069069069,245.06906605441932L307.25010725010725,245.6054371126184L307.5933075933076,246.1379394925455L307.93650793650795,246.66657813852225L308.2797082797083,247.19135852847754L308.6229086229086,247.71228666049203L308.96610896610895,248.22936903910457L309.3093093093093,248.7426126614102L309.65250965250965,249.25202500297829L309.99570999571,249.75761400361773L310.3389103389103,250.2593880530198L310.6821106821107,250.75735597630467L311.02531102531105,251.25152701950074L311.3685113685114,251.74191083498462L311.7117117117117,252.228517466908L312.05491205491205,252.7113573366397L312.3981123981124,253.19044122824846L312.74131274131275,253.66578027405217L313.0845130845131,254.1373859402599L313.42771342771346,254.6052700127296L313.77091377091375,255.06944458286733L314.1141141141141,255.52992203368956L314.45731445731445,255.98671502607058L314.8005148005148,256.4398364851986L315.14371514371516,256.8892995872578L315.48691548691545,257.33511774635855L315.8301158301158,257.7773046017322L316.17331617331615,258.2158740052094L316.51651651651656,258.6508400089975L316.85971685971685,259.08221685377174L317.2029172029172,259.5100189570962L317.54611754611756,259.9342609021853L317.8893178893179,260.35495742701914L318.23251823251826,260.7721234138233L318.57571857571855,261.1857738789211L318.9189189189189,261.59592396296966L319.26211926211926,262.0025889215832L319.6053196053196,262.40578411635227L319.94851994851996,262.8055250062635L320.2917202917203,263.20182713952147L320.6349206349206,263.59470614577793L320.97812097812096,263.98417772876775L321.3213213213213,264.3702576593528L321.66452166452166,264.75296176897274L322.007722007722,265.1323059435007L322.3509223509223,265.5083061175013L322.6941226941227,265.88097826888674L323.03732303732306,266.2503384139658L323.3805233805234,266.61640260288084L323.7237237237237,266.97918691542526L324.06692406692406,267.33870745723436L324.4101244101244,267.69498035634064L324.75332475332476,268.0480217600843L325.0965250965251,268.397847832371L325.4397254397254,268.7444747512625L325.78292578292576,269.08791870689305L326.1261261261261,269.42819589969696L326.46932646932646,269.7653225389359L326.8125268125268,270.0993148415133L327.15572715572716,270.4301890310625L327.49892749892746,270.75796133729455L327.8421278421278,271.08264799559214L328.18532818532816,271.4042652468352L328.52852852852857,271.72282933744395L328.87172887172886,272.0383565196237L329.2149292149292,272.350863051798L329.55812955812956,272.6603651992142L329.9013299013299,272.9668792347066L330.24453024453027,273.2704214396025L330.58773058773056,273.57100810475583L330.9309309309309,273.86865553169434L331.27413127413126,274.1633800338643L331.6173316173316,274.4551979379595L331.96053196053197,274.74412558531975L332.3037323037323,275.0301793333846L332.6469326469326,275.313375557189L332.99013299013296,275.59373065088715L333.3333333333333,275.87126102929176L333.67653367653367,276.1459831294158L334.019734019734,276.4179134120045L334.3629343629343,276.6870683630464L334.7061347061347,276.95346449525124L335.04933504933507,277.2171183494841L335.3925353925354,277.47804649614665L335.7357357357357,277.7362655364933L336.07893607893607,277.99179210387587L336.4221364221364,278.24464286490564L336.76533676533677,278.4948345205261L337.1085371085371,278.74238380698915L337.4517374517375,278.98730749672563L337.7949377949378,279.2296223991072L338.1381381381381,279.4693453610906L338.48133848133847,279.70649326774134L338.8245388245388,279.9410830426313L339.16773916773917,280.17313164810633L339.5109395109395,280.4026560854206L339.8541398541398,280.62967339473516L340.19734019734017,280.85420065497846L340.5405405405406,281.07625498356634L340.88374088374087,281.29585353598134L341.2269412269413,281.513013505211L341.5701415701416,281.727752121044L341.9133419133419,281.9400866492252L342.2565422565423,282.15003439047115L342.59974259974257,282.3576126793466L342.942942942943,282.56283888300413L343.2861432861433,282.7657303997899L343.6293436293436,282.9663046577174L343.972543972544,283.16457911281304L344.3157443157443,283.3605712473369L344.6589446589447,283.5542985678822L345.00214500214497,283.7457786033584L345.3453453453453,283.93502890286226L345.6885456885457,284.12206703344094L346.031746031746,284.3069105777537L346.37494637494643,284.489577131636L346.7181467181467,284.6700843015728L347.0613470613471,284.848449702086L347.40454740454743,285.02469095304247L347.7477477477477,285.1988256768882L348.09094809094813,285.37087149581544L348.4341484341484,285.5408460288687L348.7773487773488,285.7087668889959L349.12054912054913,285.8746516800517L349.4637494637494,286.03851799375866L349.80694980694983,286.2003834066337L350.1501501501501,286.36026547688573L350.4933504933505,286.51818174129085L350.8365508365508,286.6741497120525L351.1797511797512,286.8281868736515L351.52295152295153,286.98031067969396L351.8661518661518,287.1305385497623L352.2093522093522,287.27888786627545L352.5525525525526,287.4253759713651L352.8957528957529,287.570020163773L353.2389532389533,287.712837695776L353.5821535821536,287.8538457701436L353.92535392535393,287.9930615371341L354.2685542685543,288.1305020915341L354.6117546117546,288.26618446974726L354.954954954955,288.4001256469362L355.2981552981553,288.5323425342233L355.64135564135563,288.6628519759538L355.984555984556,288.7916707470269L356.32775632775633,288.91881555029715L356.6709566709567,289.0443030140517L357.014157014157,289.1681496895662L357.35735735735733,289.29037204874214L357.7005577005577,289.4109864818306L358.04375804375803,289.5300092952429L358.38695838695844,289.64745670945314L358.73015873015873,289.7633448569933L359.0733590733591,289.87768978054424L359.41655941655944,289.99050743112383L359.75975975975973,290.10181366637437L360.10296010296014,290.21162424895016L360.44616044616043,290.31995484500754L360.7893607893608,290.42682102279696L361.13256113256114,290.5322382513591L361.4757614757615,290.6362218993245L361.81896181896184,290.73878723381796L362.16216216216213,290.8399494194669L362.5053625053625,290.93972351751427L362.84856284856284,291.03812448503453L363.1917631917632,291.13516717425364L363.53496353496354,291.2308663319706L363.87816387816383,291.32523659908117L364.2213642213642,291.4182925102003L364.5645645645646,291.5100484933846L364.9077649077649,291.60051886995103L365.2509652509653,291.6897178543906L365.5941655941656,291.7776595543758L365.93736593736594,291.86435797085846L366.2805662805663,291.94982699825675L366.6237666237666,292.0340804247277L366.966966966967,292.11713193252365L367.3101673101673,292.1989950984292L367.6533676533677,292.2796833942754L367.996567996568,292.35921018752936L368.33976833976834,292.4375887419537L368.6829686829687,292.5148322183355L369.026169026169,292.5909536752785L369.3693693693694,292.66596607005664L369.7125697125697,292.7398822595243L370.05577005577004,292.8127150010804L370.39897039897045,292.8844769536815L370.74217074217074,292.9551806788999L371.0853710853711,293.0248386420244L371.42857142857144,293.09346321319686" stroke="#4c78a8" stroke-width="2"></path></g><g class="mark-line role-mark layer_1_marks" role="graphics-symbol" aria-roledescription="line mark container"><path d="M23.415296790410675,297.474682442202L23.768819719759193,297.4259877390179L24.122342649107736,297.3764544922818L24.475865578456254,297.326070393548L24.829388507804776,297.27482299638626L25.182911437153315,297.2226997156561L25.536434366501837,297.1696878267932L25.88995729585036,297.1157744651094L26.2434802251989,297.0609466251064L26.597003154547416,297.0051911598035L26.950526083895937,296.94849478007995L27.30404901324448,296.8908440540322L27.657571942593002,296.8322254063467L28.011094871941516,296.7726251176882L28.36461780129006,296.71202932410483L28.71814073063858,296.65042401644934L29.071663659987095,296.587795039818L29.425186589335645,296.5241280930068L29.77870951868416,296.4594087279862L30.13223244803268,296.3936223493935L30.485755377381224,296.32675421404537L30.83927830672974,296.2587894304689L31.19280123607829,296.189712958453L31.546324165426803,296.1195096086207L31.899847094775325,296.04816404202097L32.25337002412384,295.97566076974357L32.60689295347238,295.9019841525545L32.960415882820904,295.8271184005545L33.31393881216945,295.75104757285993L33.66746174151797,295.67375557730753L34.02098467086648,295.5952261701822L34.374507600215026,295.5154429559699L34.72803052956355,295.43438938713496L35.08155345891207,295.35204876392265L35.43507638826061,295.26840423418787L35.788599317609126,295.18343879324976L36.14212224695765,295.0971352837736L36.49564517630619,295.00947639567966L36.84916810565471,294.92044466608024L37.20269103500323,294.83002247924486L37.55621396435177,294.73819206659425L37.90973689370029,294.6449355067242L38.263259823048806,294.55023472545895L38.616782752397356,294.45407149593484L38.97030568174587,294.35642743871557L39.32382861109439,294.25728402193823L39.677351540442935,294.1566225614921L40.03087446979145,294.054424221229L40.38439739913997,293.9506700132077L40.737920328488514,293.8453407979712L41.091443257837035,293.73841728485843L41.44496618718555,293.62988003235057L41.79848911653409,293.51970944845215L42.152012045882614,293.40788579110836L42.505534975231136,293.2943891686582L42.85905790457968,293.1791995403244L43.21258083392819,293.06229671674066L43.566103763276715,292.9436603605162L43.91962669262526,292.82326998683953L44.27314962197378,292.7011049641198L44.626672551322294,292.5771445146684L44.98019548067084,292.4513677154199L45.33371841001936,292.3237534986934L45.68724133936787,292.1942806529946L46.04076426871642,292.0629278238595L46.39428719806494,291.9296735147397L46.74781012741346,291.79449608793L47.101333056762,291.6573737655388L47.454855986110516,291.51828463050236L47.808378915459066,291.37720662764184L48.16190184480758,291.23411756476594L48.5154247741561,291.08899511381696L48.86894770350462,290.94181681206334L49.22247063285316,290.7925600633371L49.57599356220168,290.641202139318L49.929516491550224,290.48772018086396L50.283039420898746,290.33209119938914L50.63656235024726,290.17429207828906L50.990085279595775,290.0142995744141L51.343608208944325,289.8520903195916L51.69713113829284,289.6876408221963L52.05065406764139,289.52092746877094L52.404176996989904,289.3519265256962L52.75769992633842,289.1806141409105L53.11122285568695,289.00696634568163L53.46474578503548,288.83095905642784L53.81826871438401,288.6525680765915L54.17179164373255,288.4717690985641L54.52531457308106,288.2885377056638L54.87883750242959,288.10284937416515L55.232360431778105,287.9146794753817L55.585883361126655,287.72400327780275L55.93940629047517,287.5307959492826L56.292929219823705,287.3350325592849L56.646452149172234,287.13668808118024L56.99997507852075,286.9357373945994L57.35349800786926,286.73215528784107L57.70702093721781,286.5259164603346L58.06054386656633,286.3169955251592L58.41406679591488,286.1053670116179L58.76758972526339,285.8910053678682L59.121112654611906,285.6738849636097L59.474635583960456,285.4539800928266L59.82815851330897,285.23126497658944L60.181681442657485,285.0057137659117L60.535204372006035,284.7773005446654L60.88872730135455,284.5459993325531L61.24225023070308,284.3117840881382L61.595773160051614,284.0746287119331L61.94929608940013,283.83450704954515L62.30281901874868,283.59139289488104L62.65634194809719,283.34525999340934L63.00986487744572,283.0960820454817L63.363387806794236,282.84383270971233L63.71691073614277,282.58848560641684L64.0704336654913,282.3300143211088L64.42395659483984,282.0683924080562L64.77747952418837,281.8035933938958L65.13100245353688,281.5355907813073L65.4845253828854,281.2643580527457L65.83804831223394,280.98986867423326L66.19157124158247,280.71209609920976L66.54509417093101,280.43101377244216L66.89861710027952,280.146595133993L67.25214002962804,279.8588136232474L67.60566295897655,279.56764268299906L67.9591858883251,279.2730557635949L68.31270881767362,278.9750263271381L68.66623174702217,278.6735278517495L69.01975467637068,278.3685338358875L69.3732776057192,278.0600178027259L69.72680053506772,277.7479533045899L70.08032346441627,277.4323139274493L70.43384639376478,277.11307329547L70.78736932311332,276.7902050756218L71.14089225246184,276.4636829823445L71.49441518181037,276.1334807822692L71.84793811115888,275.7995722989977L72.20146104050743,275.4619314179367L72.55498396985594,275.1205320911886L72.90850689920448,274.77534834249747L73.26202982855301,274.4263542722505L73.61555275790153,274.0735240625332L73.96907568725004,273.7168319822404L74.32259861659858,273.3562523922397L74.67612154594711,272.9917597505892L75.02964447529565,272.62332861780794L75.38316740464417,272.2509336621987L75.73669033399268,271.8745496652228L76.09021326334123,271.4941515269263L76.44373619268976,271.1097142714176L76.79725912203827,270.721213052394L77.15078205138681,270.32862315871944L77.50430498073533,269.9319200200505L77.85782791008386,269.53107921251063L78.2113508394324,269.12607646441273L78.56487376878091,268.7168876620287L78.91839669812943,268.3034888554049L79.27191962747797,267.8858562642237L79.6254425568265,267.46396628370974L79.97896548617501,267.0377954905804L80.33248841552356,266.60732064903954L80.68601134487207,266.17251871681367L81.03953427422061,265.7333668512301L81.39305720356914,265.2898424153354L81.74658013291766,264.84192298405424L82.10010306226617,264.38958635038705L82.45362599161471,263.93281053164577L82.80714892096324,263.47157377572694L83.16067185031179,263.00585456742056L83.5141947796603,262.5356316347546L83.86771770900882,262.0608839553733L84.22124063835733,261.58159076294885L84.57476356770587,261.0977315536249L84.9282864970544,260.6092860924914L85.28180942640294,260.1162344200889L85.63533235575146,259.61855685894216L85.98885528509997,259.1162340201203L86.34237821444852,258.6092468098248L86.69590114379704,258.0975764360017L87.04942407314556,257.58120441497823L87.40294700249409,257.060112578122L87.75646993184262,256.5342830785222L88.10999286119115,256.0036983976904L88.46351579053967,255.46834135228073L88.8170387198882,254.9281951008277L89.17056164923672,254.3832431505001L89.52408457858525,253.83346936387005L89.87760750793379,253.2788579656953L90.2311304372823,252.71939354971403L90.58465336663083,252.1550610854502L90.93817629597936,251.58584592502814L91.29169922532789,251.01173380999495L91.64522215467642,250.43271087814932L91.99874508402495,249.8487636703752L92.35226801337348,249.25987913747875L92.705790942722,248.6660446470268L93.05931387207053,248.06724799018596L93.41283680141906,247.4634773885602L93.76635973076758,246.85472150102515L94.1198826601161,246.2409694305584L94.47340558946465,245.62221073106312L94.82692851881316,244.99843541418394L95.18045144816169,244.36963395611363L95.53397437751022,243.73579730438792L95.88749730685873,243.09691688466816L96.24102023620728,242.45298460750885L96.5945431655558,241.8039928751091L96.94806609490432,241.14993458804577L97.30158902425285,240.49080315198694L97.65511195360138,239.82659248438387L98.00863488294989,239.15729702113921L98.36215781229843,238.48291172325023L98.71568074164696,237.803432083425L99.06920367099549,237.11885413266987L99.42272660034402,236.4291744468456L99.77624952969254,235.734390153192L100.12977245904106,235.0344989368172L100.4832953883896,234.3294990471511L100.83681831773812,233.61938930436065L101.19034124708665,232.90416910572492L101.54386417643518,232.183838431968L101.89738710578371,231.4583978535487L102.25091003513225,230.72784853690342L102.60443296448076,229.99219225064246L102.95795589382928,229.25143137169528L103.31147882317782,228.50556889140532L103.66500175252634,227.75460842157065L104.01852468187487,226.9985542004289L104.37204761122341,226.23741109858517L104.72557054057192,225.4711846248801L105.07909346992047,224.6998809321963L105.43261639926898,223.92350682320188L105.7861393286175,223.1420697560281L106.13966225796602,222.35557784987958L106.49318518731457,221.5640398905752L106.84670811666308,220.76746533601798L107.20023104601162,219.96586432159043L107.55375397536014,219.15924766547604L107.90727690470867,218.3476268739019L108.26079983405718,217.53101414630316L108.61432276340572,216.70942238040496L108.96784569275424,215.8828651772222L109.32136862210278,215.05135684597275L109.67489155145131,214.21491240890435L110.02841448079982,213.37354760603156L110.38193741014834,212.52727889978155L110.73546033949688,211.6761234795467L111.08898326884542,210.820099266142L111.44250619819394,209.959224916165L111.79602912754247,209.09351982625708L112.14955205689098,208.22300413726308L112.50307498623953,207.3476987382883L112.85659791558804,206.46762527065042L113.21012084493658,205.58280613172445L113.5636437742851,204.69326447867934L113.91716670363363,203.79902423210305L114.27068963298217,202.90011007951603L114.62421256233068,201.99654747876986L114.9777354916792,201.0883626613291L115.33125842102774,200.17558263543634L115.68478135037626,199.25823518915558L116.0383042797248,198.3363488932953L116.39182720907333,197.40995310420726L116.74535013842184,196.47907796646012L117.09887306777038,195.5437544153857L117.4523959971189,194.60401417949674L117.80591892646741,193.65988978277412L118.15944185581596,192.7114145468211L118.51296478516448,191.7586225928847L118.86648771451303,190.80154884374016L119.22001064386154,189.8402290254394L119.57353357321006,188.87469966891933L119.9270565025586,187.90499811147077L120.28057943190711,186.9311624980644L120.63410236125567,185.95323178253352L120.98762529060419,184.97124572861156L121.3411482199527,183.98524491082318L121.69467114930121,182.99527071522635L122.04819407864976,182.00136534000612L122.40171700799827,181.0035717959165L122.75523993734683,180.00193390656983L123.10876286669534,178.99649630857334L123.46228579604386,177.98730445150957L123.81580872539237,176.97440459776095L124.16933165474092,175.95784382217678L124.52285458408944,174.937670011581L124.87637751343799,173.91393186411992L125.2299004427865,172.88667888844904L125.58342337213502,171.85596140275703L125.93694630148353,170.82183053362624L126.29046923083209,169.78433821472888L126.6439921601806,168.74353718535735L126.99751508952914,167.69948098878805L127.35103801887766,166.65222397047754L127.70456094822617,165.60182127609033L128.0580838775747,164.5483288493571L128.41160680692326,163.49180342976268L128.76512973627177,162.43230255006335L129.11865266562032,161.3698845336318L129.47217559496883,160.30460849162992L129.82569852431735,159.23653432000813L130.17922145366586,158.16572269633124L130.5327443830144,157.0922350764291L130.88626731236295,156.01613369087295L131.23979024171146,154.9374815412759L131.59331317105998,153.85634239641723L131.94683610040852,152.77278078819054L132.30035902975703,151.68686200737474L132.65388195910558,150.598652099228L133.00740488845412,149.50821785890426L133.36092781780263,148.4156268266919L133.71445074715115,147.32094728307428L134.06797367649966,146.22424824361258L134.42149660584818,145.12559945365012L134.77501953519672,144.02507138283818L135.12854246454526,142.9227352194842L135.4820653938938,141.81866286472078L135.83558832324232,140.7129269264973L136.18911125259083,139.60560071339287L136.54263418193938,138.49675822825168L136.8961571112879,137.38647416164068L137.24968004063643,136.27482388512925L137.60320296998495,135.16188344439277L137.95672589933346,134.04772955213895L138.310248828682,132.93243958085728L138.66377175803052,131.8160915553938L139.01729468737904,130.6987641453501L139.37081761672758,129.58053665730665L139.72434054607612,128.4614890268736L140.07786347542464,127.34170181056733L140.43138640477315,126.22125617751396L140.7849093341217,125.10023390098156L141.13843226347024,123.97871734974116L141.49195519281875,122.85678947925693L141.84547812216726,121.73453382270824L142.1990010515158,120.61203448184203L142.55252398086432,119.48937611765878L142.90604691021286,118.36664394093243L143.25956983956138,117.2439237025645L143.61309276890992,116.12130168377467L143.96661569825844,114.99886468612961L144.32013862760695,113.8767000214086L144.67366155695552,112.75489550131097L145.02718448630404,111.63353942700438L145.38070741565255,110.51272057851503L145.7342303450011,109.39252820396376L146.0877532743496,108.27305200864707L146.44127620369812,107.15438214396569L146.79479913304667,106.03660919620233L147.14832206239518,104.91982417515119L147.5018449917437,103.80411850259831L147.85536792109224,102.68958400065767L148.20889085044075,101.57631287996351L148.5624137797893,100.46439772771961L148.91593670913784,99.35393149560998L149.26945963848635,98.2450074875712L149.62298256783487,97.1377193474283L149.9765054971834,96.03216104639748L150.33002842653192,94.9284268704574L150.68355135588044,93.82661140759005L151.03707428522898,92.72680953489511L151.3905972145775,91.62911640557961L151.744120143926,90.53362743582383L152.09764307327458,89.44043829152818L152.4511660026231,88.34964487494163L152.8046889319716,87.26134331117461L153.15821186132015,86.17562993459921L153.51173479066867,85.09260127513954L153.86525772001718,84.0123540444533L154.21878064936573,82.93498512200888L154.57230357871424,81.86059154106054L154.92582650806276,80.7892704745224L155.2793494374113,79.72111922074676L155.6328723667598,78.65623518920785L155.98639529610836,77.59471588609388L156.3399182254569,76.53665889981094L156.6934411548054,75.48216188640161L157.04696408415393,74.43132255488024L157.40048701350247,73.3842386524889L157.754009942851,72.34100794987732L158.10753287219953,71.30172822620808L158.46105580154807,70.26649725419222L158.81457873089659,69.23541278505748L159.1681016602451,68.20857253345142L159.52162458959364,67.18607416228461L159.87514751894216,66.16801526751578L160.2286704482907,65.15449336288133L160.58219337763921,64.14560586457537L160.93571630698773,63.141450075880044L161.2892392363363,62.14212317175223L161.64276216568481,61.14772218336875L161.99628509503333,60.15834398263317L162.34980802438187,59.17408526664871L162.7033309537304,58.19504254215985L163.0568538830789,57.22131210996591L163.41037681242744,56.252990049311016L163.76389974177596,55.29017220225326L164.11742267112447,54.33295415801626L164.47094560047302,53.38143123732747L164.82446852982153,52.435698476746865L165.17799145917007,51.4958506129878L165.53151438851862,50.561982067236364L165.88503731786713,49.63418692947066L166.23856024721564,48.7125589427841L166.5920831765642,47.79719148771746L166.9456061059127,46.888177566601705L167.29912903526122,45.985609787916324L167.65265196460976,45.08958035066638L168.00617489395827,44.20018102878226L168.3596978233068,43.31750315554523L168.71322075265536,42.44163760804316L169.06674368200387,41.572674791659615L169.4202666113524,40.71070462460008L169.77378954070093,39.85581652245912L170.12731247004945,39.00809938283252L170.48083539939796,38.16764156997669L170.8343583287465,37.334530899521056L171.18788125809502,36.508854623235806L171.54140418744356,35.690699413858226L171.89492711679208,34.8801513499832L172.2484500461406,34.077295901019575L172.60197297548913,33.282217912217085L172.95549590483768,32.495001589767206L173.3090188341862,31.715730485982043L173.6625417635347,30.944487484553672L174.01606469288325,30.181354785899337L174.3695876222318,29.42641389259476L174.7231105515803,28.67974559489922L175.07663348092882,27.94142995637703L175.43015641027736,27.21154629961815L175.78367933962588,26.49017319206117L176.13720226897442,25.7773884319231L176.49072519832293,25.073269034239544L176.84424812767145,24.377891217016977L177.19777105702,23.691330387503452L177.5512939863685,23.013661128578565L177.90481691571708,22.344957185267646L178.2583398450656,21.68529145138327L178.6118627744141,21.034735956297045L178.96538570376265,20.393361851845327L179.31890863311116,19.761239399372855L179.67243156245968,19.13843795691591L180.02595449180822,18.525025966530183L180.37947742115674,17.92107094176543L180.73300035050525,17.326639455290184L181.0865232798538,16.7417971266703L181.4400462092023,16.166608610303847L181.79356913855085,15.6011375835159L182.1470920678994,15.045446734815748L182.5006149972479,14.499597752320403L182.85413792659642,13.96365131234637L183.20766085594497,13.437667068173564L183.56118378529348,12.921703638983894L183.914706714642,12.415818598976802L184.26822964399054,11.92006846666579L184.62175257333905,11.434508694358003L184.97527550268757,10.959193657819233L185.32879843203614,10.49417664612793L185.68232136138465,10.039509851720396L186.03584429073317,9.595244360629607L186.3893672200817,9.161430142920345L186.74289014943022,8.738116043324007L187.09641307877874,8.325349772073354L187.44993600812728,7.923177895942224L187.8034589374758,7.5316458294910955L188.1569818668243,7.150797826520394L188.51050479617285,6.7806769717354225L188.86402772552137,6.421325172623426L189.2175506548699,6.072783151546091L189.57107358421845,5.735090438048685L189.92459651356697,5.408285361389109L190.27811944291548,5.092405043286963L190.63164237226403,4.787485390896595L190.98516530161257,4.493561090004516L191.33868823096108,4.210665598453788L191.69221116030963,3.938831139796539L192.04573408965814,3.6780886971767512L192.39925701900665,3.4284680074449736L192.7527799483552,3.189997555506008L193.1063028777037,2.9627045689017417L193.45982580705223,2.746615012629827L193.81334873640077,2.5417535842005345L194.16687166574928,2.348143708932049L194.5203945950978,2.1658075354862416L194.87391752444637,1.994765931645881L195.22744045379488,1.8350384803341835L195.58096338314343,1.686643475878069L195.93448631249194,1.5495979205161214L196.28800924184046,1.4239175211517519L196.641532171189,1.309616686352899L196.9950551005375,1.2067085235993313L197.34857802988603,1.1152048367771505L197.70210095923457,1.0351161239222972L198.05562388858309,0.9664515752133229L198.40914681793163,0.9092190712137294L198.76266974728017,0.8634251813646743L199.11619267662869,0.8290751627280102L199.4697156059772,0.8061729589805888L199.82323853532574,0.7947211996596315L200.17676146467426,0.7947211996596315L200.53028439402277,0.8061729589805888L200.88380732337131,0.8290751627280102L201.23733025271986,0.8634251813646743L201.59085318206834,0.9092190712137294L201.9443761114169,0.9664515752133229L202.29789904076543,1.0351161239222972L202.65142197011392,1.1152048367771505L203.00494489946252,1.2067085235993313L203.358467828811,1.309616686352899L203.71199075815954,1.4239175211516852L204.06551368750806,1.5495979205161214L204.41903661685657,1.686643475878069L204.77255954620512,1.8350384803341502L205.12608247555363,1.994765931645881L205.47960540490217,2.1658075354862416L205.83312833425066,2.348143708932049L206.1866512635992,2.5417535842005345L206.54017419294775,2.746615012629827L206.8936971222963,2.9627045689017417L207.24722005164483,3.189997555506008L207.60074298099332,3.428468007444907L207.95426591034186,3.6780886971767512L208.30778883969037,3.938831139796539L208.66131176903892,4.210665598453788L209.01483469838743,4.493561090004516L209.36835762773595,4.787485390896595L209.7218805570845,5.092405043286929L210.07540348643298,5.408285361389076L210.42892641578158,5.735090438048685L210.78244934513006,6.072783151546057L211.1359722744786,6.421325172623393L211.48949520382715,6.7806769717354225L211.84301813317563,7.1507978265203604L212.19654106252418,7.531645829491063L212.55006399187272,7.923177895942224L212.90358692122123,8.325349772073288L213.25710985056975,8.738116043323974L213.61063277991826,9.161430142920345L213.9641557092668,9.59524436062954L214.31767863861535,10.039509851720396L214.6712015679639,10.49417664612793L215.02472449731238,10.959193657819167L215.37824742666092,11.434508694358003L215.73177035600946,11.92006846666579L216.085293285358,12.415818598976735L216.43881621470652,12.921703638983894L216.79233914405503,13.437667068173564L217.14586207340355,13.963651312346336L217.4993850027521,14.499597752320403L217.85290793210063,15.045446734815748L218.20643086144912,15.601137583515868L218.55995379079766,16.166608610303847L218.9134767201462,16.7417971266703L219.2669996494947,17.32663945529015L219.6205225788433,17.92107094176543L219.97404550819178,18.525025966530183L220.32756843754032,19.138437956915844L220.68109136688884,19.761239399372855L221.03461429623735,20.393361851845327L221.38813722558587,21.034735956297013L221.7416601549344,21.68529145138327L222.09518308428295,22.344957185267646L222.44870601363144,23.013661128578534L222.80222894297998,23.691330387503452L223.15575187232852,24.377891217016977L223.50927480167707,25.073269034239477L223.8627977310256,25.7773884319231L224.2163206603741,26.490173192061107L224.56984358972264,27.211546299618117L224.92336651907118,27.94142995637703L225.2768894484197,28.67974559489912L225.6304123777682,29.42641389259466L225.98393530711672,30.181354785899337L226.33745823646527,30.944487484553605L226.69098116581375,31.715730485981975L227.04450409516235,32.495001589767206L227.39802702451084,33.28221791221705L227.75154995385938,34.077295901019546L228.10507288320792,34.8801513499832L228.4585958125564,35.69069941385816L228.8121187419049,36.50885462323574L229.1656416712535,37.334530899521056L229.519164600602,38.16764156997665L229.87268752995053,39.008099382832484L230.2262104592991,39.85581652245912L230.57973338864764,40.710704624599984L230.93325631799613,41.572674791659544L231.28677924734467,42.44163760804316L231.64030217669315,43.317503155545204L231.9938251060417,44.20018102878226L232.34734803539018,45.08958035066638L232.70087096473873,45.985609787916296L233.0543938940873,46.888177566601705L233.4079168234358,47.79719148771746L233.76143975278433,48.712558942784035L234.11496268213293,49.63418692947066L234.4684856114814,50.561982067236364L234.82200854082996,51.4958506129877L235.17553147017844,52.435698476746865L235.52905439952698,53.38143123732747L235.88257732887547,54.33295415801616L236.236100258224,55.29017220225326L236.58962318757256,56.252990049311016L236.94314611692104,57.22131210996584L237.2966690462696,58.19504254215985L237.65019197561813,59.17408526664871L238.00371490496667,60.1583439826331L238.35723783431524,61.14772218336875L238.71076076366373,62.14212317175223L239.06428369301227,63.141450075880016L239.41780662236076,64.14560586457537L239.7713295517093,65.15449336288133L240.12485248105784,66.16801526751568L240.47837541040633,67.18607416228461L240.83189833975487,68.20857253345129L241.18542126910336,69.23541278505738L241.53894419845193,70.26649725419222L241.89246712780047,71.30172822620801L242.245990057149,72.34100794987722L242.59951298649756,73.3842386524889L242.95303591584604,74.43132255488014L243.3065588451946,75.48216188640151L243.66008177454313,76.53665889981094L244.01360470389162,77.59471588609375L244.36712763324016,78.65623518920778L244.72065056258865,79.72111922074676L245.0741734919372,80.78927047452234L245.42769642128567,81.86059154106047L245.78121935063427,82.93498512200888L246.1347422799828,84.01235404445318L246.4882652093313,85.09260127513947L246.84178813867987,86.17562993459921L247.19531106802842,87.26134331117454L247.5488339973769,88.3496448749416L247.90235692672545,89.44043829152818L248.25587985607393,90.53362743582377L248.60940278542247,91.62911640557951L248.96292571477096,92.72680953489511L249.3164486441195,93.82661140758992L249.66997157346808,94.9284268704574L250.0234945028166,96.03216104639748L250.3770174321651,97.13771934742816L250.7305403615137,98.2450074875712L251.0840632908622,99.35393149560998L251.43758622021073,100.46439772771951L251.79110914955922,101.57631287996351L252.14463207890776,102.68958400065767L252.49815500825625,103.80411850259826L252.8516779376048,104.91982417515112L253.20520086695333,106.03660919620224L253.55872379630188,107.15438214396569L253.9122467256504,108.27305200864707L254.2657696549989,109.39252820396376L254.61929258434742,110.51272057851499L254.97281551369596,111.63353942700425L255.32633844304448,112.7548955013109L255.67986137239305,113.8767000214086L256.03338430174153,114.99886468612961L256.38690723109005,116.12130168377467L256.7404301604386,117.24392370256437L257.09395308978714,118.36664394093233L257.44747601913565,119.48937611765868L257.80099894848416,120.61203448184203L258.15452187783274,121.73453382270824L258.50804480718125,122.85678947925693L258.86156773652976,123.97871734974103L259.2150906658783,125.1002339009815L259.56861359522685,126.22125617751396L259.92213652457536,127.34170181056733L260.2756594539239,128.4614890268736L260.6291823832724,129.58053665730657L260.9827053126209,130.69876414534997L261.3362282419694,131.81609155539377L261.689751171318,132.93243958085728L262.04327410066657,134.04772955213895L262.396797030015,135.16188344439277L262.7503199593636,136.27482388512917L263.10384288871205,137.3864741616406L263.4573658180606,138.49675822825165L263.8108887474092,139.6056007133929L264.1644116767577,140.7129269264973L264.5179346061062,141.81866286472072L264.87145753545474,142.9227352194841L265.22498046480325,144.0250713828381L265.57850339415177,145.12559945364995L265.93202632350034,146.2242482436126L266.28554925284885,147.32094728307428L266.63907218219737,148.41562682669186L266.9925951115459,149.50821785890423L267.3461180408944,150.59865209922793L267.6996409702429,151.6868620073746L268.0531638995915,152.77278078819054L268.40668682894,153.85634239641723L268.7602097582885,154.93748154127582L269.113732687637,156.0161336908729L269.46725561698554,157.09223507642898L269.8207785463341,158.1657226963311L270.1743014756826,159.2365343200082L270.5278244050312,160.30460849162992L270.88134733437965,161.36988453363173L271.2348702637282,162.4323025500633L271.58839319307674,163.49180342976263L271.94191612242525,164.54832884935695L272.2954390517738,165.60182127609036L272.64896198112234,166.65222397047754L273.00248491047086,167.69948098878797L273.35600783981937,168.7435371853573L273.7095307691679,169.7843382147288L274.0630536985164,170.82183053362613L274.41657662786497,171.85596140275703L274.7700995572135,172.88667888844904L275.12362248656206,173.91393186411986L275.4771454159105,174.9376700115809L275.8306683452591,175.95784382217673L276.18419127460754,176.97440459776084L276.53771420395617,177.98730445150957L276.8912371333047,178.99649630857334L277.2447600626532,180.00193390656983L277.5982829920017,181.00357179591646L277.9518059213502,182.00136534000606L278.3053288506988,182.9952707152264L278.6588517800473,183.98524491082318L279.01237470939583,184.97124572861156L279.36589763874434,185.9532317825335L279.71942056809286,186.93116249806434L280.0729434974414,187.90499811147072L280.42646642678994,188.87469966891942L280.77998935613846,189.8402290254394L281.133512285487,190.80154884374016L281.4870352148355,191.75862259288462L281.840558144184,192.71141454682103L282.1940810735325,193.659889782774L282.5476040028811,194.60401417949674L282.90112693222966,195.5437544153857L283.2546498615781,196.4790779664601L283.6081727909267,197.40995310420726L283.96169572027515,198.33634889329522L284.3152186496237,199.25823518915544L284.6687415789723,200.17558263543637L285.0222645083208,201.0883626613291L285.3757874376693,201.99654747876983L285.72931036701783,202.900110079516L286.08283329636635,203.799024232103L286.43635622571486,204.69326447867923L286.78987915506343,205.58280613172448L287.14340208441195,206.46762527065042L287.49692501376046,207.3476987382883L287.850447943109,208.22300413726305L288.20397087245755,209.09351982625705L288.557493801806,209.95922491616494L288.9110167311546,210.820099266142L289.2645396605031,211.6761234795467L289.61806258985166,212.52727889978152L289.9715855192002,213.37354760603156L290.3251084485487,214.21491240890433L290.6786313778972,215.05135684597266L291.0321543072457,215.8828651772222L291.3856772365943,216.70942238040496L291.7392001659428,217.53101414630314L292.0927230952913,218.3476268739019L292.44624602463983,219.15924766547596L292.79976895398835,219.96586432159035L293.1532918833369,220.76746533601798L293.50681481268543,221.5640398905752L293.86033774203395,222.35557784987952L294.21386067138246,223.14206975602804L294.567383600731,223.92350682320182L294.9209065300795,224.6998809321962L295.2744294594281,225.4711846248801L295.6279523887766,226.23741109858517L295.98147531812515,226.99855420042888L296.3349982474736,227.75460842157062L296.6885211768222,228.50556889140526L297.04204410617075,229.2514313716953L297.39556703551926,229.99219225064246L297.7490899648678,230.72784853690342L298.1026128942163,231.45839785354866L298.4561358235648,232.18383843196796L298.8096587529133,232.90416910572483L299.1631816822619,233.61938930436068L299.5167046116104,234.3294990471511L299.8702275409589,235.0344989368172L300.22375047030744,235.73439015319195L300.57727339965595,236.42917444684556L300.93079632900447,237.11885413266978L301.28431925835304,237.80343208342504L301.63784218770155,238.48291172325023L301.99136511705007,239.15729702113916L302.3448880463986,239.82659248438384L302.69841097574715,240.49080315198688L303.05193390509567,241.14993458804565L303.4054568344442,241.8039928751091L303.75897976379275,242.45298460750885L304.1125026931412,243.09691688466813L304.4660256224898,243.7357973043879L304.8195485518383,244.3696339561136L305.1730714811868,244.9984354141839L305.5265944105354,245.62221073106315L305.8801173398839,246.2409694305584L306.2336402692324,246.85472150102515L306.5871631985809,247.46347738856016L306.94068612792944,248.06724799018593L307.29420905727795,248.6660446470267L307.6477319866265,249.25987913747875L308.00125491597504,249.8487636703752L308.3547778453236,250.4327108781493L308.70830077467207,251.0117338099949L309.06182370402064,251.58584592502808L309.4153466333691,252.15506108545017L309.76886956271767,252.71939354971403L310.12239249206624,253.2788579656953L310.47591542141475,253.83346936387002L310.82943835076327,254.3832431505001L311.1829612801118,254.92819510082765L311.5364842094603,255.46834135228067L311.89000713880887,256.0036983976904L312.2435300681574,256.5342830785222L312.5970529975059,257.060112578122L312.9505759268544,257.5812044149782L313.3040988562029,258.09757643600165L313.6576217855515,258.6092468098248L314.0111447149,259.1162340201203L314.3646676442485,259.61855685894216L314.71819057359704,260.1162344200889L315.07171350294556,260.60928609249135L315.42523643229407,261.09773155362484L315.77875936164264,261.58159076294885L316.1322822909912,262.0608839553733L316.48580522033967,262.5356316347546L316.83932814968824,263.00585456742056L317.1928510790367,263.47157377572694L317.54637400838527,263.9328105316457L317.89989693773384,264.38958635038705L318.25341986708236,264.84192298405424L318.60694279643087,265.2898424153354L318.9604657257794,265.7333668512301L319.3139886551279,266.17251871681367L319.6675115844764,266.6073206490395L320.021034513825,267.0377954905804L320.3745574431735,267.46396628370974L320.728080372522,267.8858562642237L321.08160330187053,268.3034888554049L321.4351262312191,268.7168876620287L321.78864916056756,269.1260764644127L322.14217208991613,269.53107921251063L322.49569501926464,269.9319200200505L322.84921794861316,270.32862315871944L323.20274087796173,270.721213052394L323.55626380731024,271.10971427141754L323.90978673665876,271.4941515269263L324.2633096660073,271.8745496652228L324.61683259535585,272.2509336621987L324.97035552470436,272.62332861780794L325.3238784540529,272.9917597505892L325.6774013834014,273.3562523922397L326.0309243127499,273.71683198224036L326.3844472420985,274.0735240625332L326.737970171447,274.4263542722505L327.0914931007955,274.77534834249747L327.445016030144,275.1205320911886L327.79853895949253,275.4619314179367L328.15206188884105,275.7995722989977L328.5055848181897,276.1334807822692L328.85910774753813,276.4636829823445L329.2126306768867,276.7902050756218L329.56615360623516,277.11307329547L329.91967653558373,277.4323139274493L330.2731994649322,277.7479533045898L330.6267223942808,278.0600178027259L330.98024532362933,278.3685338358875L331.33376825297785,278.6735278517495L331.68729118232636,278.9750263271381L332.0408141116749,279.2730557635949L332.39433704102345,279.56764268299906L332.74785997037196,279.8588136232474L333.1013828997205,280.146595133993L333.454905829069,280.43101377244216L333.8084287584175,280.7120960992097L334.161951687766,280.9898686742332L334.5154746171146,281.2643580527457L334.8689975464631,281.5355907813073L335.2225204758116,281.8035933938958L335.57604340516014,282.0683924080562L335.92956633450865,282.3300143211088L336.2830892638572,282.58848560641684L336.63661219320574,282.84383270971233L336.9901351225543,283.0960820454817L337.34365805190276,283.34525999340934L337.69718098125134,283.59139289488104L338.05070391059985,283.83450704954515L338.40422683994836,284.0746287119331L338.75774976929694,284.3117840881382L339.11127269864545,284.5459993325531L339.46479562799396,284.7773005446654L339.8183185573425,285.0057137659117L340.171841486691,285.2312649765894L340.5253644160395,285.4539800928266L340.8788873453881,285.6738849636097L341.2324102747366,285.8910053678682L341.58593320408517,286.1053670116179L341.9394561334336,286.3169955251592L342.2929790627822,286.5259164603346L342.64650199213065,286.732155287841L343.0000249214793,286.9357373945994L343.3535478508278,287.13668808118024L343.7070707801763,287.3350325592849L344.0605937095248,287.5307959492826L344.41411663887334,287.7240032778027L344.76763956822185,287.91467947538166L345.1211624975704,288.10284937416515L345.47468542691894,288.2885377056638L345.82820835626745,288.4717690985641L346.18173128561597,288.6525680765915L346.5352542149645,288.83095905642784L346.888777144313,289.00696634568163L347.24230007366157,289.1806141409105L347.5958230030101,289.3519265256962L347.9493459323586,289.52092746877094L348.3028688617071,289.6876408221963L348.6563917910556,289.8520903195916L349.00991472040414,290.0142995744141L349.36343764975277,290.17429207828906L349.7169605791012,290.33209119938914L350.0704835084498,290.48772018086396L350.42400643779825,290.641202139318L350.7775293671468,290.7925600633371L351.1310522964954,290.94181681206334L351.4845752258439,291.08899511381696L351.8380981551924,291.23411756476594L352.19162108454094,291.37720662764184L352.54514401388946,291.5182846305023L352.89866694323797,291.6573737655388L353.25218987258654,291.79449608793L353.60571280193506,291.9296735147397L353.95923573128357,292.0629278238595L354.3127586606321,292.1942806529946L354.66628158998066,292.32375349869335L355.0198045193291,292.4513677154199L355.3733274486777,292.5771445146684L355.7268503780262,292.7011049641198L356.08037330737477,292.82326998683953L356.4338962367233,292.9436603605162L356.7874191660718,293.06229671674066L357.1409420954203,293.1791995403244L357.49446502476883,293.2943891686582L357.8479879541174,293.40788579110836L358.2015108834659,293.51970944845215L358.55503381281443,293.62988003235057L358.90855674216294,293.73841728485843L359.26207967151146,293.8453407979712L359.61560260086003,293.9506700132077L359.96912553020854,294.054424221229L360.32264845955706,294.1566225614921L360.6761713889056,294.25728402193823L361.0296943182541,294.35642743871557L361.3832172476026,294.45407149593484L361.73674017695123,294.55023472545895L362.0902631062997,294.6449355067242L362.44378603564826,294.73819206659425L362.7973089649967,294.83002247924486L363.1508318943453,294.92044466608024L363.50435482369375,295.00947639567966L363.8578777530424,295.0971352837736L364.2114006823909,295.18343879324976L364.5649236117394,295.26840423418787L364.9184465410879,295.35204876392265L365.27196947043643,295.43438938713496L365.62549239978495,295.5154429559699L365.9790153291335,295.5952261701822L366.33253825848203,295.67375557730753L366.68606118783055,295.75104757285993L367.03958411717906,295.8271184005545L367.3931070465276,295.9019841525545L367.74662997587615,295.97566076974357L368.10015290522466,296.04816404202097L368.4536758345732,296.1195096086207L368.8071987639217,296.189712958453L369.16072169327026,296.2587894304689L369.5142446226188,296.32675421404537L369.8677675519673,296.3936223493935L370.22129048131586,296.4594087279862L370.5748134106643,296.5241280930068L370.9283363400129,296.587795039818L371.2818592693614,296.65042401644934L371.6353821987099,296.71202932410483L371.9889051280585,296.7726251176882L372.342428057407,296.8322254063467L372.6959509867555,296.8908440540322L373.04947391610403,296.9484947800799L373.40299684545255,297.0051911598035L373.75651977480106,297.06094662510634L374.11004270414963,297.1157744651094L374.46356563349815,297.1696878267932L374.8170885628467,297.2226997156561L375.1706114921952,297.27482299638626L375.52413442154375,297.326070393548L375.8776573508922,297.3764544922818L376.2311802802408,297.4259877390179L376.58470320958935,297.474682442202" stroke="lightgrey" stroke-width="2"></path></g></g><path class="foreground" aria-hidden="true" d="" display="none"></path></g></g></g></svg>