<svg class="marks" width="412" height="310" viewBox="0 0 412 310" version="1.1" xmlns="http://www.w3.org/2000/svg" xmlns:xlink="http://www.w3.org/1999/xlink"><rect width="412" height="310" fill="white"></rect><g fill="none" stroke-miterlimit="10" transform="translate(7,5)"><g class="mark-group role-frame root" role="graphics-object" aria-roledescription="group mark container"><g transform="translate(0,0)"><path class="background" aria-hidden="true" d="M0.5,0.5h400v300h-400Z"></path><g><g class="mark-line role-mark marks" role="graphics-symbol" aria-roledescription="line mark container"><path d="M0.8040268682801154,3.0000000000000027L1.1720044338564588,4.362979647030829L1.5399819994328023,5.719704366390877L1.9079595650091457,7.070202862925646L2.275937130585489,8.414503709749543L2.6439146961618327,9.752635348850536L3.0118922617381765,11.084626091691796L3.3798698273145202,12.410504119810728L3.7478473928908635,13.730297485415289L4.115824958467207,15.04403411197741L4.48380252404355,16.351741794823837L4.8517800896198935,17.653448201724174L5.219757655196237,18.9491808734763L5.587735220772581,20.23896722448906L5.955712786348925,21.52283454336229L6.323690351925268,22.80080999346409L6.691667917501612,24.072920613505623L7.059645483077956,25.339193318113217L7.427623048654299,26.599654898397674L7.795600614230643,27.8543320225212L8.163578179806985,29.10325123626164L8.53155574538333,30.346438963574084L8.899533310959672,31.58392150714996L9.267510876536015,32.815725048973476L9.63548844211236,34.04187565087563L10.003466007688703,35.262399255085555L10.371443573265045,36.477321684779476L10.73942113884139,37.68666864462692L11.107398704417733,38.89046572133478L11.475376269994076,40.08873838418836L11.843353835570419,41.28151198559058L12.211331401146763,42.46881176159808L12.579308966723108,43.650662832455346L12.947286532299449,44.827090203126076L13.315264097875795,45.99811876382226L13.683241663452137,47.16377329053086L14.051219229028481,48.324078445537864L14.419196794604822,49.47905877795018L14.787174360181169,50.62873872421504L15.15515192575751,51.77314260863691L15.523129491333854,52.9122946438923L15.891107056910197,54.04621893154188L16.25908462248654,55.17493946254047L16.627062188062887,56.298480117744674L16.995039753639226,57.41686466841804L17.363017319215572,58.53011677673413L17.730994884791915,59.63825999627696L18.098972450368258,60.74131777253956L18.4669500159446,61.83931344341983L18.834927581520947,62.932270239714484L19.202905147097287,64.02021128561034L19.570882712673633,65.10315959917382L19.938860278249976,66.18113809283771L20.30683784382632,67.25416957388607L20.674815409402665,68.32227674493689L21.04279297497901,69.38548220442205L21.41077054055535,70.44380844706582L21.778748106131694,71.49727786436063L22.14672567170804,72.54591274504082L22.51470323728438,73.58973527555422L22.882680802860726,74.6287675405316L23.250658368437072,75.66303152325385L23.618635934013415,76.69254910611717L23.986613499589758,77.71734207109593L24.3545910651661,78.73743210020372L24.72256863074244,79.75284077595188L25.090546196318787,80.7635895818062L25.45852376189513,81.76969990264152L25.826501327471473,82.77119302519418L26.19447889304782,83.76809013851218L26.562456458624162,84.76041233440378L26.930434024200505,85.74818060788365L27.29841158977685,86.7314158576169L27.666389155353187,87.7101388863615L28.034366720929533,88.68437040140826L28.402344286505883,89.65413101501902L28.770321852082226,90.61944124486259L29.138299417658565,91.58032151444911L29.50627698323491,92.53679215356195L29.87425454881125,93.48887339868796L30.242232114387598,94.43658539344548L30.61020967996394,95.37994818901079L30.978187245540283,96.31898174454203L31.34616481111663,97.2537059276016L31.714142376692973,98.18414051457671L32.082119942269316,99.11030519109747L32.450097507845655,100.03221955245361L32.818075073422,100.94990310400894L33.18605263899834,101.86337526161414L33.554030204574694,102.77265535201754L33.92200777015103,103.67776261327388L34.28998533572737,104.57871619515154L34.65796290130372,105.47553515953756L35.025940466880066,106.36823848084097L35.393918032456405,107.25684504639428L35.761895598032744,108.14137365685312L36.12987316360909,109.02184302659388L36.49785072918544,109.89827178410972L36.86582829476178,110.77067847240485L37.23380586033812,111.63908154938653L37.60178342591446,112.50349938825596L37.96976099149081,113.36395027789673L38.337738557067155,114.22045242326193L38.705716122643494,115.07302394575918L39.07369368821984,115.92168288363423L39.44167125379619,116.76644719235239L39.809648819372526,117.60733474497856L40.177626384948866,118.44436333255531L40.54560395052521,119.27755066447938L40.91358151610156,120.10691436887629L41.281559081677905,120.93247199297326L41.64953664725425,121.75424100347055L42.017514212830584,122.57223878691104L42.38549177840693,123.38648265004804L42.75346934398328,124.19698982021139L43.121446909559616,125.00377744567201L43.48942447513596,125.80686259600476L43.8574020407123,126.6062622624495L44.22537960628865,127.40199335827064L44.59335717186499,128.19407271911498L44.961334737441334,128.98251710336785L45.32931230301768,129.76734319250778L45.69728986859403,130.5485675914593L46.06526743417037,131.32620682894435L46.43324499974671,132.100277357832L46.80122256532305,132.87079555548655L47.1692001308994,133.6377777241139L47.53717769647574,134.40124009110664L47.905155262052084,135.16119880938737L48.27313282762843,135.9176699577502L48.64111039320477,136.6706695412013L49.00908795878111,137.42021349129732L49.377065524357455,138.16631766648243L49.7450430899338,138.90899785242397L50.11302065551014,139.64826976234636L50.48099822108648,140.3841490373635L50.848975786662834,141.11665124680994L51.21695335223918,141.84579188856986L51.58493091781552,142.57158638940538L51.952908483391866,143.2940501052828L52.320886048968205,144.0131983216974L52.688863614544545,144.7290462539969L53.0568411801209,145.44160904770354L53.42481874569723,146.15090177883422L53.792796311273584,146.85693945421974L54.16077387684992,147.5597370118221L54.52875144242626,148.25930932105078L54.89672900800261,148.95567118307707L55.26470657357895,149.6488373311474L55.632684139155295,150.33882243089514L56.00066170473165,151.02564108065056L56.36863927030799,151.70930781175002L56.736616835884334,152.38983708884328L57.10459440146067,153.06724331019953L57.47257196703701,153.7415408080121L57.84054953261336,154.41274384870155L58.2085270981897,155.08086663321762L58.57650466376605,155.74592329733977L58.944482229342384,156.40792791197597L59.31245979491872,157.0668944834607L59.68043736049508,157.7228369538511L60.048414926071416,158.37576920122208L60.41639249164776,159.02570503995992L60.7843700572241,159.67265822105435L61.15234762280045,160.31664243238987L61.5203251883768,160.95767129903493L61.88830275395314,161.5957583835305L62.25628031952948,162.23091718617692L62.62425788510583,162.86316114531948L62.992235450682166,163.49250363763286L63.36021301625851,164.11895797840404L63.72819058183485,164.74253742181406L64.09616814741119,165.36325516121846L64.46414571298754,165.98112432942634L64.83212327856388,166.59615799897836L65.20010084414022,167.20836918242316L65.56807840971656,167.81777083259283L65.9360559752929,168.42437584287677L66.30403354086927,169.02819704749479L66.67201110644561,169.62924722176814L67.03998867202195,170.22753908239045L67.40796623759829,170.82308528769616L67.77594380317463,171.41589843792886L68.14392136875098,172.00599107550747L68.51189893432732,172.59337568529187L68.87987649990366,173.1780646948469L69.24785406548001,173.76007047470546L69.61583163105635,174.33940533862997L69.98380919663269,174.91608154387322L70.35178676220903,175.4901112914374L70.71976432778537,176.06150672633248L71.08774189336172,176.63027993783308L71.45571945893808,177.19644295973416L71.82369702451442,177.7600077706058L72.19167459009076,178.32098629404643L72.5596521556671,178.87939039893533L72.92762972124345,179.43523189968352L73.29560728681979,179.98852255648396L73.66358485239613,180.5392740755601L74.03156241797248,181.08749810941373L74.3995399835488,181.63320625707163L74.76751754912516,182.17641006433055L75.1354951147015,182.71712102400198L75.50347268027784,183.25535057615508L75.87145024585419,183.79111010835862L76.23942781143053,184.3244109559221L76.60740537700687,184.8552644021355L76.97538294258322,185.38368167850803L77.34336050815956,185.90967396500565L77.71133807373592,186.43325239028783L78.07931563931226,186.9544280319428L78.4472932048886,187.473211916722L78.81527077046493,187.98961502077339L79.18324833604127,188.50364826987362L79.55122590161763,189.0153225396593L79.91920346719397,189.52464865585702L80.2871810327703,190.03163739451244L80.65515859834666,190.53629948221808L81.023136163923,191.03864559634073L81.39111372949934,191.53868636524678L81.75909129507568,192.03643236852756L82.12706886065202,192.531894137223L82.49504642622837,193.02508215404427L82.86302399180471,193.51600685359585L83.23100155738106,194.00467862259626L83.59897912295739,194.49110780009758L83.96695668853373,194.97530467770443L84.33493425411008,195.45727949979164L84.70291181968642,195.93704246372099L85.07088938526277,196.41460372005696L85.43886695083911,196.88997337278147L85.80684451641545,197.36316147950777L86.17482208199179,197.83417805169302L86.54279964756813,198.30303305485032L86.91077721314448,198.76973640875943L87.27875477872082,199.23429798767665L87.64673234429716,199.69672762054392L88.01470990987352,200.1570350911964L88.38268747544986,200.61523013856984L88.7506650410262,201.07132245690644L89.11864260660253,201.52532169596003L89.48662017217887,201.97723746120016L89.85459773775524,202.4270793140154L90.22257530333158,202.87485677191555L90.59055286890792,203.3205793087332L90.95853043448427,203.76425635482383L91.32650800006061,204.20589729726575L91.69448556563695,204.6455114800584L92.0624631312133,205.08310820432004L92.43044069678965,205.51869672848483L92.79841826236598,205.95228626849834L93.16639582794232,206.3838859980129L93.53437339351866,206.81350504858133L93.90235095909502,207.24115250985045L94.27032852467136,207.66683742975317L94.63830609024771,208.0905688147001L95.00628365582403,208.51235562976993L95.37426122140037,208.9322067988993L95.74223878697673,209.3501312050714L96.11021635255307,209.76613769050405L96.47819391812942,210.1802350568368L96.84617148370576,210.592432065317L97.2141490492821,211.00273743698537L97.58212661485844,211.41115985286027L97.95010418043478,211.81770795412163L98.31808174601113,212.22239034229352L98.68605931158747,212.62521557942645L99.05403687716381,213.02619218827812L99.42201444274016,213.4253286524941L99.7899920083165,213.82263341678714L100.15796957389284,214.21811488711586L100.52594713946921,214.6117814308627L100.89392470504555,215.0036413770107L101.26190227062189,215.39370301631996L101.62987983619823,215.78197460150315L101.99785740177458,216.1684643473997L102.36583496735092,216.55318043114997L102.73381253292726,216.93613099236813L103.1017900985036,217.31732413331443L103.46976766407994,217.6967679190664L103.83774522965629,218.07447037768986L104.20572279523263,218.45043950040846L104.57370036080897,218.82468324177293L104.94167792638531,219.19720951982933L105.30965549196165,219.56802621628646L105.67763305753802,219.93714117668281L106.04561062311436,220.30456221055246L106.41358818869068,220.67029709159027L106.78156575426702,221.03435355781642L107.14954331984336,221.39673931174008L107.51752088541973,221.75746202052244L107.88549845099607,222.1165293161388L108.2534760165724,222.47394879554022L108.62145358214875,222.82972802081414L108.98943114772509,223.1838745193443L109.35740871330144,223.53639578397022L109.72538627887778,223.88729927314557L110.09336384445412,224.2365924110959L110.46134141003046,224.58428258797596L110.82931897560681,224.93037716002584L111.19729654118315,225.27488344972673L111.56527410675952,225.61780874595578L111.93325167233586,225.95916030414037L112.3012292379122,226.29894534641153L112.66920680348854,226.6371710617568L113.03718436906487,226.97384460617238L113.40516193464123,227.30897310281446L113.77313950021757,227.6425636421499L114.1411170657939,227.97462328210642L114.50909463137025,228.30515904822164L114.87707219694659,228.63417793379193L115.24504976252294,228.96168690002042L115.61302732809928,229.28769287616416L115.98100489367562,229.61220275968054L116.34898245925196,229.9352234163738L116.7169600248283,230.2567616805396L117.08493759040466,230.57682435511012L117.452915155981,230.8954182117978L117.82089272155733,231.2125499912385L118.18887028713367,231.52822640313445L118.55684785271,231.8424541263958L118.92482541828637,232.1552398092823L119.29280298386271,232.4665900695437L119.66078054943905,232.77651149455988L120.02875811501539,233.08501064148018L120.39673568059173,233.39209403736214L120.76471324616809,233.6977681793097L121.13269081174442,234.00203953461042L121.50066837732079,234.30491454087263L121.86864594289713,234.60639960616135L122.23662350847346,234.90650110913393L122.6046010740498,235.20522539917528L122.97257863962616,235.50257879653176L123.3405562052025,235.79856759244524L123.70853377077884,236.09319804928603L124.07651133635518,236.38647640068555L124.44448890193152,236.67840885166797L124.81246646750787,236.9690015787817L125.18044403308421,237.25826073023003L125.54842159866055,237.5461924260011L125.91639916423689,237.83280275799754L126.28437672981323,238.11809779016525L126.65235429538959,238.40208355862165L127.02033186096592,238.68476607178363L127.38830942654226,238.96615131049435L127.7562869921186,239.24624522815012L128.12426455769494,239.52505375082598L128.4922421232713,239.80258277740143L128.86021968884765,240.07883817968502L129.22819725442397,240.35382580253864L129.59617482000033,240.62755146400124L129.96415238557665,240.90002095541186L130.332129951153,241.17124004153214L130.70010751672936,241.44121446066836L131.06808508230569,241.70994992479277L131.43606264788204,241.97745211966455L131.8040402134584,242.24372670494998L132.17201777903475,242.50877931434223L132.5399953446111,242.77261555568066L132.90797291018742,243.03524101106925L133.27595047576378,243.29666123699494L133.6439280413401,243.556881764445L134.01190560691646,243.8159080990242L134.3798831724928,244.0737457210711L134.74786073806914,244.3304000857743L135.1158383036455,244.58587662328756L135.48381586922181,244.84018073884488L135.85179343479817,245.0933178128747L136.21977100037452,245.3452932011139L136.58774856595087,245.59611223472103L136.9557261315272,245.8457802203891L137.32370369710353,246.09430244045794L137.69168126267988,246.34168415302582L138.05965882825623,246.58793059206076L138.42763639383259,246.83304696751128L138.7956139594089,247.0770384654168L139.16359152498526,247.3199102480169L139.5315690905616,247.56166745386105L139.89954665613794,247.802315197917L140.2675242217143,248.0418585716792L140.63550178729062,248.28030264327634L141.00347935286698,248.51765245757872L141.3714569184433,248.75391303630494L141.73943448401965,248.9890893781281L142.10741204959604,249.22318645878173L142.47538961517236,249.45620923116476L142.84336718074871,249.6881626254466L143.21134474632504,249.91905154917131L143.5793223119014,250.1488808873615L143.94729987747775,250.37765550262154L144.31527744305407,250.60538023524066L144.68325500863043,250.8320599032952L145.05123257420675,251.05769930275054L145.4192101397831,251.2823032075627L145.78718770535946,251.50587636977926L146.15516527093578,251.7284235196398L146.52314283651214,251.94994936567622L146.89112040208846,252.17045859481223L147.25909796766481,252.38995587246237L147.62707553324117,252.60844584263097L147.99505309881752,252.82593312801026L148.36303066439385,253.04242233007824L148.73100822997017,253.257918029196L149.09898579554653,253.4724247847046L149.46696336112288,253.68594713502154L149.83494092669923,253.89848959773695L150.20291849227556,254.1100566697089L150.5708960578519,254.3206528271587L150.93887362342824,254.53028252576556L151.3068511890046,254.7389502007609L151.67482875458094,254.94666026702222L152.04280632015727,255.15341711916636L152.41078388573362,255.3592251316427L152.77876145130998,255.56408865882537L153.1467390168863,255.76801203510578L153.51471658246268,255.9709995749841L153.882694148039,256.1730555731606L154.25067171361536,256.37418430462634L154.6186492791917,256.574390024754L154.98662684476804,256.7736769693875L155.3546044103444,256.972049354932L155.72258197592072,257.1695113784427L156.09055954149707,257.3660672177139L156.4585371070734,257.5617210313676L156.82651467264975,257.7564769589409L157.1944922382261,257.950339120974L157.56246980380243,258.14331161909746L157.93044736937878,258.3353985361186L158.2984249349551,258.52660393610824L158.66640250053146,258.71693186448647L159.03438006610781,258.9063863481083L159.40235763168417,259.094971395349L159.7703351972605,259.2826909961886L160.13831276283685,259.4695491222965L160.50629032841317,259.65554972711567L160.87426789398953,259.84069674594593L161.24224545956588,260.02499409602746L161.61022302514223,260.2084456766236L161.9782005907186,260.39105536910336L162.3461781562949,260.5728270370235L162.71415572187126,260.7537645262104L163.08213328744762,260.93387166484115L163.45011085302397,261.1131522635251L163.81808841860027,261.29161011538366L164.18606598417665,261.4692489961314L164.55404354975295,261.6460726641552L164.92202111532933,261.8220848605945L165.28999868090565,261.99728930941967L165.657976246482,262.17168971751147L166.02595381205833,262.34528977473906L166.3939313776347,262.5180931540383L166.76190894321104,262.69010351148927L167.1298865087874,262.8613244863939L167.49786407436372,263.0317597013526L167.86584163994007,263.20141276234114L168.2338192055164,263.370287258787L168.60179677109275,263.5383867636451L168.9697743366691,263.7057148334736L169.33775190224546,263.87227500850895L169.7057294678218,264.03807081274107L170.07370703339814,264.20310575398753L170.4416845989745,264.3673833239681L170.80966216455082,264.5309069983785L171.1776397301272,264.6936802369638L171.5456172957035,264.8557064835921L171.91359486127988,265.01698916632654L172.28157242685617,265.1775316974988L172.64954999243253,265.33733747378056L173.01752755800888,265.49640987625577L173.38550512358523,265.654752270492L173.75348268916156,265.8123680066117L174.1214602547379,265.9692604193631L174.48943782031427,266.1254328281907L174.85741538589062,266.28088853730577L175.22539295146692,266.43563083575566L175.5933705170433,266.589662997494L175.9613480826196,266.7429882814497L176.32932564819598,266.895609931596L176.6973032137723,267.0475311770189L177.06528077934865,267.19875523198573L177.43325834492498,267.34928529601297L177.80123591050133,267.499124553934L178.1692134760777,267.64827617596654L178.53719104165404,267.7967433177798L178.9051686072304,267.9445291205608L179.27314617280672,268.09163671108155L179.64112373838307,268.23806920176463L180.0091013039594,268.38382969074905L180.37707886953575,268.5289212619564L180.7450564351121,268.67334698515526L181.11303400068846,268.8171099160267L181.48101156626478,268.9602130962289L181.84898913184114,269.1026595534613L182.21696669741746,269.24445230152867L182.58494426299384,269.38559434040513L182.95292182857014,269.5260886562973L183.32089939414652,269.6659382217077L183.68887695972282,269.8051459954975L184.05685452529917,269.9437149229494L184.42483209087553,270.08164793582944L184.79280965645188,270.2189479524496L185.1607872220282,270.35561787772895L185.52876478760456,270.49166060325575L185.8967423531809,270.62707900734813L186.26471991875727,270.7618759551152L186.63269748433356,270.89605429851775L187.00067504990994,271.02961687642824L187.36865261548624,271.1625665146912L187.73663018106262,271.29490602618307L188.10460774663895,271.4266382108713L188.4725853122153,271.55776585587415L188.84056287779163,271.68829173551904L189.20854044336798,271.81821861140173L189.57651800894436,271.9475492324446L189.9444955745207,272.0762863349547L190.31247314009704,272.2044326426819L190.68045070567337,272.3319908668762L191.04842827124972,272.4589637063453L191.41640583682604,272.58535384751156L191.7843834024024,272.7111639644691L192.15236096797875,272.8363967190401L192.5203385335551,272.96105476083125L192.88831609913143,273.08514072728974L193.25629366470778,273.2086572437591L193.6242712302841,273.3316069235348L193.9922487958605,273.45399236791945L194.3602263614368,273.5758161662779L194.72820392701317,273.6970808960919L195.09618149258947,273.81778912301485L195.46415905816582,273.937943400926L195.83213662374217,274.0575462719843L196.20011418931853,274.1766002666823L196.56809175489485,274.2951079039L196.9360693204712,274.4130716909576L197.30404688604756,274.5304941236689L197.6720244516239,274.64737768639407L198.0400020172002,274.763724852092L198.4079795827766,274.8795380823731L198.7759571483529,274.99481982755066L199.14393471392927,275.1095725266934L199.5119122795056,275.2237986076766L199.87988984508195,275.33750048723374L200.2478674106583,275.4506805710075L200.61584497623465,275.5633412536007L200.983822541811,275.6754849186269L201.35180010738733,275.7871139387609L201.7197776729637,275.898230675789L202.08775523854,276.0088374806588L202.45573280411637,276.1189366935291L202.8237103696927,276.2285306438193L203.19168793526904,276.3376216502586L203.55966550084537,276.4462120209355L203.92764306642172,276.55430405334613L204.29562063199808,276.66190003444297L204.66359819757446,276.76900224068345L205.03157576315076,276.87561293807795L205.39955332872714,276.98173438223773L205.76753089430343,277.08736881842276L206.13550845987982,277.19251848158916L206.5034860254561,277.2971855964364L206.87146359103247,277.4013723774545L207.2394411566088,277.50508102897084L207.60741872218514,277.6083137451968L207.97539628776153,277.71107271027427L208.34337385333788,277.81336009832154L208.7113514189142,277.91517807347975L209.07932898449056,278.0165287899584L209.44730655006686,278.1174143920809L209.81528411564324,278.21783701433003L210.1832616812196,278.31779878139326L210.55123924679592,278.41730180820736L210.91921681237227,278.5163482000034L211.2871943779486,278.6149400523512L211.65517194352495,278.71307945120367L212.0231495091013,278.81076847294094L212.39112707467766,278.90800918441437L212.75910464025398,279.0048036429901L213.12708220583033,279.1011538965929L213.49505977140666,279.197061983749L213.863037336983,279.2925299336298L214.23101490255934,279.38755976609434L214.5989924681357,279.4821534917322L214.96697003371202,279.5763131119062L215.33494759928837,279.6700406187944L215.70292516486472,279.7633379954326L216.0709027304411,279.85620721575606L216.4388802960174,279.9486502446414L216.80685786159378,280.0406690379479L217.17483542717008,280.1322655425595L217.54281299274646,280.22344169642514L217.91079055832276,280.31419942860055L218.2787681238991,280.4045406592885L218.64674568947544,280.4944672998798L219.0147232550518,280.58398125299345L219.38270082062817,280.67308441251714L219.75067838620453,280.7617786636472L220.11865595178085,280.8500658829284L220.4866335173572,280.93794793829386L220.85461108293356,281.0254266891045L221.22258864850988,281.11250398618813L221.59056621408624,281.19918167187905L221.95854377966256,281.2854615800567L222.32652134523892,281.3713455361845L222.69449891081524,281.4568353573486L223.0624764763916,281.5419328522963L223.43045404196795,281.6266398214743L223.7984316075443,281.71095805706653L224.16640917312063,281.7948893430326L224.53438673869698,281.878435455145L224.9023643042733,281.96159816102715L225.27034186984966,282.04437922019036L225.63831943542598,282.1267803840715L226.00629700100234,282.2088033960695L226.37427456657866,282.29044999158293L226.74225213215502,282.3717218980461L227.11022969773137,282.4526208349658L227.47820726330775,282.53314851395794L227.84618482888405,282.6133066387835L228.21416239446043,282.6930969053845L228.58213996003673,282.7725210019202L228.9501175256131,282.85158060880246L229.3180950911894,282.9302773987316L229.68607265676576,283.00861303673156L230.05405022234208,283.0865891801853L230.42202778791844,283.16420747886974L230.79000535349482,283.24146957499073L231.15798291907117,283.31837710321776L231.52596048464753,283.3949316907187L231.89393805022385,283.4711349571937L232.2619156158002,283.5469885149105L232.62989318137653,283.6224939687372L232.99787074695288,283.6976529161774L233.3658483125292,283.7724669474033L233.73382587810556,283.8469376452895L234.1018034436819,283.9210665854467L234.46978100925824,283.9948553362548L234.8377585748346,284.0683054588961L235.20573614041095,284.1414185073885L235.57371370598727,284.2141960286181L235.94169127156363,284.2866395623724L236.30966883713995,284.3587506413722L236.6776464027163,284.43053079130465L237.04562396829263,284.50198153085523L237.41360153386898,284.57310437173993L237.7815790994453,284.6439008187372L238.14955666502166,284.71437236971985L238.51753423059802,284.7845205156867L238.8855117961744,284.85434674079426L239.2534893617507,284.9238525223878L239.62146692732708,284.993039331033L239.98944449290337,285.0619086305468L240.35742205847976,285.1304618780284L240.72539962405605,285.19870052389035L241.0933771896324,285.26662601188883L241.46135475520873,285.3342397791545L241.82933232078508,285.4015432562226L242.19730988636147,285.4685378670638L242.56528745193782,285.5352250291136L242.93326501751417,285.60160615330284L243.3012425830905,285.6676826440873L243.66922014866685,285.7334558994775L244.03719771424318,285.7989273110683L244.40517527981953,285.8640982640684L244.77315284539586,285.9289701373294L245.1411304109722,285.9935443033751L245.50910797654853,286.05782212843076L245.8770855421249,286.12180497245174L246.24506310770124,286.18549418915234L246.6130406732776,286.24889112603444L246.98101823885392,286.311997124416L247.34899580443027,286.37481351945945L247.7169733700066,286.43734164020015L248.08495093558295,286.499582809574L248.45292850115928,286.561538344446L248.82090606673563,286.62320955563763L249.18888363231196,286.684597747955L249.5568611978883,286.7457042202162L249.92483876346466,286.8065302652787L250.29281632904105,286.8670771700671L250.66079389461734,286.9273462155998L251.02877146019372,286.98733867701674L251.39674902577002,287.0470558236057L251.7647265913464,287.1064989188298L252.13270415692276,287.1656692203537L252.50068172249905,287.2245679800706L252.86865928807543,287.28319644412846L253.23663685365173,287.34155585295656L253.6046144192281,287.3996474412916L253.97259198480447,287.4574724382038L254.34056955038082,287.5150320671232L254.70854711595715,287.5723275458651L255.0765246815335,287.62936008665616L255.44450224710982,287.68613089615997L255.81247981268618,287.7426411755025L256.1804573782625,287.79889212029764L256.54843494383886,287.85488492067225L256.9164125094152,287.9106207612917L257.2843900749915,287.9661008213846L257.6523676405679,288.021326274768L258.02034520614427,288.0762982898721L258.3883227717206,288.1310180297649L258.7563003372969,288.1854866521771L259.12427790287325,288.2397053095261L259.4922554684496,288.2936751489409L259.8602330340259,288.3473973122861L260.2282105996023,288.4008729361861L260.5961881651786,288.454103152049L260.964165730755,288.50708908609107L261.3321432963313,288.5598318593597L261.7001208619077,288.61233258775803L262.068098427484,288.66459238206795L262.43607599306034,288.7166123479738L262.8040535586367,288.76839358608584L263.17203112421305,288.81993719196333L263.5400086897894,288.871244256138L263.9079862553657,288.92231586413686L264.2759638209421,288.9731530965053L264.6439413865184,289.02375702882983L265.01191895209473,289.07412873176105L265.3798965176711,289.1242692710361L265.7478740832475,289.1741797075013L266.11585164882376,289.2238610971346L266.48382921440015,289.2733144910679L266.85180677997647,289.3225409356092L267.21978434555285,289.371541472265L267.5877619111291,289.420317137762L267.9557394767055,289.4688689640693L268.3237170422818,289.51719797842014L268.69169460785815,289.5653052033335L269.05967217343454,289.61319165663593L269.4276497390109,289.66085835148317L269.79562730458724,289.7083062963811L270.16360487016357,289.75553649520776L270.5315824357399,289.80254994723396L270.8995600013163,289.84934764714484L271.26753756689254,289.89593058506074L271.6355151324689,289.9422997465582L272.00349269804525,289.9884561126908L272.37147026362163,290.03440066000985L272.73944782919796,290.0801343605852L273.10742539477434,290.12565818202563L273.47540296035066,290.1709730874994L273.843380525927,290.2160800357548L274.21135809150337,290.26097998114017L274.5793356570797,290.30567387362413L274.947313222656,290.3501626588158L275.31529078823235,290.3944472779848L275.6832683538087,290.43852866808106L276.05124591938505,290.4824077617547L276.4192234849614,290.5260854873758L276.78720105053776,290.56956276905396L277.15517861611414,290.6128405266579L277.5231561816904,290.65591967583504L277.8911337472668,290.69880112803054L278.2591113128431,290.7414857905069L278.6270888784195,290.78397456636304L278.99506644399577,290.8262683545535L279.36304400957215,290.8683680499073L279.7310215751485,290.91027454314684L280.0989991407248,290.9519887209071L280.4669767063012,290.9935114657539L280.83495427187756,291.03484365620307L281.2029318374539,291.0759861667386L281.5709094030302,291.1169398678313L281.93888696860654,291.1577056259576L282.3068645341829,291.19828430361713L282.6748420997592,291.2386767593515L283.04281966533557,291.2788838477625L283.41079723091195,291.3189064195298L283.7787747964883,291.3587453214293L284.1467523620646,291.39840139635083L284.514729927641,291.4378754833162L284.8827074932173,291.4771684174966L285.25068505879364,291.5162810302307L285.61866262437,291.5552141490419L285.98664018994634,291.593968597656L286.35461775552267,291.6325451960186L286.722595321099,291.67094476031247L287.0905728866754,291.70916810297473L287.4585504522517,291.7472160327141L287.826528017828,291.7850893545281L288.1945055834044,291.8227888697199L288.5624831489808,291.8603153759153L288.93046071455706,291.89766966707987L289.29843828013344,291.93485253353543L289.66641584570976,291.9718647619768L290.03439341128615,292.0087071354887L290.4023709768624,292.04538043356206L290.7703485424388,292.08188543211065L291.1383261080151,292.1182229034874L291.50630367359145,292.1543936165008L291.87428123916783,292.19039833643114L292.2422588047442,292.2262378250469L292.61023637032054,292.26191284062037L292.97821393589686,292.2974241379442L293.3461915014732,292.33277246834723L293.71416906704957,292.36795857971015L294.0821466326259,292.40298321648174L294.4501241982022,292.43784711969414L294.8181017637786,292.472551026979L295.1860793293549,292.50709567258264L295.55405689493125,292.541481787382L295.92203446050763,292.5757100988999L296.29001202608396,292.6097813313203L296.6579895916603,292.64369620550383L297.02596715723666,292.67745543900304L297.393944722813,292.7110597460775L297.7619222883893,292.7445098377089L298.12989985396564,292.7778064216161L298.497877419542,292.81095020227013L298.86585498511835,292.8439418809092L299.2338325506947,292.87678215555326L299.60181011627105,292.9094717210191L299.96978768184744,292.9420112689347L300.3377652474237,292.97440148775433L300.7057428130001,293.0066430627725L301.0737203785764,293.038736676139L301.4416979441528,293.0706830068732L301.80967550972906,293.10248273087814L302.17765307530544,293.1341365209551L302.54563064088177,293.1656450468178L302.9136082064581,293.1970089751066L303.2815857720345,293.22822896940244L303.64956333761086,293.25930569024104L304.0175409031872,293.29023979512675L304.3855184687635,293.3210319385466L304.7534960343399,293.35168277198403L305.1214735999162,293.38219294393286L305.48945116549254,293.4125630999106L305.85742873106886,293.44279388247264L306.22540629664525,293.4728859312254L306.5933838622216,293.5028398828402L306.9613614277979,293.5326563710664L307.3293389933743,293.5623360267452L307.6973165589506,293.5918794778225L308.06529412452693,293.6212873493628L308.4332716901033,293.65056026356166L308.80124925567964,293.6796988397597L309.16922682125596,293.70870369445504L309.5372043868323,293.7375754413166L309.90518195240867,293.7663146911973L310.273159517985,293.79492205214643L310.6411370835613,293.8233981294231L311.0091146491377,293.8517435255086L311.3770922147141,293.87995884011957L311.74506978029035,293.9080446702203L312.11304734586673,293.9360016100355L312.48102491144306,293.9638302510629L312.84900247701944,293.9915311820859L313.2169800425957,294.0191049891857L313.5849576081721,294.0465522557539L313.9529351737484,294.07387356250496L314.32091273932474,294.1010694874883L314.6888903049011,294.1281406061004L315.0568678704775,294.1550874910974L315.42484543605383,294.18191071260685L315.79282300163015,294.20861083814L316.16080056720654,294.2351884326034L316.52877813278286,294.2616440583116L316.8967556983592,294.2879782749983L317.2647332639355,294.3141916398285L317.6327108295119,294.34028470741043L318.0006883950882,294.366258029807L318.36866596066454,294.39211215654774L318.7366435262409,294.41784763464017L319.10462109181725,294.44346500858165L319.4725986573936,294.4689648203706L319.84057622296996,294.49434760951823L320.2085537885463,294.5196139130598L320.5765313541226,294.5447642655661L320.9445089196989,294.5697991991546L321.31248648527526,294.5947192435009L321.68046405085164,294.6195249258497L322.04844161642797,294.6442167710262L322.4164191820043,294.66879530144706L322.7843967475806,294.69326103713155L323.152374313157,294.7176144957123L323.5203518787333,294.74185619244673L323.88832944430965,294.76598664022737L324.256307009886,294.7900063495932L324.62428457546235,294.8139158287403L324.9922621410387,294.8377155835322L325.36023970661506,294.8614061175115L325.7282172721914,294.8849879319094L326.09619483776777,294.9084615256573L326.4641724033441,294.9318273953967L326.8321499689204,294.95508603549L327.2001275344968,294.97823793803093L327.5681051000731,295.0012835928548L327.93608266564945,295.02422348754914L328.3040602312258,295.0470581074638L328.67203779680216,295.0697879357212L329.0400153623785,295.09241345322675L329.40799292795487,295.1149351386789L329.77597049353113,295.1373534685793L330.1439480591076,295.1596689172427L330.5119256246839,295.18188195680733L330.87990319026017,295.20399305724453L331.2478807558365,295.2260026863691L331.61585832141293,295.2479113098488L331.98383588698925,295.2697193912143L332.3518134525655,295.29142739186926L332.7197910181419,295.3130357710997L333.0877685837183,295.3345449860841L333.4557461492946,295.3559554919026L333.82372371487094,295.3772677415472L334.19170128044726,295.39848218593085L334.55967884602364,295.4195992738973L334.92765641159997,295.44061945223035L335.2956339771763,295.4615431656636L335.6636115427526,295.4823708568896L336.031589108329,295.5031029665694L336.3995666739053,295.52373993334163L336.7675442394817,295.54428219383215L337.13552180505803,295.56473018266286L337.5034993706344,295.5850843324612L337.87147693621074,295.60534507386933L338.23945450178707,295.62551283555297L338.60743206736345,295.6455880442107L338.9754096329398,295.6655711245828L339.3433871985161,295.6854624994606L339.7113647640924,295.7052625896949L340.0793423296688,295.72497181420533L340.44731989524513,295.7445905899889L340.8152974608215,295.76411933212904L341.1832750263978,295.78355845380435L341.5512525919742,295.8029083662971L341.91923015755054,295.82216947900235L342.2872077231268,295.84134219943627L342.65518528870314,295.86042693324475L343.0231628542796,295.8794240842124L343.3911404198559,295.8983340542705L343.75911798543217,295.91715724350604L344.12709555100855,295.9358940501698L344.49507311658493,295.9545448706849L344.86305068216126,295.9731100996554L345.2310282477376,295.9915901298743L345.5990058133139,296.00998535233197L345.9669833788903,296.02829615622466L346.3349609444666,296.04652292896236L346.70293851004294,296.06466605617726L347.0709160756194,296.0827259217318L347.43889364119565,296.1007029077268L347.806871206772,296.11859739450966L348.17484877234835,296.13640976068206L348.5428263379247,296.15414038310854L348.91080390350106,296.1717896369239L349.2787814690774,296.1893578955415L349.6467590346537,296.206845530661L350.0147366002301,296.2242529122763L350.3827141658064,296.24158040868343L350.75069173138274,296.25882838648806L351.11866929695907,296.27599721061347L351.48664686253545,296.2930872443085L351.8546244281118,296.3100988491547L352.22260199368816,296.32703238507446L352.5905795592644,296.34388821033826L352.95855712484087,296.3606666815725L353.3265346904172,296.37736815376707L353.69451225599346,296.3939929802826L354.0624898215698,296.41054151285806L354.4304673871462,296.42701410161845L354.79844495272255,296.44341109508184L355.1664225182988,296.45973284016685L355.5344000838752,296.4759796822002L355.9023776494516,296.4921519649237L356.2703552150279,296.5082500305018L356.63833278060423,296.52427421952854L357.00631034618067,296.5402248710351L357.37428791175694,296.55610232249666L357.74226547733326,296.57190690983975L358.1102430429096,296.5876389674492L358.478220608486,296.6032988281754L358.8461981740623,296.6188868233412L359.2141757396386,296.63440328274896L359.582153305215,296.64984853468746L359.9501308707913,296.6652229059389L360.3181084363677,296.680526721786L360.68608600194403,296.6957603060186L361.05406356752036,296.7109239809405L361.42204113309674,296.7260180673766L361.79001869867307,296.7410428846793L362.1579962642494,296.7559987507356L362.5259738298257,296.77088598197366L362.8939513954021,296.7857048933693L363.2619289609784,296.8004557984531L363.6299065265548,296.8151390093167L363.9978840921311,296.82975483661943L364.3658616577075,296.84430358959514L364.73383922328384,296.85878557605844L365.1018167888601,296.87320110241126L365.46979435443643,296.8875504736495L365.83777192001287,296.9018339933695L366.2057494855892,296.9160519637741L366.57372705116546,296.9302046856794L366.94170461674184,296.9442924585211L367.3096821823182,296.9583155803605L367.67765974789455,296.9722743478913L368.0456373134709,296.9861690564456L368.4136148790473,297" stroke="#4c78a8" stroke-width="2"></path></g></g><path class="foreground" aria-hidden="true" d="" display="none"></path></g></g></g></svg>