<svg class="marks" width="410" height="311" viewBox="0 0 410 311" version="1.1" xmlns="http://www.w3.org/2000/svg" xmlns:xlink="http://www.w3.org/1999/xlink"><rect width="410" height="311" fill="white"></rect><g fill="none" stroke-miterlimit="10" transform="translate(5,5)"><g class="mark-group role-frame root" role="graphics-object" aria-roledescription="group mark container"><g transform="translate(0,0)"><path class="background" aria-hidden="true" d="M0.5,0.5h400v300h-400Z"></path><g><g class="mark-line role-mark marks" role="graphics-symbol" aria-roledescription="line mark container"><path d="M3.5509721116485817,183.02975994908687L3.92017119885367,167.28262904990467L4.289370286058759,152.37930162546596L4.658569373263847,138.39531243930728L5.027768460468936,125.36523748016079L5.396967547674024,113.29493975596708L5.766166634879113,102.17045540775028L6.135365722084202,91.96442817351233L6.504564809289291,82.64075947568364L6.8737638964943795,74.15795981640613L7.242962983699468,66.47155387324834L7.612162070904556,59.53579502569328L7.981361158109644,53.30487525846546L8.350560245314732,47.73376602776488L8.719759332519821,42.77878926602931L9.08895841972491,38.39799129407584L9.458157506929998,34.551373186240376L9.827356594135086,31.201017084423377L10.196555681340175,28.311137647354634L10.565754768545265,25.848080227196956L10.934953855750353,23.780281751646893L11.304152942955442,22.078206126269308L11.673352030160531,20.714262875537383L12.04255111736562,19.662715433160326L12.411750204570708,18.899583769057504L12.780949291775798,18.402544752300486L13.150148378980886,18.150832686244158L13.519347466185975,18.125141732317516L13.888546553391063,18.307531401868506L14.25774564059615,18.681335895796757L14.626944727801238,19.23107777556774L14.996143815006327,19.942386231133224L15.365342902211415,20.801920052098687L15.734541989416503,21.797295293714857L16.103741076621592,22.917017547952312L16.47294016382668,24.15041867375214L16.84213925103177,25.48759780321317L17.21133833823686,26.919366417196645L17.580537425441946,28.437197270948054L17.949736512647036,30.033176945094887L18.318935599852125,31.69996179767064L18.688134687057214,33.430737097046716L19.057333774262304,35.21917912262228L19.42653286146739,37.05942002891819L19.79573194867248,38.94601527866205L20.16493103587757,40.873913461038725L20.534130123082655,42.838428322128166L20.903329210287744,44.83521284540433L21.272528297492833,46.860235230813196L21.64172738469792,48.90975663126641L22.010926471903012,50.980310515271874L22.3801255591081,53.068683533832406L22.74932464631319,55.17189777863073L23.118523733518277,57.28719432688175L23.487722820723366,59.41201797606224L23.856921907928456,61.54400307903893L24.226120995133545,63.68096039692084L24.595320082338635,65.82086489328253L24.964519169543724,67.96184439926685L25.33371825674881,70.10216908450029L25.702917343953896,72.24024167377416L26.07211643115899,74.37458835407482L26.44131551836408,76.50385032082937L26.810514605569164,78.62677591617259L27.179713692774254,80.7422133156843L27.54891277997934,82.84910372339304L27.918111867184432,84.9464750379337L28.287310954389515,87.03343595558923L28.656510041594608,89.10917047856657L29.025709128799694,91.17293279926962L29.394908216004783,93.2240425335537L29.76410730320987,95.26188027799091L30.13330639041496,97.28588346806228L30.50250547762005,99.2955425159258L30.871704564825137,101.29039720801181L31.240903652030227,103.27003334416744L31.610102739235312,105.23407960143317L31.979301826440405,107.18220460678408L32.34850091364549,109.11411420432593L32.71770000085058,111.02954890349778L33.08689908805567,112.9282814958177L33.45609817526076,114.81011482861557L33.825297262465845,116.67487972503129L34.19449634967094,118.52243304033327L34.563695436876024,120.35265584532347L34.932894524081114,122.16545172825704L35.3020936112862,123.96074520731399L35.67129269849129,125.73848024622488L36.040491785696375,127.49861886617347L36.409690872901464,129.24113984758358L36.77888996010656,130.96603751584323L37.14808904731164,132.6733206054338L37.51728813451673,134.36301119731485L37.88648722172182,136.0351437247712L38.25568630892691,137.68976404325727L38.624885396131994,139.32692856008052L38.99408448333709,140.94670342004733L39.36328357054217,142.54916374345893L39.73248265774726,144.13439291308921L40.10168174495235,145.7024819070006L40.47088083215744,147.25352867426813L40.84007991936253,148.78763755087388L41.20927900656762,150.30491871321888L41.57847809377271,151.805487666866L41.94767718097779,153.28946476828608L42.31687626818289,154.75697477752607L42.68607535538797,156.20814643985224L43.05527444259306,157.64311209455116L43.42447352979815,159.06200730918607L43.79367261700324,160.46497053771827L44.16287170420832,161.85214280100652L44.53207079141342,163.22366738828913L44.90126987861851,164.5796895783469L45.27046896582359,165.92035637912593L45.63966805302868,167.24581628467706L46.00886714023377,168.5562190483407L46.37806622743886,169.85171547117537L46.74726531464394,171.13245720468825L47.116464401849036,172.39859656698815L47.48566348905412,173.65028637153355L47.85486257625921,174.88767976770242L48.2240616634643,176.11093009245658L48.59326075066939,177.32019073241904L48.962459837874476,178.51561499572634L49.331658925079566,179.69735599305372L49.700858012284655,180.8655665272526L50.07005709948974,182.02039899106944L50.43925618669483,183.16200527245144L50.808455273899924,184.2905366669719L51.177654361105006,185.40614379693832L51.546853448310095,186.5089765367719L51.91605253551518,187.59918394427166L52.285251622720274,188.67691419740126L52.65445070992536,189.74231453625669L53.023649797130446,190.79553120989468L53.39284888433554,191.8367094277204L53.762047971540625,192.86599331515148L54.131247058745714,193.88352587329172L54.5004461459508,194.8894489423646L54.86964523315589,195.88390316867068L55.23884432036098,196.86702797484784L55.608043407566065,197.83896153322596L55.977242494771154,198.7998407420802L56.34644158197625,199.74980120459864L56.71564066918133,200.68897721039102L57.084839756386415,201.61750171937547L57.45403884359151,202.5355063478898L57.8232379307966,203.44312135688273L58.192437018001684,204.34047564205036L58.56163610520677,205.2276967257881L58.93083519241187,206.1049107508402L59.30003427961695,206.9722424755315L59.66923336682204,207.82981527047696L60.038432454027124,208.67775111666668L60.40763154123222,209.51617060483443L60.77683062843731,210.34519293601898L61.14602971564239,211.16493592323587L61.51522880284749,211.97551599418122L61.88442789005257,212.77704819489267L62.25362697725766,213.56964619429948L62.62282606446274,214.35342228959462L62.99202515166784,215.12848741236928L63.361224238872936,215.89495113545016L63.730423326078025,216.65292168038675L64.09962241328311,217.4025059255361L64.46882150048819,218.1438094146979L64.8380205876933,218.87693636625445L65.20721967489837,219.60198968277294L65.57641876210346,220.31907096102984L65.94561784930856,221.02828050242073L66.31481693651364,221.72971732371948L66.68401602371873,222.42347916815424L67.05321511092382,223.10966251676882L67.4224141981289,223.7883626000405L67.791613285334,224.45967340972717L68.16081237253908,225.1236877109172L68.53001145974417,225.7804970542596L68.89921054694926,226.43019178834984L69.26840963415435,227.07286107225227L69.63760872135943,227.70859288813753L70.00680780856453,228.3374740540181L70.37600689576962,228.95959023656295L70.7452059829747,229.57502596397657L71.11440507017979,230.1838646389262L71.48360415738489,230.78618855150356L71.85280324458996,231.3820788922077L72.22200233179505,231.97161576493681L72.59120141900014,232.55487819997745L72.96040050620523,233.13194416697988L73.32959959341032,233.70289058791062L73.69879868061543,234.26779334997227L74.0679977678205,234.8267273184818L74.4371968550256,235.37976634970016L74.80639594223068,235.92698330360452L75.17559502943577,236.4684500565979L75.54479411664086,237.00423751414854L75.91399320384595,237.5344156233535L76.28319229105102,238.0590533854217L76.65239137825613,238.5782188680706L77.02159046546122,239.09197921783257L77.3907895526663,239.60040067226691L77.75998863987138,240.1035485720727L78.12918772707647,240.60148737310055L78.49838681428156,241.09428065825892L78.86758590148666,241.58199114931273L79.23678498869174,242.06468071857157L79.60598407589683,242.5424104004652L79.97518316310192,243.0152404030046L80.344382250307,243.4832301191264L80.71358133751208,243.9464381379188L81.08278042471719,244.40492225572928L81.45197951192227,244.8587394871502L81.82117859912736,245.3079460758842L82.19037768633245,245.75259750548608L82.55957677353754,246.19274850998258L82.92877586074262,246.6284530843677L83.29797494794772,247.05976449497473L83.6671740351528,247.48673528972373L84.0363731223579,247.90941730824497L84.40557220956298,248.32786169187756L84.77477129676807,248.7421188935445L85.14397038397315,249.1522386875032L85.51316947117826,249.55827017897246L85.88236855838332,249.96026181363595L86.25156764558842,250.35826138702305L86.62076673279351,250.75231605376706L86.9899658199986,251.1424723367417L87.35916490720368,251.52877613607626L87.72836399440878,251.9112727380509L88.09756308161386,252.29000682387186L88.46676216881896,252.66502247832761L88.83596125602404,253.03636319832776L89.20516034322912,253.4040719013244L89.57435943043421,253.7681909336174L89.9435585176393,254.12876207854484L90.31275760484439,254.48582656455895L90.6819566920495,254.8394250731893L91.05115577925457,255.18959774689392L91.42035486645966,255.53638419679936L91.78955395366475,255.87982351033108L92.15875304086984,256.21995425873536L92.52795212807492,256.55681450449316L92.89715121528002,256.8904418086282L93.26635030248511,257.2208732379095L93.6355493896902,257.54814537194983L94.00474847689527,257.8722943102018L94.37394756410036,258.1933556788521L94.74314665130545,258.5113646376147L95.11234573851056,258.8263558864262L95.48154482571563,259.1383636720416L95.85074391292072,259.4474217945349L96.21994300012581,259.7535636137025L96.5891420873309,260.05682205537374L96.95834117453597,260.35722961762707L97.32754026174108,260.65481837691505L97.69673934894615,260.94961999409844L98.06593843615126,261.2416657203904L98.43513752335636,261.5309864032129L98.80433661056144,261.8176124919656L99.17353569776654,262.1015740437088L99.54273478497161,262.3829007287619L99.9119338721767,262.6616218362176L100.2811329593818,262.93776627937433L100.65033204658688,263.2113626010872L101.01953113379196,263.4824389790383L101.38873022099706,263.7510232309287L101.75792930820214,264.0171428195918L102.12712839540723,264.28082485803077L102.49632748261233,264.5420961143792L102.86552656981742,264.80098301678845L103.2347256570225,265.05751165824023L103.6039247442276,265.31170780128775L103.97312383143267,265.56359688272477L104.34232291863776,265.8132040181849L104.71152200584284,266.06055400667117L105.08072109304794,266.30567133501773L105.44992018025303,266.548580182284L105.81911926745813,266.7893044240827L106.18831835466321,267.0278676368427L106.5575174418683,267.26429310200757L106.92671652907337,267.4986038101709L107.29591561627846,267.730822465149L107.66511470348357,267.96097148799265L108.03431379068866,268.18907302093817L108.40351287789373,268.41514893129875L108.77271196509884,268.6392208152975L109.14191105230391,268.86131000184275L109.511110139509,269.0814375562461L109.88030922671408,269.2996242838849L110.24950831391918,269.5158907338096L110.61870740112427,269.7302572022966L110.98790648832937,269.9427437363479L111.35710557553445,270.1533701371377L111.72630466273954,270.36215596340816L112.09550374994461,270.569120534813L112.46470283714972,270.77428293521206L112.83390192435479,270.97766201591514L113.20310101155988,271.1792763988785L113.57230009876498,271.3791444798528L113.94149918597007,271.5772844314838L114.31069827317515,271.77371420636683L114.67989736038024,271.9684515400558L115.04909644758531,272.1615139540271L115.41829553479042,272.3529187585986L115.7874946219955,272.5426830558064L116.15669370920061,272.7308237422372L116.52589279640569,272.91735751181983L116.89509188361077,273.10230085857415L117.26429097081585,273.28567007931946L117.63349005802095,273.4674812763428L118.00268914522603,273.6477503600275L118.37188823243112,273.82649305144236L118.74108731963622,274.00372488489313L119.11028640684131,274.17946121043553L119.47948549404639,274.3537171963514L119.84868458125149,274.5265078315882L120.21788366845657,274.69784792816233L120.58708275566165,274.8677521235273L120.95628184286673,275.03623488290634L121.32548093007183,275.2033105015914L121.69468001727692,275.36899310720776L122.06387910448203,275.5332966619456L122.43307819168712,275.69623496475873L122.80227727889219,275.8578216535308L123.1714763660973,276.0180702072103L123.54067545330236,276.17699394791373L123.90987454050746,276.33460604299836L124.27907362771255,276.4909195071046L124.64827271491765,276.64594720416835L125.01747180212273,276.79970184940436L125.38667088932782,276.95219601126047L125.75586997653289,277.1034421133434L126.125069063738,277.25345243631665L126.49426815094307,277.40223911977074L126.86346723814816,277.5498141640665L127.23266632535326,277.6961894321514L127.60186541255835,277.84137665134983L127.97106449976343,277.9853874151273L128.34026358696852,278.12823318482936L128.7094626741736,278.26992529139545L129.0786617613787,278.41047493704764L129.4478608485838,278.54989319695585L129.81705993578888,278.68819102087826L130.18625902299397,278.82537923477895L130.55545811019905,278.9614685424219L130.92465719740414,279.0964695269423L131.29385628460923,279.23039265239515L131.6630553718143,279.36324826528227L132.0322544590194,279.4950465960572L132.4014535462245,279.6257977606083L132.7706526334296,279.75551176172166L133.13985172063468,279.8841984905222L133.50905080783977,280.01186772789504L133.87824989504483,280.13852914588637L134.24744898224995,280.26419230908465L134.616648069455,280.3888666759822L134.9858471566601,280.5125616003173L135.35504624386522,280.63528633239827L135.7242453310703,280.75705002040735L136.09344441827537,280.87786171168784L136.4626435054805,280.9977303540122L136.83184259268555,281.1166647968326L137.20104167989064,281.23467379251366L137.57024076709573,281.35176599754874L137.93943985430082,281.4679499737584L138.3086389415059,281.58323418947225L138.67783802871102,281.69762702069494L139.04703711591608,281.811136752255L139.41623620312117,281.92377157893833L139.78543529032626,282.03553960660605L140.15463437753135,282.14644885329614L140.52383346473644,282.25650725031045L140.89303255194153,282.36572264328663L141.26223163914662,282.4741027932548L141.6314307263517,282.5816553776802L142.0006298135568,282.6883879914909L142.3698289007619,282.7943081480921L142.73902798796695,282.8994232803656L143.10822707517207,283.0037407416565L143.47742616237716,283.1072678067453L143.84662524958225,283.210011672808L144.21582433678734,283.3119794603618L144.58502342399242,283.41317821419847L144.9542225111975,283.51361490430554L145.3234215984026,283.61329642677373L145.6926206856077,283.712229604693L146.06181977281275,283.81042118903616L146.43101886001787,283.9078778595304L146.80021794722296,284.0046062255171L147.16941703442805,284.10061282679993L147.53861612163314,284.19590413448174L147.90781520883826,284.29048655178985L148.27701429604332,284.38436641489045L148.64621338324838,284.47754999369187L149.0154124704535,284.57004349263724L149.38461155765856,284.66185305148633L149.75381064486368,284.75298474608735L150.12300973206877,284.84344458913745L150.49220881927383,284.93323853093443L150.86140790647892,285.0223724601172L151.23060699368403,285.1108522043971L151.5998060808891,285.1986835312791L151.96900516809418,285.2858721487739L152.33820425529927,285.3724237060999L152.7074033425044,285.45834379437633L153.07660242970945,285.54363794730745L153.44580151691454,285.62831164185684L153.8150006041196,285.7123702989137L154.18419969132472,285.79581928394987L154.5533987785298,285.8786639076684L154.9225978657349,285.96090942664335L155.29179695294,286.0425610439517L155.6609960401451,286.1236239097964L156.03019512735017,286.2041031221214L156.39939421455523,286.28400372721916L156.76859330176035,286.3633307203296L157.13779238896544,286.4420890462313L157.50699147617053,286.52028359982563L157.87619056337562,286.59791922671246L158.24538965058068,286.6750007237589L158.6145887377858,286.75153283966057L158.98378782499088,286.8275202754956L159.35298691219595,286.9029676852714L159.72218599940103,286.9778796764644L160.09138508660615,287.05226081055304L160.46058417381124,287.1261156035434L160.8297832610163,287.1994485264887L161.1989823482214,287.2722640060016L161.5681814354265,287.34456642476033L161.93738052263157,287.4163601220079L162.30657960983666,287.4876493940457L162.67577869704175,287.55843849471955L163.04497778424684,287.628731635901L163.41417687145196,287.6985329879613L163.78337595865702,287.76784668024004L164.15257504586208,287.8366768015078L164.5217741330672,287.90502740042245L164.8909732202723,287.9729024859801L165.26017230747738,288.04030602796036L165.62937139468247,288.1072419573658L165.99857048188758,288.17371416685586L166.36776956909264,288.2397265111753L166.73696865629773,288.3052828075777L167.1061677435028,288.3703868362428L167.4753668307079,288.4350423406892L167.844565917913,288.499253028182L168.2137650051181,288.56302257013493L168.58296409232315,288.6263546025074L168.95216317952827,288.68925272619737L169.32136226673336,288.7517205074282L169.69056135393842,288.8137614781318L170.05976044114354,288.8753791363261L170.42895952834863,288.9365769464884L170.7981586155537,288.99735833992384L171.1673577027588,289.0577267151295L171.5365567899639,289.1176854381539L171.90575587716899,289.17723784295185L172.27495496437405,289.2363872317355L172.64415405157914,289.29513687532034L173.01335313878425,289.35349001346754L173.38255222598931,289.4114498552219L173.75175131319443,289.46901957924547L174.1209504003995,289.5262023341471L174.4901494876046,289.5830012388088L174.8593485748097,289.63941938270636L175.22854766201476,289.6954598262281L175.59774674921985,289.7511256009883L175.96694583642497,289.80641971013716L176.33614492363003,289.8613451286674L176.70534401083512,289.91590480371684L177.0745430980402,289.97010165486716L177.44374218524533,290.0239385744394L177.8129412724504,290.0774184277855L178.18214035965548,290.1305440535769L178.55133944686054,290.18331826408894L178.92053853406566,290.2357438454824L179.28973762127075,290.28782355808147L179.65893670847584,290.3395601366483L180.0281357956809,290.3909562906544L180.39733488288604,290.4420147045488L180.7665339700911,290.49273803802265L181.13573305729616,290.5431289262714L181.50493214450128,290.59318998025304L181.87413123170637,290.6429237869439L182.24333031891146,290.692332909591L182.61252940611655,290.74141988796157L182.9817284933216,290.79018723858957L183.35092758052673,290.8386374550194L183.72012666773182,290.88677300804676L184.08932575493688,290.9345963459562L184.45852484214197,290.98210989475666L184.8277239293471,291.02931605841343L185.19692301655218,291.07621721907805L185.56612210375724,291.12281573731497L185.93532119096233,291.16911395232603L186.30452027816744,291.21511418217193L186.6737193653725,291.2608187239912L187.0429184525776,291.3062298542169L187.41211753978268,291.3513498287904L187.78131662698777,291.3961808833729L188.1505157141929,291.44072523355436L188.51971480139795,291.4849850750601L188.888913888603,291.528962583955L189.25811297580816,291.5726599168453L189.62731206301322,291.61607921107793L189.9965111502183,291.65922258493794L190.3657102374234,291.70209213784324L190.73490932462852,291.744689950537L191.10410841183358,291.78701808527853L191.47330749903867,291.8290785860313L191.84250658624373,291.87087347864883L192.21170567344885,291.91240477105896L192.58090476065394,291.9536744534454L192.95010384785903,291.9946844984276L193.31930293506412,292.0354368612385L193.6885020222692,292.0759334799002L194.0577011094743,292.1161762753974L194.42690019667936,292.1561671518494L194.79609928388447,292.1959079966797L195.16529837108956,292.23540068078364L195.53449745829462,292.2746470586947L195.90369654549974,292.3136489687483L196.27289563270483,292.3524082332438L196.64209471990992,292.39092665860534L197.011293807115,292.4292060355398L197.38049289432007,292.46724813919394L197.7496919815252,292.5050547293094L198.11889106873025,292.54262755037564L198.48809015593537,292.57996833178186L198.85728924314043,292.61707878796653L199.22648833034555,292.6539606185656L199.59568741755064,292.6906155085591L199.9648865047557,292.7270451284161L200.3340855919608,292.76325113423746L200.7032846791659,292.7992351678982L201.07248376637096,292.8349988571869L201.44168285357605,292.87054381594487L201.81088194078112,292.9058716442024L202.18008102798626,292.94098392831495L202.54928011519132,292.9758822410966L202.9184792023964,293.0105681419528L203.2876782896015,293.04504317701134L203.6568773768066,293.0793088792519L204.0260764640117,293.1133667686342L204.39527555121674,293.1472183522248L204.76447463842186,293.18086512432234L205.13367372562695,293.2143085665818L205.50287281283204,293.24755014813667L205.87207190003713,293.2805913257207L206.2412709872422,293.3134335437875L206.61047007444733,293.3460782346294L206.97966916165237,293.3785268184946L207.34886824885749,293.41078070370355L207.71806733606257,293.44284128676344L208.08726642326766,293.4747099524821L208.45646551047275,293.50638807407984L208.82566459767781,293.53787701330106L209.1948636848829,293.5691781205241L209.56406277208802,293.6002927348696L209.9332618592931,293.63122218430834L210.30246094649817,293.66196778576784L210.67166003370326,293.692530845237L211.04085912090835,293.7229126578709L211.41005820811344,293.7531145080933L211.77925729531856,293.78313766969876L212.1484563825236,293.8129834059534L212.51765546972874,293.8426529696947L212.8868545569338,293.87214760343L213.2560536441389,293.9014685394343L213.62525273134398,293.93061699984645L213.99445181854907,293.95959419676535L214.36365090575418,293.9884013323438L214.73284999295922,294.0170395988825L215.10204908016433,294.04551017892214L215.47124816736942,294.0738142453354L215.8404472545745,294.1019529614172L216.2096463417796,294.1299274809744L216.57884542898472,294.15773894841465L216.9480445161898,294.1853884988338L217.31724360339487,294.212877258103L217.68644269059996,294.24020634295454L218.05564177780505,294.2673768610667L218.42484086501014,294.294389911148L218.7940399522152,294.32124658302047L219.1632390394203,294.3479479577018L219.5324381266254,294.37449510748706L219.9016372138305,294.40088909602923L220.2708363010356,294.4271309784189L220.64003538824065,294.4532218012635L221.0092344754458,294.4791626027652L221.37843356265083,294.50495441279844L221.74763264985592,294.53059825298624L222.11683173706103,294.5560951367762L222.48603082426612,294.58144606951527L222.8552299114712,294.6066520485239L223.22442899867627,294.63171406316974L223.59362808588136,294.65663309493993L223.96282717308645,294.6814101175132L224.33202626029157,294.7060460968311L224.70122534749666,294.73054199116814L225.07042443470172,294.754898751202L225.43962352190684,294.7791173200819L225.8088226091119,294.80319863349763L226.178021696317,294.8271436197463L226.54722078352205,294.8509531998001L226.9164198707272,294.8746282873716L227.28561895793226,294.89816978898017L227.65481804513735,294.9215786040164L228.02401713234244,294.94485562480634L228.39321621954753,294.96800173667503L228.76241530675264,294.9910178180096L229.13161439395768,295.0139047403213L229.50081348116277,295.03666336830753L229.87001256836788,295.05929455991236L230.23921165557297,295.0817991663873L230.60841074277806,295.1041780323511L230.97760982998312,295.12643199584863L231.34680891718827,295.14856188840986L231.7160080043933,295.1705685351076L232.08520709159842,295.1924527546151L232.4544061788035,295.2142153592628L232.8236052660086,295.2358571550946L233.1928043532137,295.2573789419237L233.56200344041875,295.2787815133876L233.93120252762384,295.30006565700285L234.30040161482896,295.321232154219L234.66960070203405,295.34228178047215L235.0387997892391,295.36321530523816L235.4079988764442,295.38403349208465L235.7771979636493,295.4047370987235L236.14639705085438,295.4253268770619L236.5155961380595,295.4458035732532L236.88479522526453,295.46616792774785L237.25399431246967,295.4864206753427L237.62319339967473,295.50656254523085L237.99239248687982,295.5265942610503L238.3615915740849,295.5465165409327L238.73079066129003,295.56633009755114L239.09998974849512,295.5860356381676L239.46918883570015,295.60563386468016L239.83838792290527,295.6251254736695L240.20758701011036,295.64451115644505L240.57678609731545,295.6637915990906L240.94598518452054,295.6829674825095L241.31518427172566,295.7020394824698L241.68438335893075,295.7210082696479L242.0535824461358,295.7398745096732L242.4227815333409,295.75863886317114L242.79198062054598,295.7773019858064L243.16117970775107,295.7958645283255L243.53037879495614,295.8143271365993L243.89957788216122,295.8326904516642L244.26877696936634,295.85095510976424L244.63797605657143,295.86912174239194L245.00717514377652,295.88719097632855L245.37637423098158,295.90516343368466L245.74557331818673,295.92303973194004L246.11477240539176,295.9408204839829L246.48397149259688,295.95850629814913L246.85317057980197,295.9760977782609L247.22236966700706,295.99359552366514L247.59156875421215,296.0110001292713L247.9607678414172,296.0283121855892L248.3299669286223,296.0455322787661L248.6991660158274,296.06266099062356L249.0683651030325,296.07969889869423L249.4375641902376,296.0966465762577L249.80676327744266,296.11350459237667L250.17596236464777,296.1302735119321L250.54516145185283,296.1469538956589L250.91436053905792,296.1635463001801L251.28355962626298,296.18005127804184L251.65275871346813,296.1964693777475L252.0219578006732,296.2128011437913L252.39115688787828,296.22904711669213L252.76035597508337,296.2452078330266L253.12955506228846,296.2612838254619L253.49875414949358,296.2772756227885L253.8679532366986,296.29318374995256L254.23715232390373,296.30900872808763L254.60635141110882,296.3247510745465L254.9755504983139,296.3404113029325L255.344749585519,296.35598992313095L255.71394867272406,296.37148744133924L256.0831477599292,296.38690436009813L256.45234684713427,296.40224117832156L256.8215459343393,296.4174983913265L257.19074502154444,296.43267649086306L257.55994410874956,296.44777596514336L257.9291431959546,296.4627972988711L258.2983422831597,296.4777409732702L258.6675413703648,296.4926074661134L259.03674045756986,296.50739725175043L259.405939544775,296.5221108011364L259.77513863198004,296.53674858185946L260.1443377191851,296.5513110581681L260.5135368063902,296.5657986909988L260.88273589359534,296.5802119380029L261.2519349808004,296.5945512535733L261.62113406800546,296.6088170888712L261.99033315521064,296.6230098918522L262.35953224241564,296.6371301072924L262.72873132962076,296.65117817681454L263.0979304168259,296.66515453891293L263.46712950403094,296.6790596289795L263.83632859123605,296.6928938793282L264.2055276784411,296.70665771922074L264.57472676564623,296.72035157489046L264.9439258528513,296.7339758695671L265.3131249400564,296.7475310235011L265.6823240272615,296.7610174539874L266.0515231144666,296.7744355753894L266.42072220167165,296.78778579916235L266.7899212888767,296.8010685338768L267.15912037608183,296.8142841852415L267.52831946328695,296.8274331561269L267.897518550492,296.84051584658715L268.26671763769707,296.8535326538831L268.6359167249022,296.8664839725045L269.00511581210725,296.8793701941919L269.37431489931237,296.89219170795894L269.7435139865175,296.90494890011377L270.1127130737225,296.91764215428054L270.48191216092766,296.930271851421L270.8511112481327,296.9428383698554L271.2203103353378,296.95534208528346L271.5895094225429,296.9677833708052L271.958708509748,296.98016259694157L272.3279075969531,296.9924801316546L272.69710668415814,297.00473634036797L273.06630577136326,297.01693158598664L273.4355048585683,297.0290662289169L273.80470394577344,297.04114062708624L274.1739030329785,297.0531551359623L274.54310212018356,297.0651101085728L274.91230120738874,297.0770058955244L275.2815002945938,297.0888428450216L275.65069938179886,297.1006213028857L276.0198984690039,297.1123416125736L276.38909755620904,297.1240041151958L276.7582966434141,297.13560914953524L277.1274957306192,297.14715705206527L277.49669481782433,297.15864815696744L277.8658939050294,297.17008279614976L278.2350929922345,297.18146129926413L278.6042920794396,297.1927839937237L278.97349116664464,297.2040512047208L279.34269025384975,297.2152632552435L279.71188934105487,297.22642046609315L280.08108842825993,297.2375231559013L280.450287515465,297.24857164114604L280.8194866026701,297.25956623616923L281.1886856898752,297.2705072531926L281.5578847770803,297.2813950023342L281.92708386428535,297.29222979162444L282.29628295149047,297.3030119270226L282.6654820386956,297.31374171243226L283.03468112590065,297.32441944971737L283.4038802131057,297.3350454387177L283.7730793003108,297.34561997726473L284.1422783875159,297.3561433611964L284.51147747472095,297.36661588437306L284.88067656192607,297.3770378386921L285.2498756491312,297.38740951410307L285.61907473633624,297.3977311986226L285.98827382354136,297.408003178349L286.3574729107464,297.4182257374771L286.72667199795154,297.4283991583124L287.0958710851566,297.4385237212857L287.4650701723617,297.4485997049672L287.8342692595668,297.4586273860806L288.2034683467719,297.4686070395171L288.57266743397696,297.4785389383493L288.941866521182,297.48842335384495L289.3110656083872,297.4982605554806L289.6802646955922,297.508050810955L290.0494637827973,297.5177943862027L290.41866287000244,297.52749154540703L290.7878619572075,297.53714255101363L291.1570610444126,297.5467476637434L291.5262601316177,297.55630714260514L291.8954592188228,297.565821244909L292.2646583060279,297.5752902262785L292.633857393233,297.58471434066394L293.00305648043803,297.59409384035416L293.3722555676431,297.6034289759894L293.7414546548482,297.6127199965737L294.11065374205333,297.6219671494866L294.4798528292584,297.6311706804958L294.8490519164635,297.64033083376887L295.21825100366857,297.6494478518852L295.58745009087363,297.6585219758478L295.9566491780788,297.667553445095L296.3258482652838,297.6765424975122L296.6950473524889,297.68548936944296L297.064246439694,297.69439429570104L297.43344552689905,297.7032575095812L297.8026446141042,297.7120792428705L298.1718437013093,297.72085972585984L298.54104278851435,297.7295991873544L298.91024187571946,297.73829785468496L299.2794409629245,297.7469559537187L299.64864005012964,297.7555737088699L300.01783913733465,297.7641513431107L300.3870382245398,297.7726890779816L300.7562373117449,297.781187133602L301.12543639894994,297.7896457286805L301.49463548615506,297.7980650805255L301.8638345733602,297.80644540505523L302.23303366056524,297.81478691680786L302.60223274777036,297.82308982895177L302.9714318349754,297.83135435329535L303.3406309221805,297.83958070029706L303.70983000938566,297.8477690790752L304.07902909659066,297.8559196974176L304.4482281837958,297.8640327617913L304.8174272710009,297.8721084773523L305.1866263582059,297.88014704795484L305.5558254454111,297.88814867616094L305.92502453261613,297.8961135632498L306.2942236198212,297.904041909227L306.6634227070263,297.91193391283366L307.0326217942314,297.91978977155577L307.4018208814365,297.92760968163304L307.7710199686416,297.93539383806797L308.14021905584667,297.9431424346347L308.50941814305173,297.9508556638879L308.8786172302568,297.9585337171716L309.2478163174619,297.9661767846276L309.61701540466703,297.9737850552046L309.9862144918721,297.98135871666614L310.3554135790772,297.98889795559955L310.72461266628227,297.9964029574242L311.09381175348733,298.00387390639986L311.4630108406925,298.01131098563485L311.83220992789757,298.0187143770945L312.2014090151026,298.0260842616092L312.57060810230774,298.0334208188823L312.93980718951275,298.04072422749846L313.3090062767179,298.0479946649313L313.678205363923,298.0552323075514L314.04740445112805,298.06243733063434L314.41660353833316,298.06960990836814L314.7858026255383,298.076750213861L315.15500171274334,298.083858419149L315.52420079994846,298.09093469520406L315.8933998871535,298.09797921194075L316.2625989743586,298.1049921382242L316.63179806156376,298.1119736418775L317.00099714876876,298.1189238896889L317.3701962359739,298.1258430474191L317.739395323179,298.13273127980847L318.10859441038406,298.1395887505845L318.4777934975891,298.1464156224684L318.8469925847942,298.15321205718266L319.21619167199935,298.1599782154576L319.5853907592044,298.16671425703885L319.9545898464095,298.17342034069355L320.3237889336146,298.18009662421787L320.6929880208197,298.18674326444335L321.0621871080248,298.19336041724375L321.43138619522983,298.19994823754183L321.8005852824349,298.20650687931584L322.16978436964,298.21303649560605L322.53898345684513,298.21953723852147L322.9081825440502,298.2260092592462L323.2773816312553,298.2324527080458L323.64658071846037,298.2388677342737L324.01577980566543,298.2452544863775L324.3849788928706,298.25161311190544L324.7541779800756,298.25794375751224L325.1233770672807,298.2642465689656L325.49257615448585,298.2705216911521L325.8617752416909,298.27676926808357L326.23097432889597,298.2829894429027L326.60017341610114,298.2891823578894L326.9693725033062,298.2953481544665L327.33857159051126,298.3014869732059L327.7077706777163,298.3075989538339L328.07696976492144,298.31368423523776L328.44616885212656,298.3197429554707L328.8153679393316,298.32577525175805L329.1845670265367,298.33178126050296L329.5537661137418,298.33776111729156L329.92296520094686,298.34371495689925L330.292164288152,298.3496429132955L330.66136337535704,298.3555451196498L331.03056246256216,298.361421708337L331.3997615497672,298.3672728109428L331.7689606369723,298.3730985582689L332.13815972417746,298.37889908033844L332.5073588113825,298.3846745064015L332.8765578985876,298.39042496493994L333.2457569857927,298.39615058367286L333.61495607299776,298.4018514895619L333.9841551602028,298.407527808816L334.353354247408,298.41317966689667L334.72255333461305,298.4188071885232L335.0917524218181,298.42441049767746L335.46095150902323,298.4299897176088L335.8301505962283,298.43554497083926L336.1993496834334,298.44107637916835L336.56854877063853,298.4465840636778L336.93774785784353,298.45206814473636L337.30694694504865,298.457528742005L337.6761460322537,298.46296597444115L338.04534511945883,298.4683799603036L338.41454420666395,298.47377081715723L338.783743293869,298.4791386618777L339.15294238107407,298.4844836106559L339.52214146827924,298.4898057790027L339.8913405554843,298.49510528175335L340.26053964268937,298.50038223307195L340.6297387298944,298.50563674645616L340.99893781709955,298.5108689347414L341.36813690430466,298.5160789101053L341.73733599150967,298.5212667840722L342.10653507871484,298.52643266751744L342.4757341659199,298.5315766706714L342.84493325312496,298.53669890312443L343.2141323403301,298.5417994738302L343.58333142753514,298.54687849111076L343.95253051474026,298.55193606266005L344.3217296019454,298.5569722955485L344.6909286891504,298.5619872962271L345.0601277763555,298.566981170531L345.4293268635607,298.5719540236844L345.7985259507657,298.5769059603038L346.1677250379708,298.5818370844025L346.53692412517586,298.5867474993942L346.9061232123809,298.5916373080974L347.2753222995861,298.5965066127388L347.64452138679115,298.6013555149575L348.0137204739962,298.6061841158088L348.38291956120133,298.6109925157679L348.7521186484064,298.6157808147339L349.1213177356115,298.6205491120335L349.4905168228165,298.6252975064244L349.8597159100217,298.6300260960996L350.22891499722675,298.63473497869074L350.5981140844318,298.6394242512717L350.96731317163693,298.64409401036244L351.33651225884205,298.6487443519325L351.7057113460471,298.6533753714045L352.0749104332522,298.65798716365794L352.44410952045723,298.66257982303233L352.81330860766235,298.6671534433311L353.1825076948675,298.6717081178249L353.55170678207253,298.6762439392549L353.92090586927765,298.6807609998365L354.29010495648276,298.68525939126255L354.65930404368777,298.68973920470677L355.02850313089294,298.694200530827L355.397702218098,298.69864345976885L355.76690130530307,298.70306808116845L356.1361003925082,298.70747448415636L356.50529947971324,298.7118627573604L356.87449856691836,298.7162329889088L357.2436976541235,298.72058526643394L357.61289674132854,298.724919677075L357.9820958285336,298.7292363074813L358.3512949157388,298.73353524381554L358.7204940029438,298.7378165717568L359.0896930901489,298.7420803765037L359.45889217735396,298.7463267427773L359.8280912645591,298.75055575482446L360.19729035176414,298.75476749642064L360.5664894389692,298.75896205087275L360.9356885261744,298.76313950102275L361.30488761337944,298.76729992924976L361.6740867005845,298.77144341747385L362.0432857877896,298.7755700471582L362.4124848749946,298.7796798993126L362.7816839621998,298.78377305449595L363.1508830494049,298.7878495928193L363.5200821366099,298.7919095939487L363.88928122381503,298.7959531371077L364.25848031102015,298.7999803010808L364.6276793982252,298.8039911642154L364.99687848543033,298.8079858044254L365.3660775726354,298.8119642991932L365.73527665984045,298.8159267255729L366.1044757470456,298.81987316019286L366.47367483425063,298.8238036792582L366.84287392145575,298.82771835855385L367.21207300866087,298.83161727344685L367.5812720958659,298.835500498889L367.950471183071,298.83936810941975L368.31967027027605,298.84322017916844L368.6888693574812,298.84705678185713L369.0580684446863,298.8508779908029L369.42726753189135,298.8546838789208L369.79646661909646,298.8584745187257L370.1656657063016,298.8622499823356L370.53486479350664,298.8660103414732L370.90406388071176,298.86975566746935L371.27326296791676,298.87348603126463L371.6424620551219,298.8772015034124L372.011661142327,298.88090215408073L372.38086022953206,298.88458805305515" stroke="#4c78a8" stroke-width="2"></path></g></g><path class="foreground" aria-hidden="true" d="" display="none"></path></g></g></g></svg>