<svg class="marks" width="410" height="312" viewBox="0 0 410 312" version="1.1" xmlns="http://www.w3.org/2000/svg" xmlns:xlink="http://www.w3.org/1999/xlink"><rect width="410" height="312" fill="white"></rect><g fill="none" stroke-miterlimit="10" transform="translate(5,7)"><g class="mark-group role-frame root" role="graphics-object" aria-roledescription="group mark container"><g transform="translate(0,0)"><path class="background" aria-hidden="true" d="M0.5,0.5h400v300h-400Z"></path><g><g class="mark-line role-mark marks" role="graphics-symbol" aria-roledescription="line mark container"><path d="M13.892170076732741,280.01089334740647L14.26475832482737,279.79336055465313L14.637346572922,279.5739035127002L15.00993482101663,279.35251089502276L15.38252306911126,279.1291713788413L15.75511131720589,278.9038736461499L16.127699565300517,278.6766063847552L16.500287813395147,278.4473582893259L16.872876061489777,278.2161180624528L17.245464309584406,277.9828744157195L17.618052557679036,277.74761607078335L17.990640805773666,277.5103317604674L18.363229053868295,277.2710102298622L18.735817301962925,277.02964023743834L19.108405550057554,276.7862105561696L19.480993798152184,276.5407099746658L19.853582046246814,276.29312729831673L20.226170294341443,276.043451350446L20.598758542436073,275.7916709734747L20.971346790530703,275.5377750300963L21.343935038625332,275.2817524044607L21.716523286719962,275.0235920033685L22.08911153481459,274.76328275747636L22.46169978290922,274.50081362251063L22.83428803100385,274.2361735804926L23.20687627909848,273.9693516409725L23.57946452719311,273.70033684227354L23.95205277528774,273.42911825274643L24.32464102338237,273.15568497203253L24.697229271477,272.88002613233726L25.06981751957163,272.60213089971325L25.44240576766626,272.3219884753524L25.814994015760888,272.0395880968875L26.187582263855518,271.754919039704L26.560170511950147,271.46797061826L26.932758760044777,271.1787321874156L27.305347008139407,270.8871931437723L27.677935256234036,270.59334292702033L28.050523504328666,270.2971710212953L28.423111752423257,269.9986669565441L28.795700000517886,269.6978203098992L29.168288248612516,269.3946207070614L29.540876496707146,269.0890578236918L29.913464744801775,268.7811213868118L30.286052992896405,268.47080117621147L30.658641240991034,268.15808702586673L31.031229489085664,267.84296882536415L31.403817737180294,267.5254365213338L31.776405985274923,267.205480118891L32.14899423336956,266.8830896830845L32.521582481464186,266.5582553403538L32.894170729558816,266.23096727999314L33.266758977653446,265.90121575562364L33.639347225748075,265.5689910866723L34.011935473842705,265.23428365985893L34.384523721937335,264.8970839306897L34.757111970031964,264.557382424958L35.129700218126594,264.215169740252L35.50228846622122,263.8704365474695L35.87487671431585,263.52317359233865L36.24746496241048,263.1733716969458L36.62005321050511,262.8210217612698L36.99264145859974,262.46611476472157L37.36522970669437,262.1086417676914L37.737817954789,261.7485939131004L38.11040620288363,261.3859624279594L38.48299445097826,261.020738624932L38.85558269907289,260.65291390390456L39.22817094716752,260.2824797535604L39.60075919526215,259.90942775295986L39.97334744335678,259.53374957312525L40.34593569145141,259.15543697863046L40.71852393954604,258.7744818291955L41.09111218764067,258.3908760812858L41.4637004357353,258.0046117897153L41.83628868382993,257.61568110925447L42.20887693192456,257.2240762962419L42.58146518001919,256.8297897101997L42.954053428113816,256.4328138154533L43.326641676208446,256.03314118275375L43.699229924303076,255.6307644909043L44.071818172397705,255.2256765283895L44.444406420492335,254.8178701950077L44.816994668586965,254.407338503506L45.189582916681594,253.99407458121803L45.562171164776224,253.57807167170424L45.934759412870854,253.159323136394L46.30734766096548,252.73782245623013L46.67993590906011,252.3135632333152L47.05252415715474,251.88653919255918L47.42511240524937,251.45674418332885L47.797700653344,251.02417218109835L48.17028890143863,250.5888172891005L48.54287714953326,250.15067373997942L48.91546539762789,249.7097358974434L49.28805364572252,249.2659982579182L49.66064189381715,248.81945545220051L50.033230141911766,248.37010224711173L50.405818390006395,247.91793354715105L50.778406638101025,247.46294439614823L51.150994886195654,247.00512997891585L51.523583134290284,246.54448562290048L51.896171382384914,246.08100679983272L52.26875963047954,245.61468912737593L52.64134787857417,245.1455283707735L53.0139361266688,244.67352044449402L53.38652437476343,244.19866141387465L53.75911262285806,243.72094749676222L54.13170087095269,243.24037506515162L54.50428911904732,242.75694064682162L54.87687736714195,242.27064092696767L55.24946561523658,241.7814727498314L55.62205386333121,241.2894331203268L55.99464211142584,240.79451920566268L56.36723035952047,240.29672833696088L56.7398186076151,239.79605801087092L57.11240685570973,239.2925058911794L57.48499510380436,238.78606981041543L57.85758335189899,238.2767477714508L58.2301715999936,237.76453794909494L58.602759848088226,237.24943869168456L58.975348096182856,236.73144852266742L59.347936344277485,236.21056614218057L59.720524592372115,235.68679042862175L60.093112840466745,235.16012044021502L60.465701088561374,234.63055541656914L60.838289336656004,234.09809478022922L61.210877584750634,233.5627381382212L61.58346583284526,233.0244852835886L61.95605408093989,232.48333619692184L62.32864232903452,231.93929104787918L62.70123057712915,231.3923501966997L63.07381882522378,230.8425141957075L63.44640707331841,230.28978379080726L63.81899532141304,229.73415992297058L64.19158356950767,229.17564372971307L64.5641718176023,228.61423654656184L64.93676006569693,228.04993990851307L65.30934831379156,227.48275555147933L65.68193656188619,226.91268541372668L66.05452480998082,226.33973163730099L66.42711305807545,225.76389656944335L66.79970130617008,225.18518276399396L67.17228955426471,224.60359298278502L67.54487780235934,224.01913019702135L67.91746605045397,223.43179758864957L68.2900542985486,222.8415985517141L68.66264254664323,222.24853669370137L69.03523079473786,221.6526158368708L69.40781904283249,221.05384001957265L69.78040729092712,220.4522134975525L70.15299553902175,219.84774074524202L70.52558378711637,219.24042645703605L70.898172035211,218.63027554855486L71.27076028330563,218.01729315789248L71.64334853140026,217.40148464685L72.0159367794949,216.78285560215377L72.38852502758952,216.16141183665863L72.76111327568415,215.53715939053492L73.13370152377878,214.9101045324402L73.50628977187341,214.28025376067453L73.87887801996804,213.64761380431966L74.25146626806267,213.01219162436098L74.6240545161573,212.3739944147931L74.99664276425193,211.7330296037078L75.36923101234656,211.08930485436488L75.74181926044119,210.44282806624472L76.11440750853582,209.79360737608351L76.48699575663045,209.1416511588896L76.85958400472508,208.48696802894136L77.23217225281971,207.8295668407668L77.60476050091434,207.16945669010323L77.97734874900897,206.50664691483834L78.3499369971036,205.84114709593123L78.7225252451982,205.17296705831362L79.09511349329283,204.5021168717712L79.46770174138746,203.82860685180418L79.84028998948209,203.15244756046772L80.21287823757672,202.4736498071907L80.58546648567135,201.7922246495743L80.95805473376598,201.10818339416835L81.3306429818606,200.42153759722632L81.70323122995524,199.73229906543864L82.07581947804987,199.04047985664346L82.4484077261445,198.34609228051528L82.82099597423912,197.6491488992308L83.19358422233375,196.9496625281119L83.56617247042838,196.2476462362456L83.93876071852301,195.54311334708038L84.31134896661764,194.83607743899933L84.68393721471227,194.12655234586887L85.0565254628069,193.4145521575641L85.42911371090153,192.70009122046886L85.80170195899616,191.9831841379527L86.17429020709079,191.26384577082112L86.54687845518542,190.54209123774305L86.91946670328005,189.81793591565113L87.29205495137468,189.09139544011788L87.66464319946931,188.36248570570547L88.03723144756394,187.63122286629016L88.40981969565857,186.8976233353601L88.7824079437532,186.1617037862874L89.15499619184783,185.42348115257323L89.52758443994246,184.68297262806647L89.90017268803709,183.94019566715556L90.27276093613172,183.19516798493288L90.64534918422635,182.447907557332L91.01793743232098,181.6984326212377L91.3905256804156,180.9467616745679L91.76311392851024,180.19291347632793L92.13570217660487,179.43690704663652L92.5082904246995,178.67876166672406L92.88087867279413,177.91849687890172L93.25346692088875,177.1561324865027L93.62605516898338,176.39168855379407L93.99864341707801,175.62518540586007L94.37123166517264,174.85664362845637L94.74381991326727,174.08608406783455L95.1164081613619,173.31352783053785L95.48899640945653,172.53899628316674L95.86158465755116,171.76251105211517L96.23417290564579,170.98409402327673L96.60676115374042,170.20376734172086L96.97934940183505,169.4215534113389L97.35193764992968,168.63747489445976L97.72452589802431,167.85155471143523L98.09711414611894,167.0638160401949L98.46970239421357,166.27428231576988L98.8422906423082,165.4829772297864L99.21487889040283,164.6899247299278L99.58746713849746,163.89514901936616L99.96005538659209,163.09867455616194L100.3326436346867,162.30052605263344L100.70523188278133,161.5007284746939L101.07782013087596,160.69930704115762L101.4504083789706,159.89628722301467L101.82299662706522,159.09169474267352L102.19558487515985,158.28555557317247L102.56817312325448,157.47789593735894L102.94076137134911,156.66874230703655L103.31334961944374,155.85812140208145L103.68593786753837,155.04606018952524L104.058526115633,154.2325858826067L104.43111436372763,153.41772593979096L104.80370261182226,152.60150806375685L105.17629085991689,151.78396020035166L105.54887910801152,150.96511053751388L105.92146735610615,150.14498750416342L106.29405560420078,149.32361976905966L106.66664385229541,148.50103623962713L107.03923210039004,147.67726606074848L107.41182034848467,146.85233861352532L107.7844085965793,146.0262835140067L108.15699684467393,145.199130611885L108.52958509276856,144.3709099891589L108.90217334086319,143.5416519587649L109.27476158895782,142.7113870631755L109.64734983705245,141.8801460729655L110.01993808514707,141.04795998534527L110.3925263332417,140.21486002266252L110.76511458133633,139.38087763087054L111.13770282943096,138.54604447796515L111.5102910775256,137.71039245238867L111.88287932562022,136.87395366140183L112.25546757371485,136.03676042942334L112.62805582180948,135.19884529633757L113.00064406990411,134.36024101576967L113.37323231799874,133.52098055332885L113.74582056609337,132.6810970848196L114.118408814188,131.84062399442132L114.49099706228263,130.99959487283525L114.86358531037726,130.15804351540052L115.23617355847189,129.31600392017796L115.60876180656652,128.47351028600258L115.98135005466115,127.63059701050433L116.35393830275575,126.78729868809769L116.72652655085038,125.94365010793955L117.09911479894501,125.09968625185658L117.47170304703964,124.25544229224097L117.84429129513427,123.4109535899153L118.2168795432289,122.56625569196696L118.58946779132353,121.72138432955127L118.96205603941816,120.87637541566484L119.33464428751279,120.03126504288775L119.70723253560742,119.18608948109603L120.07982078370205,118.34088517514384L120.45240903179668,117.49568874251577L120.8249972798913,116.65053697094928L121.19758552798594,115.8054668160276L121.57017377608057,114.96051539874334L121.9427620241752,114.11572000303262L122.31535027226982,113.27111807328028L122.68793852036445,112.42674721179638L123.06052676845908,111.58264517626377L123.43311501655371,110.73884987715726L123.80570326464834,109.89539937513472L124.17829151274297,109.05233187840005L124.5508797608376,108.20968574003808L124.92346800893223,107.36749945532235L125.29605625702686,106.52581165899517L125.66864450512149,105.68466112252074L126.04123275321612,104.84408675131111L126.41382100131075,104.00412758192576L126.78640924940538,103.16482277924479L127.15899749750001,102.3262116336158L127.53158574559464,101.48833355797487L127.90417399368927,100.65122808494212L128.2767622417839,99.81493486389176L128.64935048987854,98.9794936579971L129.02193873797316,98.14494434125083L129.3945269860678,97.31132689546058L129.7671152341624,96.47868140722066L130.13970348225703,95.64704806485926L130.51229173035165,94.81646715536269L130.8848799784463,93.98697906127593L131.2574682265409,93.15862425758014L131.63005647463555,92.3314433085475L132.00264472273017,91.50547686457391L132.3752329708248,90.68076565898915L132.74782121891943,89.85735050484605L133.12040946701407,89.03527229168725L133.4929977151087,88.21457198229173L133.86558596320333,87.3952906094004L134.23817421129795,86.57746927242115L134.6107624593926,85.761149134114L134.9833507074872,84.9463714172564L135.35593895558185,84.1331774012897L135.72852720367646,83.32160841894598L136.1011154517711,82.51170585285685L136.47370369986572,81.70351113214393L136.84629194796037,80.89706572899131L137.21888019605498,80.09241115520044L137.59146844414963,79.28958895872867L137.96405669224424,78.48864072021023L138.33664494033889,77.68960804946138L138.7092331884335,76.89253258196983L139.08182143652814,76.09745597536819L139.45440968462276,75.30441990589244L139.8269979327174,74.51346606482633L140.19958618081202,73.72463615493066L140.57217442890666,72.93797188685926L140.94476267700128,72.1535149755612L141.31735092509592,71.37130713667034L141.68993917319054,70.59139008288201L142.06252742128518,69.8138055203176L142.4351156693798,69.03859514487749L142.80770391747444,68.26580063858268L143.18029216556906,67.49546366590533L143.55288041366367,66.72762587008934L143.92546866175832,65.96232886946063L144.29805690985293,65.19961425372796L144.67064515794758,64.43952358027467L145.0432334060422,63.682098370441985L145.41582165413683,62.92738010580391L145.78840990223145,62.17541022443447L146.1609981503261,61.42623011716809L146.5335863984207,60.67988112385249L146.90617464651535,59.936404529596054L147.27876289460997,59.19584156100862L147.6513511427046,58.45823338243772L148.02393939079923,57.723621092199096L148.39652763889387,56.99204571880341L148.7691158869885,56.26354821717877L149.14170413508313,55.53816946488972L149.51429238317775,54.81595025835356L149.8868806312724,54.09693130905385L150.259468879367,53.381153239752145L150.63205712746165,52.66865658069793L151.00464537555627,51.95948176583809L151.3772336236509,51.25366912902509L151.74982187174552,50.551258900225626L152.12241011984017,49.85229120172985L152.49499836793478,49.15680604436088L152.86758661602943,48.46484332368654L153.24017486412404,47.776442816232354L153.6127631122187,47.09164417569767L153.9853513603133,46.410486929174L154.35793960840795,45.73301047336742L154.73052785650256,45.05925407082447L155.1031161045972,44.38925684616277L155.47570435269182,43.72305778230664L155.84829260078646,43.06069571672768L156.22088084888108,42.40220933769202L156.59346909697572,41.7476371805135L156.96605734507034,41.097017623813855L157.33864559316496,40.450388885791014L157.71123384125957,39.80778902049407L158.08382208935421,39.16925591410831L158.45641033744883,38.53482728124805L158.82899858554347,37.90454066125931L159.2015868336381,37.278433414532806L159.57417508173273,36.65654271882701L159.94676332982735,36.038905565602484L160.319351577922,35.42555875636744L160.6919398260166,34.81653889903576L161.06452807411125,34.2118824042972L161.43711632220587,33.61162548200056L161.8097045703005,33.015804137550674L162.18229281839513,32.42445416831927L162.55488106648977,31.83761116007009L162.92746931458439,31.25531048339958L163.30005756267903,30.67758729019261L163.67264581077364,30.104476510094457L164.0452340588683,29.53601284699928L164.4178223069629,28.972230775555353L164.79041055505755,28.41316453768803L165.16299880315216,27.858848139140868L165.5355870512468,27.3093153460347L165.90817529934142,26.764599681446043L166.28076354743607,26.224734422004847L166.65335179553068,25.68975259451217L167.02594004362533,25.15968697257831L167.39852829171994,24.634570073281626L167.77111653981459,24.114434153848975L168.1437047879092,23.599311208357708L168.51629303600384,23.089232964460372L168.88888128409846,22.584230880131518L169.2614695321931,22.08433614043861L169.63405778028772,21.58957965433578L170.00664602838236,21.099992051482296L170.37923427647698,20.615603679085616L170.75182252457162,20.136444598769152L171.12441077266624,19.66254458346597L171.49699902076088,19.19393311433807L171.8695872688555,18.730639377722735L172.24217551695014,18.272692262104705L172.61476376504476,17.82012035511691L172.9873520131394,17.372951940567837L173.35994026123402,16.931214995497545L173.73252850932866,16.494937187262703L174.10511675742327,16.064145870649583L174.47770500551792,15.638868085017599L174.85029325361253,15.219130551472016L175.22288150170718,14.804959670067175L175.5954697498018,14.396381517040446L175.96805799789644,13.993421842077147L176.34064624599105,13.596106065607072L176.7132344940857,13.204459276132763L177.0858227421803,12.818506227590287L177.45841099027496,12.438271336742424L177.83099923836957,12.06377868060512L178.20358748646422,11.695051993907224L178.57617573455883,11.332114666584292L178.94876398265347,10.974989741306096L179.3213522307481,10.623699911039342L179.69394047884273,10.278267516644423L180.06652872693735,9.938714544508487L180.439116975032,9.60506262421329L180.8117052231266,9.277333026239143L181.18429347122125,8.955546659705682L181.55688171931587,8.639724070148546L181.9294699674105,8.32988543733373L182.30205821550513,8.02605057310849L182.67464646359977,7.7282389192906535L183.0472347116944,7.436469545595125L183.41982295978903,7.150761147599194L183.79241120788365,6.871132044746153L184.1649994559783,6.597600178387541L184.5375877040729,6.330183109865073L184.91017595216755,6.068898018631341L185.28276420026216,5.813761700410791L185.6553524483568,5.56479056540039L186.02794069645142,5.322000636510371L186.40052894454607,5.085407547646003L186.77311719264068,4.855026542029572L187.14570544073533,4.630872470563785L187.51829368882994,4.412959790236282L187.8908819369246,4.201302562565578L188.2634701850192,3.995914452089111L188.63605843311385,3.7968087248924753L189.00864668120846,3.603998247181972L189.3812349293031,3.4174954838985805L189.75382317739772,3.237312497374867L190.12641142549236,3.0634609460351236L190.49899967358698,2.8959520831378094L190.87158792168162,2.734796755561686L191.2441761697762,2.5800054026353214L191.61676441787083,2.4315880550097924L191.98935266596547,2.2895543335756163L192.36194091406009,2.1539134484231504L192.73452916215473,2.0246741978473204L193.10711741024934,1.901844967396349L193.479705658344,1.7854337289653466L193.8522939064386,1.6754480399335026L194.22488215453325,1.5718950423465383L194.59747040262786,1.4747814621439925L194.9700586507225,1.3841136084308037L195.34264689881712,1.2998973727943564L195.71523514691177,1.2221382286664584L196.08782339500638,1.150841230730315L196.46041164310103,1.0860110143730006L196.83299989119564,1.0276517951831932L197.20558813929028,0.9757673684943069L197.5781763873849,0.9303611089730213L197.95076463547954,0.8914359702535402L198.32335288357416,0.8589944846174813L198.6959411316688,0.833038762719096L199.06852937976342,0.8135704933564858L199.44111762785806,0.8005909432885483L199.81370587595268,0.7941009570975543L200.18629412404732,0.7941009570975543L200.55888237214194,0.8005909432885483L200.93147062023658,0.8135704933564858L201.3040588683312,0.833038762719096L201.67664711642584,0.8589944846174813L202.04923536452046,0.8914359702535402L202.4218236126151,0.9303611089730213L202.79441186070972,0.9757673684943069L203.16700010880436,1.0276517951831932L203.53958835689897,1.0860110143730006L203.91217660499362,1.150841230730315L204.28476485308823,1.2221382286664584L204.65735310118288,1.2998973727943564L205.0299413492775,1.3841136084308037L205.40252959737214,1.4747814621439925L205.77511784546675,1.5718950423465383L206.1477060935614,1.6754480399335026L206.520294341656,1.7854337289653466L206.89288258975066,1.901844967396349L207.26547083784527,2.0246741978473204L207.63805908593991,2.1539134484231504L208.01064733403453,2.2895543335756163L208.38323558212917,2.4315880550097924L208.7558238302238,2.5800054026353214L209.12841207831843,2.734796755561686L209.50100032641305,2.8959520831378094L209.8735885745077,3.063460946035157L210.2461768226023,3.237312497374867L210.61876507069695,3.4174954838985805L210.99135331879157,3.6039982471820053L211.3639415668862,3.7968087248924753L211.73652981498083,3.995914452089111L212.10911806307547,4.201302562565646L212.4817063111701,4.4129597902363145L212.85429455926473,4.630872470563818L213.22688280735935,4.855026542029606L213.599471055454,5.085407547646037L213.9720593035486,5.3220006365104044L214.34464755164325,5.56479056540039L214.71723579973786,5.813761700410824L215.0898240478325,6.068898018631341L215.46241229592712,6.330183109865073L215.83500054402177,6.597600178387575L216.20758879211638,6.871132044746153L216.58017704021103,7.150761147599227L216.95276528830564,7.436469545595159L217.32535353640029,7.7282389192906535L217.6979417844949,8.026050573108524L218.07053003258955,8.329885437333761L218.44311828068413,8.639724070148546L218.81570652877875,8.955546659705682L219.1882947768734,9.277333026239143L219.560883024968,9.60506262421329L219.93347127306265,9.938714544508487L220.30605952115727,10.278267516644423L220.6786477692519,10.623699911039342L221.05123601734653,10.974989741306096L221.42382426544117,11.332114666584292L221.79641251353578,11.695051993907224L222.16900076163043,12.06377868060512L222.54158900972504,12.438271336742424L222.9141772578197,12.818506227590287L223.2867655059143,13.204459276132763L223.65935375400895,13.596106065607072L224.03194200210356,13.993421842077147L224.4045302501982,14.396381517040446L224.77711849829282,14.804959670067175L225.14970674638747,15.219130551472016L225.52229499448208,15.638868085017599L225.89488324257673,16.064145870649583L226.26747149067134,16.494937187262703L226.64005973876598,16.931214995497545L227.0126479868606,17.372951940567837L227.38523623495524,17.82012035511691L227.75782448304986,18.272692262104705L228.1304127311445,18.730639377722735L228.50300097923912,19.19393311433807L228.87558922733376,19.66254458346597L229.24817747542838,20.136444598769152L229.62076572352302,20.615603679085616L229.99335397161764,21.09999205148233L230.36594221971228,21.58957965433578L230.7385304678069,22.084336140438644L231.11111871590154,22.584230880131518L231.48370696399616,23.089232964460372L231.8562952120908,23.599311208357744L232.22888346018541,24.114434153849007L232.60147170828006,24.634570073281658L232.97405995637467,25.15968697257831L233.34664820446932,25.689752594512207L233.71923645256393,26.22473442200488L234.09182470065858,26.76459968144608L234.4644129487532,27.309315346034737L234.83700119684784,27.858848139140868L235.20958944494245,28.41316453768806L235.5821776930371,28.972230775555353L235.9547659411317,29.53601284699928L236.32735418922636,30.104476510094493L236.69994243732097,30.67758729019261L237.07253068541561,31.25531048339958L237.44511893351023,31.83761116007009L237.81770718160487,32.42445416831927L238.1902954296995,33.01580413755071L238.56288367779413,33.61162548200056L238.93547192588875,34.211882404297235L239.3080601739834,34.8165388990358L239.680648422078,35.42555875636744L240.05323667017265,36.03890556560252L240.42582491826727,36.65654271882705L240.7984131663619,37.278433414532806L241.17100141445653,37.90454066125935L241.54358966255117,38.534827281248084L241.91617791064579,39.16925591410838L242.28876615874043,39.8077890204941L242.66135440683504,40.450388885791014L243.0339426549297,41.09701762381396L243.4065309030243,41.74763718051353L243.77911915111895,42.402209337692085L244.15170739921356,43.06069571672775L244.5242956473082,43.723057782306704L244.89688389540282,44.38925684616287L245.26947214349747,45.05925407082454L245.64206039159205,45.73301047336742L246.01464863968667,46.410486929174L246.3872368877813,47.09164417569767L246.75982513587593,47.776442816232354L247.13241338397057,48.46484332368654L247.5050016320652,49.15680604436088L247.87758988015983,49.85229120172985L248.25017812825445,50.551258900225626L248.6227663763491,51.25366912902509L248.9953546244437,51.95948176583809L249.36794287253835,52.66865658069793L249.74053112063297,53.381153239752145L250.1131193687276,54.09693130905385L250.48570761682222,54.81595025835356L250.85829586491687,55.53816946488972L251.23088411301148,56.26354821717877L251.60347236110613,56.99204571880341L251.97606060920074,57.723621092199096L252.3486488572954,58.45823338243772L252.72123710539,59.19584156100862L253.09382535348465,59.936404529596054L253.46641360157926,60.67988112385249L253.8390018496739,61.42623011716809L254.21159009776852,62.17541022443447L254.58417834586317,62.92738010580391L254.95676659395778,63.682098370441985L255.32935484205242,64.43952358027467L255.70194309014704,65.19961425372796L256.0745313382417,65.96232886946063L256.4471195863363,66.72762587008934L256.8197078344309,67.49546366590533L257.19229608252556,68.2658006385827L257.5648843306202,69.03859514487756L257.93747257871485,69.81380552031764L258.31006082680943,70.59139008288201L258.6826490749041,71.37130713667037L259.0552373229987,72.1535149755612L259.42782557109336,72.93797188685926L259.80041381918795,73.7246361549307L260.1730020672826,74.51346606482637L260.54559031537724,75.30441990589249L260.9181785634719,76.09745597536819L261.29076681156647,76.8925325819699L261.6633550596611,77.68960804946141L262.03594330775576,78.48864072021023L262.4085315558504,79.28958895872867L262.781119803945,80.09241115520047L263.15370805203963,80.89706572899131L263.5262963001343,81.70351113214403L263.8988845482289,82.51170585285695L264.2714727963235,83.32160841894598L264.64406104441815,84.13317740128974L265.0166492925128,84.94637141725643L265.38923754060744,85.761149134114L265.761825788702,86.5774692724212L266.13441403679667,87.39529060940045L266.5070022848913,88.21457198229177L266.87959053298596,89.03527229168725L267.25217878108054,89.8573505048461L267.6247670291752,90.68076565898924L267.99735527726983,91.50547686457394L268.3699435253645,92.33144330854753L268.74253177345906,93.15862425758019L269.1151200215537,93.98697906127603L269.48770826964835,94.81646715536274L269.860296517743,95.64704806485929L270.2328847658376,96.47868140722073L270.6054730139322,97.31132689546068L270.97806126202687,98.1449443412509L271.3506495101215,98.97949365799717L271.7232377582161,99.81493486389182L272.09582600631074,100.65122808494218L272.4684142544054,101.48833355797491L272.84100250250003,102.3262116336158L273.2135907505946,103.16482277924479L273.58617899868926,104.00412758192576L273.9587672467839,104.84408675131111L274.33135549487855,105.68466112252074L274.70394374297314,106.52581165899517L275.0765319910678,107.36749945532235L275.4491202391624,108.20968574003808L275.82170848725707,109.05233187840005L276.19429673535166,109.89539937513472L276.5668849834463,110.73884987715726L276.93947323154094,111.58264517626377L277.3120614796356,112.42674721179638L277.6846497277302,113.27111807328028L278.0572379758248,114.11572000303262L278.42982622391946,114.96051539874334L278.8024144720141,115.8054668160276L279.1750027201087,116.65053697094928L279.54759096820334,117.49568874251577L279.920179216298,118.34088517514384L280.2927674643926,119.18608948109603L280.6653557124872,120.03126504288775L281.03794396058186,120.87637541566484L281.4105322086765,121.72138432955127L281.78312045677114,122.56625569196696L282.15570870486573,123.4109535899153L282.5282969529604,124.25544229224097L282.900885201055,125.09968625185658L283.27347344914966,125.94365010793955L283.64606169724425,126.78729868809769L284.0186499453389,127.6305970105044L284.39123819343354,128.47351028600264L284.7638264415282,129.316003920178L285.13641468962277,130.15804351540055L285.5090029377174,130.99959487283527L285.88159118581206,131.84062399442138L286.2541794339067,132.68109708481967L286.6267676820013,133.52098055332885L286.99935593009593,134.36024101576973L287.3719441781906,135.19884529633765L287.7445324262852,136.03676042942337L288.1171206743798,136.87395366140186L288.48970892247445,137.7103924523887L288.8622971705691,138.5460444779652L289.23488541866374,139.3808776308706L289.6074736667583,140.21486002266255L289.98006191485297,141.04795998534536L290.3526501629476,141.88014607296552L290.72523841104226,142.71138706317555L291.09782665913684,143.5416519587649L291.4704149072315,144.37090998915895L291.84300315532613,145.19913061188504L292.2155914034208,146.02628351400682L292.58817965151536,146.85233861352535L292.96076789961,147.6772660607485L293.33335614770465,148.50103623962718L293.7059443957993,149.32361976905975L294.0785326438939,150.14498750416345L294.4511208919885,150.9651105375139L294.82370914008317,151.7839602003517L295.1962973881778,152.60150806375685L295.5688856362724,153.41772593979098L295.94147388436704,154.2325858826067L296.3140621324617,155.04606018952532L296.68665038055633,155.85812140208154L297.0592386286509,156.6687423070366L297.43182687674556,157.47789593735894L297.8044151248402,158.2855555731726L298.17700337293485,159.09169474267358L298.54959162102944,159.89628722301472L298.9221798691241,160.6993070411577L299.2947681172187,161.50072847469397L299.66735636531337,162.30052605263353L300.03994461340795,163.098674556162L300.41253286150254,163.89514901936616L300.7851211095972,164.6899247299278L301.15770935769183,165.4829772297864L301.5302976057865,166.27428231576988L301.90288585388106,167.0638160401949L302.2754741019757,167.85155471143523L302.64806235007035,168.63747489445976L303.020650598165,169.4215534113389L303.3932388462596,170.20376734172086L303.7658270943542,170.98409402327673L304.13841534244887,171.76251105211517L304.5110035905435,172.53899628316674L304.8835918386381,173.31352783053785L305.25618008673274,174.08608406783455L305.6287683348274,174.85664362845637L306.001356582922,175.62518540586007L306.3739448310166,176.39168855379407L306.74653307911126,177.1561324865027L307.1191213272059,177.91849687890172L307.49170957530055,178.67876166672406L307.86429782339513,179.43690704663652L308.2368860714898,180.19291347632793L308.6094743195844,180.9467616745679L308.98206256767907,181.6984326212377L309.35465081577365,182.447907557332L309.7272390638683,183.19516798493288L310.09982731196294,183.94019566715556L310.4724155600576,184.68297262806647L310.84500380815217,185.42348115257323L311.2175920562468,186.1617037862874L311.59018030434146,186.8976233353601L311.9627685524361,187.63122286629016L312.3353568005307,188.36248570570547L312.70794504862533,189.09139544011788L313.08053329672,189.81793591565113L313.4531215448146,190.54209123774305L313.8257097929092,191.26384577082112L314.19829804100385,191.9831841379527L314.5708862890985,192.70009122046895L314.94347453719314,193.41455215756412L315.3160627852877,194.12655234586893L315.68865103338237,194.83607743899933L316.061239281477,195.54311334708038L316.43382752957166,196.2476462362456L316.80641577766625,196.94966252811193L317.1790040257609,197.64914889923082L317.55159227385553,198.34609228051528L317.9241805219502,199.0404798566435L318.29676877004476,199.73229906543864L318.6693570181394,200.42153759722635L319.04194526623405,201.10818339416838L319.4145335143287,201.7922246495744L319.7871217624233,202.47364980719075L320.159710010518,203.15244756046778L320.5322982586125,203.82860685180427L320.9048865067072,204.5021168717712L321.2774747548018,205.1729670583137L321.6500630028965,205.8411470959313L322.02265125099103,206.50664691483837L322.39523949908573,207.1694566901033L322.76782774718026,207.82956684076683L323.140415995275,208.48696802894142L323.51300424336955,209.14165115888963L323.88559249146425,209.7936073760836L324.25818073955884,210.4428280662448L324.63076898765354,211.0893048543649L325.00335723574807,211.73302960370788L325.37594548384277,212.37399441479315L325.7485337319373,213.01219162436104L326.12112198003206,213.64761380431975L326.4937102281266,214.28025376067458L326.8662984762213,214.91010453244024L327.2388867243159,215.53715939053495L327.61147497241046,216.16141183665863L327.9840632205051,216.78285560215377L328.35665146859975,217.40148464685L328.72923971669434,218.01729315789248L329.101827964789,218.63027554855486L329.4744162128836,219.24042645703605L329.84700446097827,219.84774074524202L330.2195927090729,220.4522134975525L330.5921809571675,221.05384001957265L330.96476920526214,221.6526158368708L331.3373574533568,222.24853669370137L331.7099457014514,222.8415985517141L332.082533949546,223.43179758864957L332.45512219764066,224.01913019702135L332.8277104457353,224.60359298278502L333.20029869382995,225.18518276399396L333.57288694192454,225.76389656944335L333.9454751900192,226.33973163730099L334.3180634381138,226.91268541372668L334.6906516862084,227.48275555147933L335.06323993430306,228.04993990851307L335.4358281823977,228.61423654656184L335.80841643049234,229.17564372971307L336.181004678587,229.73415992297058L336.5535929266816,230.28978379080726L336.9261811747762,230.8425141957075L337.29876942287086,231.3923501966997L337.67135767096545,231.93929104787918L338.0439459190601,232.48333619692184L338.41653416715474,233.0244852835886L338.7891224152494,233.5627381382212L339.161710663344,234.09809478022922L339.5342989114386,234.63055541656914L339.90688715953326,235.16012044021502L340.2794754076279,235.68679042862175L340.6520636557225,236.21056614218057L341.02465190381713,236.73144852266742L341.3972401519118,237.24943869168456L341.7698284000064,237.76453794909494L342.14241664810106,238.2767477714508L342.51500489619565,238.78606981041543L342.8875931442903,239.29250589117942L343.26018139238494,239.79605801087095L343.6327696404795,240.29672833696097L344.00535788857417,240.7945192056627L344.3779461366688,241.28943312032683L344.75053438476345,241.7814727498314L345.1231226328581,242.2706409269677L345.4957108809527,242.75694064682165L345.86829912904733,243.24037506515165L346.240887377142,243.72094749676225L346.61347562523656,244.19866141387467L346.9860638733312,244.67352044449402L347.35865212142585,245.14552837077352L347.7312403695205,245.61468912737595L348.10382861761514,246.08100679983272L348.4764168657097,246.54448562290048L348.84900511380437,247.00512997891587L349.221593361899,247.46294439614823L349.5941816099936,247.91793354715105L349.96676985808824,248.37010224711176L350.3393581061829,248.81945545220054L350.71194635427753,249.26599825791823L351.0845346023722,249.7097358974435L351.45712285046676,250.1506737399795L351.8297110985614,250.58881728910052L352.20229934665605,251.02417218109835L352.57488759475063,251.45674418332888L352.9474758428453,251.8865391925592L353.3200640909399,252.31356323331525L353.69265233903457,252.73782245623016L354.0652405871292,253.15932313639402L354.4378288352238,253.57807167170427L354.81041708331844,253.9940745812181L355.1830053314131,254.40733850350603L355.5555935795077,254.81787019500774L355.9281818276023,255.22567652838956L356.30077007569696,255.63076449090434L356.6733583237916,256.0331411827538L357.04594657188625,256.4328138154533L357.41853481998083,256.8297897101997L357.7911230680755,257.2240762962419L358.1637113161701,257.6156811092545L358.5362995642647,258.0046117897153L358.90888781235935,258.3908760812858L359.281476060454,258.7744818291955L359.65406430854864,259.15543697863046L360.0266525566433,259.5337495731253L360.3992408047379,259.9094277529599L360.7718290528325,260.2824797535604L361.14441730092716,260.65291390390456L361.51700554902175,261.020738624932L361.8895937971164,261.38596242795944L362.26218204521103,261.7485939131005L362.6347702933057,262.10864176769144L363.0073585414003,262.4661147647216L363.3799467894949,262.8210217612698L363.75253503758955,263.1733716969459L364.1251232856842,263.52317359233865L364.4977115337788,263.8704365474696L364.8702997818734,264.21516974025207L365.24288802996807,264.557382424958L365.6154762780627,264.89708393068975L365.98806452615736,265.234283659859L366.36065277425195,265.5689910866723L366.7332410223466,265.90121575562364L367.10582927044123,266.2309672799932L367.4784175185358,266.55825534035387L367.85100576663046,266.88308968308456L368.223594014725,267.20548011889093L368.59618226281964,267.5254365213338L368.9687705109143,267.8429688253641L369.3413587590089,268.15808702586673L369.7139470071035,268.4708011762114L370.08653525519816,268.7811213868117L370.4591235032928,269.0890578236918L370.83171175138745,269.3946207070614L371.20429999948203,269.6978203098992L371.5768882475767,269.9986669565441L371.9494764956713,270.2971710212953L372.32206474376596,270.59334292702033L372.69465299186055,270.8871931437723L373.0672412399552,271.1787321874156L373.43982948804984,271.46797061826L373.8124177361445,271.754919039704L374.18500598423907,272.0395880968875L374.5575942323337,272.3219884753524L374.93018248042836,272.60213089971325L375.302770728523,272.88002613233726L375.6753589766176,273.15568497203253L376.04794722471223,273.42911825274643L376.4205354728069,273.70033684227354L376.7931237209015,273.9693516409725L377.1657119689961,274.2361735804926L377.53830021709075,274.50081362251063L377.9108884651854,274.76328275747636L378.28347671328004,275.0235920033685L378.6560649613746,275.2817524044607L379.02865320946927,275.5377750300963L379.4012414575639,275.7916709734747L379.77382970565856,276.043451350446L380.14641795375314,276.29312729831673L380.5190062018478,276.5407099746658L380.89159444994243,276.7862105561696L381.2641826980371,277.02964023743834L381.63677094613166,277.2710102298622L382.0093591942263,277.5103317604674L382.38194744232095,277.74761607078335L382.7545356904156,277.9828744157195L383.1271239385102,278.2161180624528L383.4997121866048,278.4473582893259L383.87230043469947,278.6766063847552L384.2448886827941,278.9038736461499L384.6174769308887,279.1291713788413L384.99006517898334,279.35251089502276L385.362653427078,279.5739035127002L385.73524167517263,279.79336055465313L386.1078299232672,280.01089334740647" stroke="#4c78a8" stroke-width="2"></path></g></g><path class="foreground" aria-hidden="true" d="" display="none"></path></g></g></g></svg>