<svg class="marks" width="410" height="312" viewBox="0 0 410 312" version="1.1" xmlns="http://www.w3.org/2000/svg" xmlns:xlink="http://www.w3.org/1999/xlink"><rect width="410" height="312" fill="white"></rect><g fill="none" stroke-miterlimit="10" transform="translate(5,7)"><g class="mark-group role-frame root" role="graphics-object" aria-roledescription="group mark container"><g transform="translate(0,0)"><path class="background" aria-hidden="true" d="M0.5,0.5h400v300h-400Z"></path><g><g class="mark-line role-mark layer_0_marks" role="graphics-symbol" aria-roledescription="line mark container"><path d="M106.94608503836638,280.01089334740647L107.1323791624137,279.79336055465313L107.318673286461,279.5739035127002L107.50496741050833,279.35251089502276L107.69126153455564,279.1291713788413L107.87755565860296,278.9038736461499L108.06384978265027,278.6766063847552L108.25014390669759,278.4473582893259L108.4364380307449,278.2161180624528L108.62273215479222,277.9828744157195L108.80902627883953,277.74761607078335L108.99532040288685,277.5103317604674L109.18161452693415,277.2710102298622L109.36790865098148,277.02964023743834L109.55420277502878,276.7862105561696L109.7404968990761,276.5407099746658L109.92679102312341,276.29312729831673L110.11308514717074,276.043451350446L110.29937927121804,275.7916709734747L110.48567339526537,275.5377750300963L110.67196751931267,275.2817524044607L110.85826164336,275.0235920033685L111.0445557674073,274.76328275747636L111.23084989145462,274.50081362251063L111.41714401550193,274.2361735804926L111.60343813954925,273.9693516409725L111.78973226359656,273.70033684227354L111.97602638764388,273.42911825274643L112.16232051169119,273.15568497203253L112.34861463573851,272.88002613233726L112.53490875978582,272.60213089971325L112.72120288383314,272.3219884753524L112.90749700788045,272.0395880968875L113.09379113192777,271.754919039704L113.28008525597508,271.46797061826L113.4663793800224,271.1787321874156L113.65267350406971,270.8871931437723L113.83896762811703,270.59334292702033L114.02526175216434,270.2971710212953L114.21155587621163,269.9986669565441L114.39785000025896,269.6978203098992L114.58414412430626,269.3946207070614L114.77043824835359,269.0890578236918L114.9567323724009,268.7811213868118L115.14302649644821,268.47080117621147L115.32932062049552,268.15808702586673L115.51561474454284,267.84296882536415L115.70190886859015,267.5254365213338L115.88820299263747,267.205480118891L116.07449711668478,266.8830896830845L116.2607912407321,266.5582553403538L116.44708536477941,266.23096727999314L116.63337948882673,265.90121575562364L116.81967361287404,265.5689910866723L117.00596773692136,265.23428365985893L117.19226186096867,264.8970839306897L117.37855598501599,264.557382424958L117.5648501090633,264.215169740252L117.75114423311062,263.8704365474695L117.93743835715793,263.52317359233865L118.12373248120525,263.1733716969458L118.31002660525256,262.8210217612698L118.49632072929988,262.46611476472157L118.68261485334719,262.1086417676914L118.86890897739451,261.7485939131004L119.05520310144182,261.3859624279594L119.24149722548914,261.020738624932L119.42779134953645,260.65291390390456L119.61408547358377,260.2824797535604L119.80037959763108,259.90942775295986L119.9866737216784,259.53374957312525L120.17296784572571,259.15543697863046L120.35926196977303,258.7744818291955L120.54555609382034,258.3908760812858L120.73185021786766,258.0046117897153L120.91814434191497,257.61568110925447L121.10443846596229,257.2240762962419L121.2907325900096,256.8297897101997L121.47702671405692,256.4328138154533L121.66332083810423,256.03314118275375L121.84961496215155,255.6307644909043L122.03590908619886,255.2256765283895L122.22220321024618,254.8178701950077L122.40849733429349,254.407338503506L122.59479145834081,253.99407458121803L122.78108558238812,253.57807167170424L122.96737970643544,253.159323136394L123.15367383048275,252.73782245623013L123.33996795453007,252.3135632333152L123.52626207857737,251.88653919255918L123.7125562026247,251.45674418332885L123.898850326672,251.02417218109835L124.08514445071933,250.5888172891005L124.27143857476663,250.15067373997942L124.45773269881396,249.7097358974434L124.64402682286126,249.2659982579182L124.83032094690859,248.81945545220051L125.01661507095588,248.37010224711173L125.20290919500319,247.91793354715105L125.3892033190505,247.46294439614823L125.57549744309782,247.00512997891585L125.76179156714514,246.54448562290048L125.94808569119245,246.08100679983272L126.13437981523975,245.61468912737593L126.32067393928708,245.1455283707735L126.5069680633344,244.67352044449402L126.6932621873817,244.19866141387465L126.87955631142901,243.72094749676222L127.06585043547634,243.24037506515162L127.25214455952366,242.75694064682162L127.43843868357096,242.27064092696767L127.62473280761827,241.7814727498314L127.8110269316656,241.2894331203268L127.99732105571292,240.79451920566268L128.18361517976024,240.29672833696088L128.36990930380753,239.79605801087092L128.55620342785485,239.2925058911794L128.74249755190218,238.78606981041543L128.92879167594947,238.2767477714508L129.1150857999968,237.76453794909494L129.3013799240441,237.24943869168456L129.48767404809143,236.73144852266742L129.67396817213876,236.21056614218057L129.86026229618605,235.68679042862175L130.04655642023337,235.16012044021502L130.2328505442807,234.63055541656914L130.419144668328,234.09809478022922L130.6054387923753,233.5627381382212L130.79173291642263,233.0244852835886L130.97802704046995,232.48333619692184L131.16432116451728,231.93929104787918L131.35061528856457,231.3923501966997L131.5369094126119,230.8425141957075L131.7232035366592,230.28978379080726L131.9094976607065,229.73415992297058L132.09579178475383,229.17564372971307L132.28208590880115,228.61423654656184L132.46838003284847,228.04993990851307L132.6546741568958,227.48275555147933L132.8409682809431,226.91268541372668L133.0272624049904,226.33973163730099L133.21355652903773,225.76389656944335L133.39985065308502,225.18518276399396L133.58614477713235,224.60359298278502L133.77243890117967,224.01913019702135L133.958733025227,223.43179758864957L134.1450271492743,222.8415985517141L134.3313212733216,222.24853669370137L134.51761539736893,221.6526158368708L134.70390952141625,221.05384001957265L134.89020364546354,220.4522134975525L135.07649776951087,219.84774074524202L135.2627918935582,219.24042645703605L135.4490860176055,218.63027554855486L135.63538014165283,218.01729315789248L135.82167426570012,217.40148464685L136.00796838974745,216.78285560215377L136.19426251379477,216.16141183665863L136.38055663784206,215.53715939053492L136.56685076188938,214.9101045324402L136.7531448859367,214.28025376067453L136.93943900998403,213.64761380431966L137.12573313403135,213.01219162436098L137.31202725807864,212.3739944147931L137.49832138212597,211.7330296037078L137.6846155061733,211.08930485436488L137.87090963022058,210.44282806624472L138.0572037542679,209.79360737608351L138.24349787831522,209.1416511588896L138.42979200236255,208.48696802894136L138.61608612640987,207.8295668407668L138.80238025045716,207.16945669010323L138.98867437450448,206.50664691483834L139.1749684985518,205.84114709593123L139.3612626225991,205.17296705831362L139.54755674664642,204.5021168717712L139.73385087069374,203.82860685180418L139.92014499474107,203.15244756046772L140.1064391187884,202.4736498071907L140.29273324283568,201.7922246495743L140.479027366883,201.10818339416835L140.66532149093032,200.42153759722632L140.85161561497762,199.73229906543864L141.03790973902494,199.04047985664346L141.22420386307226,198.34609228051528L141.41049798711958,197.6491488992308L141.5967921111669,196.9496625281119L141.7830862352142,196.2476462362456L141.96938035926152,195.54311334708038L142.15567448330884,194.83607743899933L142.34196860735614,194.12655234586887L142.52826273140346,193.4145521575641L142.71455685545078,192.70009122046886L142.90085097949807,191.9831841379527L143.0871451035454,191.26384577082112L143.2734392275927,190.54209123774305L143.45973335164,189.81793591565113L143.64602747568733,189.09139544011788L143.83232159973466,188.36248570570547L144.01861572378195,187.63122286629016L144.20490984782927,186.8976233353601L144.3912039718766,186.1617037862874L144.57749809592391,185.42348115257323L144.7637922199712,184.68297262806647L144.95008634401853,183.94019566715556L145.13638046806585,183.19516798493288L145.32267459211317,182.447907557332L145.50896871616047,181.6984326212377L145.6952628402078,180.9467616745679L145.8815569642551,180.19291347632793L146.06785108830243,179.43690704663652L146.25414521234973,178.67876166672406L146.44043933639705,177.91849687890172L146.62673346044437,177.1561324865027L146.8130275844917,176.39168855379407L146.999321708539,175.62518540586007L147.1856158325863,174.85664362845637L147.37190995663363,174.08608406783455L147.55820408068095,173.31352783053785L147.74449820472825,172.53899628316674L147.93079232877557,171.76251105211517L148.1170864528229,170.98409402327673L148.3033805768702,170.20376734172086L148.4896747009175,169.4215534113389L148.67596882496483,168.63747489445976L148.86226294901215,167.85155471143523L149.04855707305947,167.0638160401949L149.23485119710676,166.27428231576988L149.42114532115409,165.4829772297864L149.6074394452014,164.6899247299278L149.79373356924873,163.89514901936616L149.98002769329602,163.09867455616194L150.16632181734334,162.30052605263344L150.35261594139067,161.5007284746939L150.538910065438,160.69930704115762L150.72520418948528,159.89628722301467L150.9114983135326,159.09169474267352L151.09779243757993,158.28555557317247L151.28408656162722,157.47789593735894L151.47038068567454,156.66874230703655L151.65667480972184,155.85812140208145L151.84296893376916,155.04606018952524L152.02926305781648,154.2325858826067L152.2155571818638,153.41772593979096L152.4018513059111,152.60150806375685L152.58814542995842,151.78396020035166L152.77443955400574,150.96511053751388L152.96073367805306,150.14498750416342L153.14702780210035,149.32361976905966L153.33332192614768,148.50103623962713L153.519616050195,147.67726606074848L153.70591017424232,146.85233861352532L153.8922042982896,146.0262835140067L154.07849842233693,145.199130611885L154.26479254638426,144.3709099891589L154.45108667043158,143.5416519587649L154.63738079447887,142.7113870631755L154.8236749185262,141.8801460729655L155.00996904257352,141.04795998534527L155.19626316662084,140.21486002266252L155.38255729066813,139.38087763087054L155.56885141471545,138.54604447796515L155.75514553876278,137.71039245238867L155.9414396628101,136.87395366140183L156.1277337868574,136.03676042942334L156.3140279109047,135.19884529633757L156.50032203495203,134.36024101576967L156.68661615899936,133.52098055332885L156.87291028304665,132.6810970848196L157.05920440709397,131.84062399442132L157.2454985311413,130.99959487283525L157.43179265518862,130.15804351540052L157.6180867792359,129.31600392017796L157.80438090328323,128.47351028600258L157.99067502733055,127.63059701050433L158.17696915137788,126.78729868809769L158.36326327542517,125.94365010793955L158.5495573994725,125.09968625185658L158.7358515235198,124.25544229224097L158.92214564756713,123.4109535899153L159.10843977161443,122.56625569196696L159.29473389566175,121.72138432955127L159.48102801970907,120.87637541566484L159.6673221437564,120.03126504288775L159.8536162678037,119.18608948109603L160.039910391851,118.34088517514384L160.22620451589833,117.49568874251577L160.41249863994565,116.65053697094928L160.59879276399295,115.8054668160276L160.78508688804027,114.96051539874334L160.9713810120876,114.11572000303262L161.1576751361349,113.27111807328028L161.3439692601822,112.42674721179638L161.53026338422953,111.58264517626377L161.71655750827685,110.73884987715726L161.90285163232417,109.89539937513472L162.08914575637147,109.05233187840005L162.2754398804188,108.20968574003808L162.4617340044661,107.36749945532235L162.64802812851343,106.52581165899517L162.83432225256072,105.68466112252074L163.02061637660805,104.84408675131111L163.20691050065537,104.00412758192576L163.3932046247027,103.16482277924479L163.57949874874998,102.3262116336158L163.7657928727973,101.48833355797487L163.95208699684463,100.65122808494212L164.13838112089195,99.81493486389176L164.32467524493924,98.9794936579971L164.51096936898657,98.14494434125083L164.6972634930339,97.31132689546058L164.8835576170812,96.47868140722066L165.0698517411285,95.64704806485926L165.25614586517582,94.81646715536269L165.44243998922315,93.98697906127593L165.62873411327047,93.15862425758014L165.81502823731776,92.3314433085475L166.00132236136508,91.50547686457391L166.1876164854124,90.68076565898915L166.37391060945973,89.85735050484605L166.56020473350702,89.03527229168725L166.74649885755434,88.21457198229173L166.93279298160166,87.3952906094004L167.119087105649,86.57746927242115L167.30538122969628,85.761149134114L167.4916753537436,84.9463714172564L167.67796947779092,84.1331774012897L167.86426360183825,83.32160841894598L168.05055772588554,82.51170585285685L168.23685184993286,81.70351113214393L168.42314597398018,80.89706572899131L168.6094400980275,80.09241115520044L168.7957342220748,79.28958895872867L168.98202834612212,78.48864072021023L169.16832247016944,77.68960804946138L169.35461659421676,76.89253258196983L169.54091071826406,76.09745597536819L169.72720484231138,75.30441990589244L169.9134989663587,74.51346606482633L170.09979309040602,73.72463615493066L170.28608721445332,72.93797188685926L170.47238133850064,72.1535149755612L170.65867546254796,71.37130713667034L170.84496958659528,70.59139008288201L171.03126371064258,69.8138055203176L171.2175578346899,69.03859514487749L171.40385195873722,68.26580063858268L171.59014608278454,67.49546366590533L171.77644020683184,66.72762587008934L171.96273433087916,65.96232886946063L172.14902845492645,65.19961425372796L172.3353225789738,64.43952358027467L172.5216167030211,63.682098370441985L172.70791082706842,62.92738010580391L172.8942049511157,62.17541022443447L173.08049907516306,61.42623011716809L173.26679319921035,60.67988112385249L173.45308732325768,59.936404529596054L173.63938144730497,59.19584156100862L173.82567557135232,58.45823338243772L174.0119696953996,57.723621092199096L174.19826381944694,56.99204571880341L174.38455794349423,56.26354821717877L174.57085206754158,55.53816946488972L174.75714619158887,54.81595025835356L174.9434403156362,54.09693130905385L175.1297344396835,53.381153239752145L175.31602856373084,52.66865658069793L175.50232268777813,51.95948176583809L175.68861681182545,51.25366912902509L175.87491093587275,50.551258900225626L176.0612050599201,49.85229120172985L176.2474991839674,49.15680604436088L176.4337933080147,48.46484332368654L176.620087432062,47.776442816232354L176.80638155610936,47.09164417569767L176.99267568015665,46.410486929174L177.17896980420397,45.73301047336742L177.36526392825127,45.05925407082447L177.55155805229862,44.38925684616277L177.7378521763459,43.72305778230664L177.92414630039323,43.06069571672768L178.11044042444053,42.40220933769202L178.29673454848788,41.7476371805135L178.48302867253517,41.097017623813855L178.66932279658246,40.450388885791014L178.85561692062979,39.80778902049407L179.0419110446771,39.16925591410831L179.22820516872443,38.53482728124805L179.41449929277172,37.90454066125931L179.60079341681904,37.278433414532806L179.78708754086637,36.65654271882701L179.9733816649137,36.038905565602484L180.15967578896098,35.42555875636744L180.3459699130083,34.81653889903576L180.53226403705563,34.2118824042972L180.71855816110295,33.61162548200056L180.90485228515024,33.015804137550674L181.09114640919756,32.42445416831927L181.27744053324489,31.83761116007009L181.4637346572922,31.25531048339958L181.6500287813395,30.67758729019261L181.83632290538682,30.104476510094457L182.02261702943414,29.53601284699928L182.20891115348147,28.972230775555353L182.39520527752876,28.41316453768803L182.58149940157608,27.858848139140868L182.7677935256234,27.3093153460347L182.95408764967073,26.764599681446043L183.14038177371802,26.224734422004847L183.32667589776534,25.68975259451217L183.51297002181266,25.15968697257831L183.69926414585998,24.634570073281626L183.88555826990728,24.114434153848975L184.0718523939546,23.599311208357708L184.25814651800192,23.089232964460372L184.44444064204924,22.584230880131518L184.63073476609654,22.08433614043861L184.81702889014386,21.58957965433578L185.00332301419118,21.099992051482296L185.1896171382385,20.615603679085616L185.3759112622858,20.136444598769152L185.56220538633312,19.66254458346597L185.74849951038044,19.19393311433807L185.93479363442776,18.730639377722735L186.12108775847506,18.272692262104705L186.30738188252238,17.82012035511691L186.4936760065697,17.372951940567837L186.67997013061702,16.931214995497545L186.86626425466432,16.494937187262703L187.05255837871164,16.064145870649583L187.23885250275896,15.638868085017599L187.42514662680628,15.219130551472016L187.61144075085357,14.804959670067175L187.7977348749009,14.396381517040446L187.98402899894822,13.993421842077147L188.17032312299554,13.596106065607072L188.35661724704283,13.204459276132763L188.54291137109016,12.818506227590287L188.72920549513748,12.438271336742424L188.9154996191848,12.06377868060512L189.1017937432321,11.695051993907224L189.28808786727942,11.332114666584292L189.47438199132674,10.974989741306096L189.66067611537406,10.623699911039342L189.84697023942135,10.278267516644423L190.03326436346867,9.938714544508487L190.219558487516,9.60506262421329L190.40585261156332,9.277333026239143L190.5921467356106,8.955546659705682L190.77844085965793,8.639724070148546L190.96473498370526,8.32988543733373L191.15102910775258,8.02605057310849L191.33732323179987,7.7282389192906535L191.5236173558472,7.436469545595125L191.70991147989452,7.150761147599194L191.89620560394184,6.871132044746153L192.08249972798913,6.597600178387541L192.26879385203645,6.330183109865073L192.45508797608377,6.068898018631341L192.6413821001311,5.813761700410791L192.8276762241784,5.56479056540039L193.0139703482257,5.322000636510371L193.20026447227303,5.085407547646003L193.38655859632036,4.855026542029572L193.57285272036765,4.630872470563785L193.75914684441497,4.412959790236282L193.9454409684623,4.201302562565578L194.13173509250962,3.995914452089111L194.3180292165569,3.7968087248924753L194.50432334060423,3.603998247181972L194.69061746465155,3.4174954838985805L194.87691158869887,3.237312497374867L195.06320571274617,3.0634609460351236L195.2494998367935,2.8959520831378094L195.4357939608408,2.734796755561686L195.62208808488813,2.5800054026353214L195.8083822089354,2.4315880550097924L195.99467633298275,2.2895543335756163L196.18097045703,2.1539134484231504L196.3672645810774,2.0246741978473204L196.55355870512466,1.901844967396349L196.739852829172,1.7854337289653466L196.92614695321927,1.6754480399335026L197.11244107726665,1.5718950423465383L197.29873520131392,1.4747814621439925L197.48502932536127,1.3841136084308037L197.67132344940853,1.2998973727943564L197.8576175734559,1.2221382286664584L198.04391169750318,1.150841230730315L198.23020582155053,1.0860110143730006L198.4164999455978,1.0276517951831932L198.60279406964517,0.9757673684943069L198.78908819369244,0.9303611089730213L198.9753823177398,0.8914359702535402L199.16167644178705,0.8589944846174813L199.34797056583443,0.833038762719096L199.5342646898817,0.8135704933564858L199.72055881392905,0.8005909432885483L199.9068529379763,0.7941009570975543L200.09314706202366,0.7941009570975543L200.27944118607098,0.8005909432885483L200.46573531011828,0.8135704933564858L200.6520294341656,0.833038762719096L200.83832355821292,0.8589944846174813L201.02461768226024,0.8914359702535402L201.21091180630754,0.9303611089730213L201.39720593035486,0.9757673684943069L201.58350005440218,1.0276517951831932L201.7697941784495,1.0860110143730006L201.9560883024968,1.150841230730315L202.14238242654412,1.2221382286664584L202.32867655059144,1.2998973727943564L202.51497067463876,1.3841136084308037L202.70126479868605,1.4747814621439925L202.88755892273338,1.5718950423465383L203.0738530467807,1.6754480399335026L203.26014717082802,1.7854337289653466L203.4464412948753,1.901844967396349L203.63273541892264,2.0246741978473204L203.81902954296996,2.1539134484231504L204.00532366701728,2.2895543335756163L204.19161779106457,2.4315880550097924L204.3779119151119,2.5800054026353214L204.56420603915922,2.734796755561686L204.75050016320654,2.8959520831378094L204.93679428725383,3.063460946035157L205.12308841130115,3.237312497374867L205.30938253534848,3.4174954838985805L205.4956766593958,3.6039982471820053L205.6819707834431,3.7968087248924753L205.8682649074904,3.995914452089111L206.05455903153774,4.201302562565646L206.24085315558506,4.4129597902363145L206.42714727963235,4.630872470563818L206.61344140367967,4.855026542029606L206.799735527727,5.085407547646037L206.98602965177432,5.3220006365104044L207.1723237758216,5.56479056540039L207.35861789986893,5.813761700410824L207.54491202391625,6.068898018631341L207.73120614796358,6.330183109865073L207.91750027201087,6.597600178387575L208.1037943960582,6.871132044746153L208.2900885201055,7.150761147599227L208.47638264415284,7.436469545595159L208.66267676820013,7.7282389192906535L208.84897089224745,8.026050573108524L209.03526501629477,8.329885437333761L209.2215591403421,8.639724070148546L209.4078532643894,8.955546659705682L209.5941473884367,9.277333026239143L209.78044151248403,9.60506262421329L209.96673563653135,9.938714544508487L210.15302976057865,10.278267516644423L210.33932388462597,10.623699911039342L210.5256180086733,10.974989741306096L210.7119121327206,11.332114666584292L210.8982062567679,11.695051993907224L211.08450038081523,12.06377868060512L211.27079450486255,12.438271336742424L211.45708862890987,12.818506227590287L211.64338275295717,13.204459276132763L211.8296768770045,13.596106065607072L212.0159710010518,13.993421842077147L212.20226512509913,14.396381517040446L212.38855924914643,14.804959670067175L212.57485337319375,15.219130551472016L212.76114749724107,15.638868085017599L212.9474416212884,16.064145870649583L213.13373574533568,16.494937187262703L213.320029869383,16.931214995497545L213.50632399343033,17.372951940567837L213.69261811747765,17.82012035511691L213.87891224152494,18.272692262104705L214.06520636557227,18.730639377722735L214.2515004896196,19.19393311433807L214.4377946136669,19.66254458346597L214.6240887377142,20.136444598769152L214.81038286176152,20.615603679085616L214.99667698580885,21.09999205148233L215.18297110985617,21.58957965433578L215.36926523390346,22.084336140438644L215.55555935795078,22.584230880131518L215.7418534819981,23.089232964460372L215.92814760604543,23.599311208357744L216.11444173009272,24.114434153849007L216.30073585414004,24.634570073281658L216.48702997818737,25.15968697257831L216.6733241022347,25.689752594512207L216.85961822628198,26.22473442200488L217.0459123503293,26.76459968144608L217.23220647437662,27.309315346034737L217.41850059842395,27.858848139140868L217.60479472247124,28.41316453768806L217.79108884651856,28.972230775555353L217.97738297056588,29.53601284699928L218.1636770946132,30.104476510094493L218.3499712186605,30.67758729019261L218.53626534270782,31.25531048339958L218.72255946675514,31.83761116007009L218.90885359080247,32.42445416831927L219.09514771484976,33.01580413755071L219.28144183889708,33.61162548200056L219.4677359629444,34.211882404297235L219.65403008699172,34.8165388990358L219.84032421103902,35.42555875636744L220.02661833508634,36.03890556560252L220.21291245913366,36.65654271882705L220.39920658318098,37.278433414532806L220.58550070722828,37.90454066125935L220.7717948312756,38.534827281248084L220.95808895532292,39.16925591410838L221.14438307937024,39.8077890204941L221.33067720341754,40.450388885791014L221.51697132746486,41.09701762381396L221.70326545151218,41.74763718051353L221.8895595755595,42.402209337692085L222.0758536996068,43.06069571672775L222.26214782365412,43.723057782306704L222.44844194770144,44.38925684616287L222.63473607174876,45.05925407082454L222.82103019579603,45.73301047336742L223.00732431984338,46.410486929174L223.19361844389064,47.09164417569767L223.37991256793802,47.776442816232354L223.5662066919853,48.46484332368654L223.75250081603264,49.15680604436088L223.9387949400799,49.85229120172985L224.12508906412728,50.551258900225626L224.31138318817455,51.25366912902509L224.4976773122219,51.95948176583809L224.68397143626916,52.66865658069793L224.87026556031654,53.381153239752145L225.0565596843638,54.09693130905385L225.24285380841116,54.81595025835356L225.42914793245842,55.53816946488972L225.6154420565058,56.26354821717877L225.80173618055306,56.99204571880341L225.98803030460041,57.723621092199096L226.17432442864768,58.45823338243772L226.36061855269506,59.19584156100862L226.54691267674232,59.936404529596054L226.73320680078967,60.67988112385249L226.91950092483694,61.42623011716809L227.10579504888432,62.17541022443447L227.29208917293158,62.92738010580391L227.47838329697893,63.682098370441985L227.6646774210262,64.43952358027467L227.85097154507358,65.19961425372796L228.03726566912084,65.96232886946063L228.2235597931682,66.72762587008934L228.40985391721546,67.49546366590533L228.59614804126284,68.2658006385827L228.7824421653101,69.03859514487756L228.96873628935745,69.81380552031764L229.15503041340472,70.59139008288201L229.3413245374521,71.37130713667037L229.52761866149936,72.1535149755612L229.7139127855467,72.93797188685926L229.90020690959398,73.7246361549307L230.08650103364135,74.51346606482637L230.27279515768862,75.30441990589249L230.45908928173597,76.09745597536819L230.64538340578324,76.8925325819699L230.8316775298306,77.68960804946141L231.01797165387788,78.48864072021023L231.20426577792523,79.28958895872867L231.3905599019725,80.09241115520047L231.57685402601987,80.89706572899131L231.76314815006714,81.70351113214403L231.9494422741145,82.51170585285695L232.13573639816175,83.32160841894598L232.32203052220913,84.13317740128974L232.5083246462564,84.94637141725643L232.69461877030375,85.761149134114L232.880912894351,86.5774692724212L233.0672070183984,87.39529060940045L233.25350114244566,88.21457198229177L233.439795266493,89.03527229168725L233.62608939054027,89.8573505048461L233.81238351458765,90.68076565898924L233.99867763863492,91.50547686457394L234.18497176268227,92.33144330854753L234.37126588672953,93.15862425758019L234.5575600107769,93.98697906127603L234.74385413482418,94.81646715536274L234.93014825887153,95.64704806485929L235.1164423829188,96.47868140722073L235.30273650696617,97.31132689546068L235.48903063101343,98.1449443412509L235.67532475506079,98.97949365799717L235.86161887910805,99.81493486389182L236.04791300315543,100.65122808494218L236.2342071272027,101.48833355797491L236.42050125125002,102.3262116336158L236.6067953752973,103.16482277924479L236.79308949934463,104.00412758192576L236.97938362339195,104.84408675131111L237.16567774743928,105.68466112252074L237.35197187148657,106.52581165899517L237.5382659955339,107.36749945532235L237.7245601195812,108.20968574003808L237.91085424362853,109.05233187840005L238.09714836767583,109.89539937513472L238.28344249172315,110.73884987715726L238.46973661577047,111.58264517626377L238.6560307398178,112.42674721179638L238.8423248638651,113.27111807328028L239.0286189879124,114.11572000303262L239.21491311195973,114.96051539874334L239.40120723600705,115.8054668160276L239.58750136005435,116.65053697094928L239.77379548410167,117.49568874251577L239.960089608149,118.34088517514384L240.1463837321963,119.18608948109603L240.3326778562436,120.03126504288775L240.51897198029093,120.87637541566484L240.70526610433825,121.72138432955127L240.89156022838557,122.56625569196696L241.07785435243287,123.4109535899153L241.2641484764802,124.25544229224097L241.4504426005275,125.09968625185658L241.63673672457483,125.94365010793955L241.82303084862212,126.78729868809769L242.00932497266945,127.6305970105044L242.19561909671677,128.47351028600264L242.3819132207641,129.316003920178L242.56820734481138,130.15804351540055L242.7545014688587,130.99959487283527L242.94079559290603,131.84062399442138L243.12708971695335,132.68109708481967L243.31338384100064,133.52098055332885L243.49967796504797,134.36024101576973L243.6859720890953,135.19884529633765L243.8722662131426,136.03676042942337L244.0585603371899,136.87395366140186L244.24485446123722,137.7103924523887L244.43114858528455,138.5460444779652L244.61744270933187,139.3808776308706L244.80373683337916,140.21486002266255L244.99003095742648,141.04795998534536L245.1763250814738,141.88014607296552L245.36261920552113,142.71138706317555L245.54891332956842,143.5416519587649L245.73520745361574,144.37090998915895L245.92150157766307,145.19913061188504L246.1077957017104,146.02628351400682L246.29408982575768,146.85233861352535L246.480383949805,147.6772660607485L246.66667807385232,148.50103623962718L246.85297219789965,149.32361976905975L247.03926632194694,150.14498750416345L247.22556044599426,150.9651105375139L247.41185457004158,151.7839602003517L247.5981486940889,152.60150806375685L247.7844428181362,153.41772593979098L247.97073694218352,154.2325858826067L248.15703106623084,155.04606018952532L248.34332519027816,155.85812140208154L248.52961931432546,156.6687423070366L248.71591343837278,157.47789593735894L248.9022075624201,158.2855555731726L249.08850168646742,159.09169474267358L249.27479581051472,159.89628722301472L249.46108993456204,160.6993070411577L249.64738405860936,161.50072847469397L249.83367818265668,162.30052605263353L250.01997230670398,163.098674556162L250.20626643075127,163.89514901936616L250.39256055479862,164.6899247299278L250.5788546788459,165.4829772297864L250.76514880289324,166.27428231576988L250.9514429269405,167.0638160401949L251.13773705098788,167.85155471143523L251.32403117503515,168.63747489445976L251.5103252990825,169.4215534113389L251.6966194231298,170.20376734172086L251.88291354717714,170.98409402327673L252.0692076712244,171.76251105211517L252.25550179527175,172.53899628316674L252.44179591931902,173.31352783053785L252.6280900433664,174.08608406783455L252.81438416741366,174.85664362845637L253.000678291461,175.62518540586007L253.1869724155083,176.39168855379407L253.37326653955566,177.1561324865027L253.55956066360292,177.91849687890172L253.74585478765027,178.67876166672406L253.93214891169754,179.43690704663652L254.11844303574492,180.19291347632793L254.30473715979218,180.9467616745679L254.49103128383953,181.6984326212377L254.67732540788683,182.447907557332L254.86361953193418,183.19516798493288L255.04991365598144,183.94019566715556L255.2362077800288,184.68297262806647L255.42250190407606,185.42348115257323L255.60879602812344,186.1617037862874L255.7950901521707,186.8976233353601L255.98138427621805,187.63122286629016L256.16767840026534,188.36248570570547L256.35397252431267,189.09139544011788L256.54026664836,189.81793591565113L256.7265607724073,190.54209123774305L256.9128548964546,191.26384577082112L257.09914902050195,191.9831841379527L257.2854431445492,192.70009122046895L257.4717372685966,193.41455215756412L257.65803139264386,194.12655234586893L257.8443255166912,194.83607743899933L258.03061964073845,195.54311334708038L258.21691376478583,196.2476462362456L258.4032078888331,196.94966252811193L258.5895020128805,197.64914889923082L258.77579613692774,198.34609228051528L258.9620902609751,199.0404798566435L259.1483843850224,199.73229906543864L259.3346785090697,200.42153759722635L259.520972633117,201.10818339416838L259.70726675716435,201.7922246495744L259.8935608812116,202.47364980719075L260.079855005259,203.15244756046778L260.26614912930626,203.82860685180427L260.45244325335364,204.5021168717712L260.6387373774009,205.1729670583137L260.8250315014482,205.8411470959313L261.0113256254955,206.50664691483837L261.19761974954287,207.1694566901033L261.38391387359013,207.82956684076683L261.5702079976375,208.48696802894142L261.7565021216848,209.14165115888963L261.94279624573215,209.7936073760836L262.1290903697794,210.4428280662448L262.31538449382674,211.0893048543649L262.50167861787406,211.73302960370788L262.6879727419214,212.37399441479315L262.87426686596865,213.01219162436104L263.06056099001603,213.64761380431975L263.2468551140633,214.28025376067458L263.4331492381107,214.91010453244024L263.61944336215794,215.53715939053495L263.80573748620526,216.16141183665863L263.9920316102525,216.78285560215377L264.17832573429985,217.40148464685L264.36461985834717,218.01729315789248L264.5509139823945,218.63027554855486L264.7372081064418,219.24042645703605L264.92350223048913,219.84774074524202L265.10979635453646,220.4522134975525L265.2960904785838,221.05384001957265L265.4823846026311,221.6526158368708L265.66867872667837,222.24853669370137L265.8549728507257,222.8415985517141L266.041266974773,223.43179758864957L266.22756109882033,224.01913019702135L266.41385522286765,224.60359298278502L266.600149346915,225.18518276399396L266.7864434709623,225.76389656944335L266.97273759500956,226.33973163730099L267.1590317190569,226.91268541372668L267.3453258431042,227.48275555147933L267.5316199671515,228.04993990851307L267.71791409119885,228.61423654656184L267.9042082152462,229.17564372971307L268.0905023392935,229.73415992297058L268.2767964633408,230.28978379080726L268.46309058738814,230.8425141957075L268.6493847114354,231.3923501966997L268.8356788354827,231.93929104787918L269.02197295953005,232.48333619692184L269.20826708357737,233.0244852835886L269.3945612076247,233.5627381382212L269.580855331672,234.09809478022922L269.76714945571933,234.63055541656914L269.9534435797666,235.16012044021502L270.1397377038139,235.68679042862175L270.32603182786124,236.21056614218057L270.51232595190857,236.73144852266742L270.6986200759559,237.24943869168456L270.8849142000032,237.76453794909494L271.07120832405053,238.2767477714508L271.25750244809785,238.78606981041543L271.4437965721452,239.29250589117942L271.63009069619244,239.79605801087095L271.81638482023976,240.29672833696097L272.0026789442871,240.7945192056627L272.1889730683344,241.28943312032683L272.3752671923817,241.7814727498314L272.56156131642905,242.2706409269677L272.74785544047637,242.75694064682165L272.93414956452364,243.24037506515165L273.12044368857096,243.72094749676225L273.3067378126183,244.19866141387467L273.4930319366656,244.67352044449402L273.6793260607129,245.14552837077352L273.86562018476025,245.61468912737595L274.05191430880757,246.08100679983272L274.2382084328549,246.54448562290048L274.4245025569022,247.00512997891587L274.6107966809495,247.46294439614823L274.7970908049968,247.91793354715105L274.9833849290441,248.37010224711176L275.16967905309144,248.81945545220054L275.35597317713876,249.26599825791823L275.5422673011861,249.7097358974435L275.7285614252334,250.1506737399795L275.9148555492807,250.58881728910052L276.101149673328,251.02417218109835L276.2874437973753,251.45674418332888L276.47373792142264,251.8865391925592L276.66003204546996,252.31356323331525L276.8463261695173,252.73782245623016L277.0326202935646,253.15932313639402L277.2189144176119,253.57807167170427L277.40520854165925,253.9940745812181L277.5915026657065,254.40733850350603L277.77779678975384,254.81787019500774L277.96409091380116,255.22567652838956L278.1503850378485,255.63076449090434L278.3366791618958,256.0331411827538L278.5229732859431,256.4328138154533L278.70926740999045,256.8297897101997L278.8955615340377,257.2240762962419L279.08185565808503,257.6156811092545L279.26814978213235,258.0046117897153L279.4544439061797,258.3908760812858L279.640738030227,258.7744818291955L279.8270321542743,259.15543697863046L280.01332627832164,259.5337495731253L280.19962040236896,259.9094277529599L280.3859145264163,260.2824797535604L280.57220865046355,260.65291390390456L280.7585027745109,261.020738624932L280.9447968985582,261.38596242795944L281.1310910226055,261.7485939131005L281.31738514665284,262.10864176769144L281.50367927070016,262.4661147647216L281.6899733947475,262.8210217612698L281.87626751879475,263.1733716969459L282.06256164284207,263.52317359233865L282.2488557668894,263.8704365474696L282.4351498909367,264.21516974025207L282.62144401498404,264.557382424958L282.80773813903136,264.89708393068975L282.9940322630787,265.234283659859L283.180326387126,265.5689910866723L283.3666205111733,265.90121575562364L283.5529146352206,266.2309672799932L283.7392087592679,266.55825534035387L283.92550288331523,266.88308968308456L284.1117970073625,267.20548011889093L284.2980911314098,267.5254365213338L284.48438525545714,267.8429688253641L284.67067937950446,268.15808702586673L284.8569735035518,268.4708011762114L285.0432676275991,268.7811213868117L285.2295617516464,269.0890578236918L285.4158558756937,269.3946207070614L285.602149999741,269.6978203098992L285.78844412378834,269.9986669565441L285.97473824783566,270.2971710212953L286.161032371883,270.59334292702033L286.3473264959303,270.8871931437723L286.5336206199776,271.1787321874156L286.7199147440249,271.46797061826L286.9062088680722,271.754919039704L287.09250299211953,272.0395880968875L287.27879711616686,272.3219884753524L287.4650912402142,272.60213089971325L287.6513853642615,272.88002613233726L287.8376794883088,273.15568497203253L288.02397361235614,273.42911825274643L288.2102677364034,273.70033684227354L288.39656186045073,273.9693516409725L288.58285598449805,274.2361735804926L288.7691501085454,274.50081362251063L288.9554442325927,274.76328275747636L289.14173835664,275.0235920033685L289.32803248068734,275.2817524044607L289.51432660473466,275.5377750300963L289.7006207287819,275.7916709734747L289.88691485282925,276.043451350446L290.0732089768766,276.29312729831673L290.2595031009239,276.5407099746658L290.4457972249712,276.7862105561696L290.63209134901854,277.02964023743834L290.81838547306586,277.2710102298622L291.0046795971132,277.5103317604674L291.19097372116045,277.74761607078335L291.37726784520777,277.9828744157195L291.5635619692551,278.2161180624528L291.7498560933024,278.4473582893259L291.93615021734973,278.6766063847552L292.12244434139706,278.9038736461499L292.3087384654444,279.1291713788413L292.4950325894917,279.35251089502276L292.68132671353897,279.5739035127002L292.8676208375863,279.79336055465313L293.0539149616336,280.01089334740647" stroke="lightgrey" stroke-width="2"></path></g><g class="mark-line role-mark layer_1_marks" role="graphics-symbol" aria-roledescription="line mark container"><path d="M3.845557895734401,296.1499191226361L4.238259481528743,296.12393237696995L4.6309610673230495,296.0977283486644L5.023662653117391,296.07130489167963L5.416364238911697,296.04465983577103L5.809065824706039,296.01779098618584L6.201767410500345,295.9906961233555L6.594468996294686,295.9633730025837L6.987170582088993,295.93581935373027L7.3798721678833346,295.9080328808908L7.772573753677641,295.880011262072L8.165275339471982,295.85175214886226L8.557976925266324,295.8232531660979L8.95067851106063,295.79451191152503L9.343380096854972,295.7655259554565L9.736081682649278,295.73629284042437L10.12878326844362,295.7068100808272L10.521484854237926,295.67707516257326L10.914186440032267,295.64708554271795L11.306888025826574,295.6168386490969L11.699589611620915,295.58633187995366L12.092291197415221,295.5555626035625L12.484992783209563,295.52452815784574L12.877694369003907,295.4932258499861L13.27039595479821,295.4616529560334L13.663097540592553,295.42980672050624L14.055799126386859,295.39768435598756L14.4485007121812,295.3652830427153L14.841202297975506,295.3325999281668L15.233903883769848,295.29963212663796L15.626605469564153,295.26637671881605L16.019307055358496,295.23283075134714L16.412008641152802,295.1989912363969L16.804710226947144,295.16485515120615L17.19741181274145,295.1304194376392L17.59011339853579,295.0956810017268L17.982814984330133,295.0606367132022L18.37551657012444,295.02528340503113L18.76821815591878,294.98961787293484L19.160919741713087,294.95363687490686L19.55362132750743,294.9173371307228L19.946322913301735,294.88071532144323L20.339024499096077,294.84376808890994L20.731726084890383,294.806492035235L21.124427670684724,294.7688837222826L21.517129256479066,294.73093967114374L21.909830842273372,294.6926563616034L22.302532428067714,294.65403023160053L22.69523401386202,294.6150576766806L23.08793559965636,294.5757350494397L23.480637185450668,294.53605865896185L23.87333877124501,294.49602477024763L24.266040357039316,294.45562960363543L24.658741942833657,294.41486933421396L25.051443528627964,294.3737400912269L25.444145114422305,294.3322379574694L25.836846700216608,294.29035896867526L26.22954828601095,294.24809911289657L26.62224987180529,294.2054543298737L27.0149514575996,294.16242051039717L27.407653043393942,294.11899349566L27.800354629188252,294.07516907660096L28.193056214982594,294.03094299323914L28.585757800776896,293.9863109339986L28.978459386571238,293.9412685350235L29.371160972365544,293.8958113794838L29.763862558159886,293.8499349968714L30.156564143954228,293.8036348622858L30.54926572974853,293.7569063957097L30.941967315542872,293.70974496127513L31.33466890133718,293.66214586651853L31.727370487131523,293.6141043616253L32.12007207292583,293.5656156386641L32.51277365872017,293.51667483081013L32.90547524451448,293.4672770115572L33.29817683030882,293.41741719391933L33.690878416103125,293.36709032962017L34.08358000189747,293.3162913082717L34.47628158769177,293.265014956541L34.868983173486114,293.21325603730554L35.261684759280456,293.16100924879584L35.65438634507476,293.10826922372695L36.047087930869104,293.0550305284168L36.43978951666341,293.0012876618929L36.83249110245775,292.94703505498546L37.22519268825206,292.8922670694088L37.6178942740464,292.8369779968287L38.010595859840706,292.7811620579175L38.40329744563505,292.7248134013952L38.79599903142939,292.66792610305714L39.188700617223695,292.6104941647883L39.58140220301804,292.5525115135634L39.97410378881234,292.49397200043273L40.36680537460667,292.434869399494L40.75950696040099,292.37519740684957L41.15220854619533,292.3149496395487L41.54491013198964,292.2541196345154L41.93761171778398,292.1927008474607L42.33031330357831,292.1306866517798L42.72301488937263,292.0680703374336L43.115716475166955,292.0048451098146L43.508418060961276,291.9410040885966L43.901119646755596,291.87654030656876L44.293821232549924,291.81144670845225L44.686522818344265,291.74571614970137L45.07922440413857,291.6793413952871L45.47192598993291,291.6123151184641L45.86462757572722,291.5446298995196L46.25732916152156,291.47627822450573L46.65003074731588,291.40725248395336L47.04273233311021,291.33754497156826L47.435433918904536,291.26714788290894L47.82813550469886,291.1960533140458L48.22083709049318,291.1242532602021L48.613538676287504,291.05173961437515L49.006240262081846,290.978504165939L49.39894184787615,290.90453859922735L49.791643433670494,290.82983449209655L50.18434501946481,290.75438331446895L50.57704660525915,290.6781764268558L50.96974819105347,290.6012050788599L51.36244977684778,290.52346040765696L51.75515136264212,290.4449334364564L52.14785294843644,290.3656150729411L52.540554534230765,290.28549610768465L52.933256120025085,290.2045672125477L53.32595770581943,290.12281893905197L53.71865929161373,290.0402417167314L54.111360877408075,289.95682585146125L54.50406246320239,289.8725615237644L54.89676404899673,289.7874387870935L55.28946563479104,289.70144756609085L55.68216722058536,289.6145776548235L56.0748688063797,289.5268187149951L56.46757039217402,289.4381602741329L56.860271977968345,289.3485917237503L57.252973563762666,289.2581023174847L57.64567514955701,289.16668116920994L58.038376735351314,289.07431725112315L58.431078321145655,288.9809993918063L58.82377990693997,288.8867162742612L59.21648149273431,288.7914564339186L59.60918307852863,288.69520825662045L60.001884664322944,288.59795997657494L60.39458625011728,288.49969967428524L60.7872878359116,288.40041527444953L61.179989421705926,288.3000945438342L61.57269100750025,288.1987250891186L61.96539259329459,288.0962943547117L62.358094179088894,287.99278962053927L62.750795764883236,287.88819799980325L63.14349735067755,287.78250643671123L63.53619893647189,287.67570170417633L63.92890052226618,287.5677704014879L64.32160210806053,287.4586989519512L64.71430369385486,287.34847360049775L65.10700527964917,287.2370804112644L65.49970686544351,287.1245052651416L65.89240845123783,287.01073385729046L66.28511003703217,286.89575169462864L66.67781162282648,286.7795440932844L67.07051320862082,286.6620961760183L67.46321479441512,286.54339286961317L67.85591638020946,286.4234189022315L68.24861796600376,286.30215880073996L68.6413195517981,286.1795968880008L69.03402113759243,286.0557172801306L69.42672272338676,285.93050388372495L69.81942430918109,285.80394039305014L70.2121258949754,285.67601028720014L70.60482748076976,285.5466968272203L70.99752906656406,285.41598305319616L71.3902306523584,285.2838517813085L71.78293223815271,285.15028560085284L72.17563382394705,285.01526687122475L72.56833540974135,284.8787777188701L72.9610369955357,284.74080003419976L73.35373858133002,284.60131546846964L73.74644016712433,284.4603054306248L74.13914175291868,284.3177510841083L74.53184333871299,284.17363334363426L74.92454492450733,284.0279328719253L75.31724651030164,283.8806300764144L75.70994809609599,283.73170510591024L76.10264968189028,283.5811378472276L76.49535126768463,283.4289079217811L76.88805285347892,283.2749946821433L77.28075443927327,283.11937720856696L77.6734560250676,282.9620343054712L78.06615761086192,282.8029444978923L78.45885919665625,282.64208602789836L78.85156078245058,282.47943685096817L79.24426236824489,282.31497463233546L79.63696395403922,282.1486767432967L80.02966553983356,281.9805202574845L80.42236712562787,281.81048194710576L80.81506871142221,281.638538279145L81.20777029721651,281.4646654115335L81.60047188301085,281.288839189284L81.99317346880518,281.1110351405918L82.3858750545995,280.9312284729022L82.77857664039384,280.749394068945L83.17127822618815,280.5655064827362L83.56397981198246,280.37953993554794L83.9566813977768,280.19146831184617L84.34938298357112,280.001265155198L84.74208456936546,279.80890366414803L85.13478615515979,279.6143566880651L85.52748774095411,279.41759672295984L85.92018932674843,279.21859590727416L86.31289091254276,279.0173260176427L86.70559249833708,278.813758464628L87.09829408413141,278.6078642884297L87.49099566992572,278.39961415456906L87.88369725572005,278.18897834954964L88.27639884151438,277.9759267764952L88.6691004273087,277.76042895076637L89.06180201310303,277.54245399555697L89.45450359889738,277.32197063747094L89.84720518469169,277.0989472020824L90.23990677048602,276.87335160947913L90.63260835628034,276.6451513697913L91.02530994207466,276.4143135787076L91.418011527869,276.18080491298L91.81071311366331,275.9445916259188L92.20341469945762,275.7056395428801L92.59611628525197,275.46391405674774L92.98881787104628,275.2193801234118L93.3815194568406,274.9720022572453L93.77422104263495,274.7217445265822L94.16692262842928,274.46857054919826L94.55962421422359,274.2124434877981L94.95232580001792,273.95332604551027L95.34502738581224,273.69118046139386L95.73772897160657,273.42596850595856L96.1304305574009,273.1576514767024L96.52313214319521,272.886190193669L96.91583372898954,272.6115449950285L97.30853531478387,272.3336757326853L97.7012369005782,272.0525417679162L98.09393848637254,271.768101967042L98.48664007216685,271.4803146971385L98.87934165796118,271.1891378217874L99.2720432437555,270.8945286968754L99.66474482954982,270.59644416644227L100.05744641534416,270.2948405585847L100.45014800113847,269.98967368142047L100.84284958693279,269.6808988191157L101.23555117272711,269.368470727984L101.62825275852146,269.0523436326593L102.02095434431577,268.7324712223498L102.41365593011011,268.4088066471786L102.80635751590444,268.08130251461677L103.19905910169875,267.74991088601416L103.59176068749308,267.4145832732365L103.98446227328742,267.075270635413L104.37716385908173,266.7319233758036L104.76986544487605,266.38449133879084L105.16256703067037,266.03292380700594L105.55526861646469,265.67716949859494L105.94797020225903,265.3171765646343L106.34067178805336,264.9528925867032L106.7333733738477,264.58426457462144L107.12607495964201,264.21123896436245L107.51877654543634,263.83376161614893L107.91147813123065,263.45177781274236L108.304179717025,263.06523225793524L108.69688130281932,262.67406907525606L109.08958288861363,262.2782318068982L109.48228447440795,261.8776634128826L109.87498606020227,261.4723062704664L110.26768764599662,261.06210217380794L110.66038923179093,260.64699233390127L111.05309081758527,260.2269173787915L111.4457924033796,259.80181735408354L111.83849398917391,259.3716317237588L112.23119557496824,258.93629937131124L112.62389716076258,258.49575860121814L113.0165987465569,258.04994714075957L113.40930033235122,257.5988021422007L113.80200191814554,257.1422601853532L114.19470350393985,256.68025728053044L114.58740508973419,256.21272887191304L114.98010667552852,255.73960984134138L115.37280826132286,255.26083451255164L115.76550984711717,254.77633665587356L116.1582114329115,254.28604949340757L116.55091301870581,253.7899057046996L116.94361460450015,253.2878374329326L117.33631619029448,252.77977629165557L117.7290177760888,252.26565337206748L118.12171936188311,251.7453992508796L118.51442094767744,251.21894399877516L118.90712253347178,250.68621718948907L119.29982411926609,250.14714790952948L119.69252570506043,249.6016647685641L120.08522729085476,249.0496959104945L120.47792887664907,248.49116902524167L120.8706304624434,247.9260113612685L121.26333204823774,247.35414973886253L121.65603363403206,246.7755105642058L122.04873521982637,246.190019844257L122.4414368056207,245.59760320247307L122.83413839141501,244.99818589539717L123.22683997720935,244.39169283014039L123.61954156300368,243.77804858278682L124.01224314879799,243.15717741774878L124.40494473459233,242.5290033081036L124.79764632038666,241.89344995694074L125.19034790618097,241.25044081974977L125.58304949197532,240.5998991278807L125.97575107776964,239.94174791310775L126.36845266356396,239.2759100333286L126.76115424935827,238.6023081994321L127.1538558351526,237.92086500336643L127.54655742094694,237.2315029474419L127.93925900674125,236.5341444749024L128.33196059253558,235.82871200179883L128.7246621783299,235.11512795020016L129.11736376412424,234.39331478277646L129.51006534991856,233.6631950387897L129.9027669357129,232.92469137152764L130.29546852150722,232.1777265872173L130.68817010730154,231.42222368545316L131.08087169309584,230.65810590117783L131.47357327889017,229.8852967482506L131.86627486468453,229.1037200646413L132.25897645047883,228.3133000592854L132.65167803627315,227.51396136063815L133.0443796220675,226.70562906696344L133.4370812078618,225.88822879839506L133.82978279365614,225.06168675080508L134.2224843794505,224.22592975151844L134.6151859652448,223.38088531690613L135.00788755103912,222.52648171189625L135.40058913683345,221.6626480114349L135.79329072262775,220.78931416393385L136.1859923084221,219.9064110567377L136.57869389421643,219.01387058364435L136.97139548001073,218.11162571451158L137.36409706580508,217.19961056698068L137.7567986515994,216.27776048034883L138.1495002373937,215.34601209161843L138.54220182318807,214.4043034137532L138.9349034089824,213.4525739161671L139.3276049947767,212.49076460747185L139.72030658057102,211.5188181205071L140.11300816636535,210.53667879967531L140.50570975215967,209.54429279060216L140.898411337954,208.54160813214014L141.29111292374833,207.52857485073187L141.68381450954266,206.50514505714705L142.07651609533698,205.47127304560428L142.4692176811313,204.42691539528676L142.86191926692564,203.37203107425663L143.25462085271997,202.30658154577276L143.64732243851427,201.23053087700944L144.0400240243086,200.14384585017427L144.43272561010292,199.0464960760161L144.82542719589725,197.93845410971346L145.21812878169158,196.81969556912756L145.6108303674859,195.69019925540042L146.00353195328023,194.54994727587535L146.39623353907456,193.39892516931044L146.78893512486889,192.23712203335253L147.1816367106632,191.06453065423307L147.57433829645754,189.88114763864246L147.96703988225187,188.68697354773394L148.35974146804617,187.4820130332018L148.7524430538405,186.2662749753729L149.14514463963485,185.0397726232455L149.53784622542915,183.8025237363999L149.93054781122348,182.55455072870262L150.32324939701783,181.29588081371517L150.71595098281213,180.0265461517143L151.10865256860646,178.74658399822053L151.50135415440081,177.45603685392646L151.8940557401951,176.15495261590735L152.28675732598944,174.8433847299876L152.67945891178377,173.5213923441308L153.07216049757807,172.18904046270913L153.46486208337242,170.846400101503L153.85756366916675,169.49354844326984L154.25026525496105,168.13056899371276L154.64296684075538,166.75755173767195L155.03566842654973,165.37459329535017L155.42837001234403,163.9817970783751L155.8210715981384,162.5792734454922L156.21377318393272,161.16713985767072L156.60647476972701,159.7455210323969L156.99917635552134,158.31454909691715L157.39187794131567,156.87436374018515L157.78457952711,155.42511236325646L158.17728111290432,153.9669502278636L158.56998269869865,152.5000406028956L158.96268428449295,151.02455490849508L159.3553858702873,149.54067285747715L159.74808745608163,148.04858259376428L160.14078904187596,146.5484808275204L160.53349062767026,145.04057296666076L160.92619221346462,143.5250732444034L161.31889379925894,142.00220484251824L161.71159538505324,140.47220000992309L162.10429697084757,138.93530017626793L162.4969985566419,137.39175606013725L162.88970014243625,135.84182777149894L163.28240172823055,134.2857849080151L163.67510331402488,132.72390664482828L164.0678048998192,131.156481817429L164.46050648561354,129.5838089972042L164.85320807140783,128.00619655926573L165.2459096572022,126.42396274214755L165.63861124299652,124.83743569896596L166.03131282879082,123.24695353962652L166.42401441458517,121.65286436366534L166.81671600037947,120.05552628331256L167.20941758617383,118.45530743636098L167.60211917196813,116.85258598843201L167.99482075776245,115.24775012422701L168.38752234355678,113.64119802736195L168.78022392935114,112.03333784838307L169.17292551514544,110.4245876605733L169.56562710093976,108.8153754031602L169.9583286867341,107.20613881155275L170.3510302725284,105.59732533423752L170.74373185832275,103.98939203598164L171.13643344411707,102.38280548700132L171.5291350299114,100.77804163776801L171.9218366157057,99.17558567914392L172.31453820150006,97.57593188755227L172.70723978729436,95.9795834549107L173.0999413730887,94.38705230307332L173.492642958883,92.7988588825538L173.88534454467734,91.21553195531948L174.27804613047164,89.63760836147982L174.670747716266,88.06563276971136L175.06344930206032,86.50015741129747L175.45615088785465,84.94174179768422L175.84885247364898,83.39095242149075L176.24155405944327,81.84836244094312L176.63425564523763,80.31455134773364L177.02695723103196,78.7901046183466L177.41965881682628,77.27561334892464L177.81236040262058,75.77167387379235L178.2050619884149,74.27888736778652L178.5977635742092,72.79785943259252L178.99046516000357,71.32919966731478L179.3831667457979,69.87352122356539L179.77586833159222,68.43144034538518L180.16856991738658,67.00357589436277L180.56127150318088,65.59054886036006L180.9539730889752,64.19298185829211L181.34667467476953,62.8114986114613L181.73937626056386,61.446723421982554L182.13207784635816,60.09928062888766L182.5247794321525,58.76979405453494L182.9174810179468,57.45888644000099L183.31018260374114,56.16717887016587L183.7028841895355,54.89529018925611L184.0955857753298,53.643836407641224L184.48828736112415,52.41343010072631L184.88098894691845,51.20467980082372L185.27369053271278,50.01818938291592L185.6663921185071,48.854557445270586L186.05909370430146,47.714376685889846L186.45179529009573,46.59823327582111L186.8444968758901,45.50670623037514L187.2371984616844,44.44036677933484L187.6299000474787,43.39977773725621L188.02260163327307,42.385492874992714L188.4153032190674,41.39805629358575L188.80800480486172,40.438001801690994L189.20070639065602,39.50585229771592L189.59340797645038,38.60211915785927L189.98610956224468,37.72730163125046L190.37881114803903,36.88188624338902L190.77151273383333,36.06634620908633L191.16421431962766,35.28114085611029L191.55691590542196,34.526715060724264L191.94961749121632,33.80349869630308L192.34231907701064,33.11190609619526L192.73502066280497,32.452335531982804L193.1277222485993,31.825168708268148L193.5204238343936,31.23077027509297L193.91312542018795,30.66948735906585L194.30582700598228,30.14164911424324L194.6985285917766,29.64756629377032L195.0912301775709,29.18753084325365L195.48393176336526,28.7618155167895L195.87663334915953,28.370673516531085L196.2693349349539,28.014338156624706L196.66203652074822,27.693022552295833L197.05473810654254,27.406919334811263L197.4474396923369,27.156200392983752L197.8401412781312,26.941016641829552L198.23284286392553,26.76149781892414L198.62554444971985,26.617752308940556L199.01824603551418,26.50986699678587L199.41094762130848,26.437907149686936L199.80364920710284,26.401916328507667L200.19635079289714,26.401916328507667L200.58905237869146,26.437907149686936L200.98175396448582,26.50986699678587L201.37445555028012,26.617752308940556L201.76715713607445,26.76149781892414L202.1598587218688,26.941016641829552L202.55256030766313,27.156200392983752L202.94526189345743,27.406919334811263L203.33796347925178,27.693022552295833L203.73066506504608,28.014338156624575L204.1233666508404,28.370673516531085L204.5160682366347,28.76181551678937L204.90876982242904,29.18753084325365L205.3014714082234,29.64756629377032L205.6941729940177,30.14164911424314L206.08687457981202,30.66948735906585L206.47957616560637,31.230770275092834L206.8722777514007,31.825168708268148L207.264979337195,32.452335531982804L207.65768092298936,33.11190609619526L208.05038250878366,33.80349869630298L208.44308409457798,34.526715060724264L208.83578568037228,35.28114085611029L209.22848726616664,36.0663462090862L209.62118885196097,36.88188624338902L210.01389043775526,37.72730163125046L210.40659202354962,38.60211915785927L210.79929360934395,39.50585229771582L211.1919951951383,40.438001801690994L211.5846967809326,41.39805629358565L211.97739836672693,42.385492874992714L212.37009995252123,43.39977773725617L212.76280153831556,44.44036677933474L213.15550312410986,45.506706230375L213.5482047099042,46.598233275821045L213.94090629569854,47.714376685889846L214.33360788149284,48.85455744527049L214.7263094672872,50.01818938291592L215.11901105308152,51.204679800823584L215.51171263887588,52.41343010072631L215.90441422467018,53.64383640764109L216.2971158104645,54.89529018925611L216.6898173962588,56.167178870165735L217.08251898205316,57.45888644000089L217.47522056784746,58.76979405453484L217.86792215364179,60.09928062888753L218.26062373943614,61.446723421982554L218.65332532523044,62.81149861146127L219.04602691102477,64.19298185829211L219.43872849681912,65.5905488603599L219.83143008261345,67.00357589436277L220.22413166840775,68.43144034538501L220.6168332542021,69.87352122356539L221.00953483999638,71.32919966731458L221.40223642579073,72.79785943259232L221.79493801158503,74.27888736778645L222.18763959737936,75.7716738737922L222.58034118317372,77.27561334892464L222.973042768968,78.7901046183464L223.36574435476234,80.31455134773364L223.7584459405567,81.84836244094299L224.15114752635102,83.39095242149075L224.54384911214532,84.94174179768412L224.93655069793968,86.50015741129747L225.32925228373398,88.06563276971121L225.7219538695283,89.63760836147972L226.1146554553226,91.21553195531934L226.50735704111696,92.79885888255363L226.9000586269113,94.38705230307332L227.2927602127056,95.97958345491054L227.68546179849994,97.57593188755227L228.07816338429427,99.17558567914378L228.47086497008863,100.77804163776801L228.86356655588293,102.38280548700116L229.25626814167725,103.98939203598164L229.64896972747155,105.5973253342374L230.0416713132659,107.20613881155275L230.43437289906018,108.81537540316006L230.82707448485453,110.4245876605732L231.21977607064886,112.03333784838307L231.61247765644316,113.6411980273618L232.00517924223752,115.24775012422701L232.39788082803184,116.85258598843194L232.7905824138262,118.45530743636098L233.1832839996205,120.05552628331246L233.57598558541483,121.65286436366534L233.96868717120913,123.24695353962635L234.36138875700348,124.83743569896596L234.75409034279778,126.42396274214742L235.1467919285921,128.00619655926556L235.53949351438646,129.5838089972042L235.93219510018076,131.15648181742884L236.3248966859751,132.72390664482828L236.71759827176945,134.285784908015L237.11029985756377,135.8418277714989L237.50300144335807,137.39175606013714L237.89570302915243,138.9353001762679L238.28840461494673,140.47220000992303L238.68110620074106,142.00220484251815L239.07380778653535,143.5250732444033L239.46650937232968,145.04057296666073L239.85921095812398,146.54848082752022L240.25191254391834,148.04858259376422L240.64461412971266,149.54067285747715L241.03731571550702,151.02455490849493L241.43001730130135,152.50004060289558L241.82271888709565,153.96695022786346L242.21542047289,155.42511236325637L242.6081220586843,156.874363740185L243.00082364447863,158.3145490969171L243.39352523027293,159.7455210323968L243.78622681606728,161.16713985767066L244.17892840186158,162.57927344549205L244.5716299876559,163.98179707837502L244.96433157345027,165.37459329535017L245.3570331592446,166.75755173767186L245.74973474503895,168.13056899371267L246.14243633083325,169.49354844326973L246.53513791662758,170.84640010150298L246.92783950242188,172.189040462709L247.3205410882162,173.52139234413073L247.7132426740105,174.84338472998752L248.10594425980486,176.15495261590726L248.49864584559916,177.45603685392638L248.89134743139348,178.74658399822044L249.28404901718784,180.0265461517143L249.67675060298217,181.29588081371514L250.06945218877652,182.55455072870254L250.46215377457082,183.8025237363998L250.85485536036515,185.03977262324545L251.24755694615945,186.26627497537282L251.6402585319538,187.48201303320172L252.0329601177481,188.6869735477338L252.42566170354243,189.8811476386424L252.81836328933673,191.06453065423293L253.2110648751311,192.23712203335248L253.6037664609254,193.39892516931044L253.99646804671977,194.5499472758753L254.3891696325141,195.69019925540033L254.7818712183084,196.81969556912748L255.17457280410275,197.93845410971343L255.56727438989702,199.04649607601596L255.95997597569138,200.1438458501742L256.3526775614857,201.23053087700933L256.74537914728,202.30658154577267L257.13808073307433,203.37203107425654L257.53078231886866,204.42691539528667L257.923483904663,205.47127304560428L258.3161854904573,206.50514505714696L258.7088870762517,207.52857485073187L259.10158866204597,208.54160813214006L259.4942902478403,209.5442927906021L259.8869918336346,210.53667879967517L260.27969341942895,211.518818120507L260.6723950052233,212.49076460747176L261.0650965910176,213.45257391616707L261.4577981768119,214.40430341375313L261.85049976260626,215.3460120916184L262.2432013484006,216.27776048034883L262.6359029341949,217.19961056698065L263.02860451998924,218.1116257145115L263.4213061057836,219.0138705836443L263.8140076915779,219.90641105673768L264.20670927737217,220.78931416393377L264.59941086316655,221.66264801143487L264.9921124489608,222.52648171189614L265.38481403475515,223.3808853169061L265.7775156205495,224.22592975151832L266.1702172063438,225.06168675080508L266.56291879213813,225.88822879839506L266.9556203779325,226.70562906696344L267.34832196372685,227.51396136063812L267.7410235495211,228.3133000592853L268.1337251353155,229.1037200646413L268.5264267211098,229.88529674825057L268.9191283069041,230.65810590117783L269.3118298926984,231.4222236854531L269.70453147849275,232.17772658721728L270.0972330642871,232.9246913715276L270.4899346500814,233.66319503878964L270.88263623587574,234.39331478277646L271.27533782167006,235.11512795020013L271.66803940746445,235.82871200179883L272.0607409932587,236.53414447490232L272.45344257905305,237.2315029474419L272.8461441648474,237.92086500336634L273.2388457506417,238.6023081994321L273.631547336436,239.27591003332856L274.02424892223036,239.94174791310766L274.4169505080246,240.59989912788063L274.80965209381895,241.25044081974977L275.20235367961334,241.89344995694074L275.59505526540767,242.52900330810354L275.987756851202,243.15717741774873L276.3804584369963,243.77804858278674L276.77316002279065,244.39169283014036L277.1658616085849,244.99818589539709L277.5585631943793,245.59760320247304L277.9512647801736,246.19001984425694L278.3439663659679,246.77551056420577L278.73666795176223,247.3541497388625L279.12936953755656,247.9260113612685L279.5220711233509,248.49116902524167L279.91477270914527,249.04969591049448L280.3074742949396,249.6016647685641L280.70017588073387,250.1471479095294L281.09287746652825,250.68621718948904L281.4855790523225,251.2189439987751L281.87828063811685,251.7453992508796L282.2709822239112,252.26565337206742L282.6636838097055,252.7797762916555L283.0563853954998,253.2878374329326L283.44908698129416,253.78990570469952L283.8417885670885,254.28604949340757L284.2344901528828,254.77633665587356L284.62719173867714,255.26083451255164L285.01989332447147,255.73960984134138L285.4125949102658,256.21272887191304L285.8052964960601,256.68025728053044L286.19799808185445,257.1422601853532L286.5906996676487,257.59880214220067L286.9834012534431,258.04994714075957L287.3761028392374,258.49575860121814L287.7688044250317,258.9362993713112L288.1615060108261,259.3716317237588L288.5542075966204,259.8018173540835L288.94690918241474,260.2269173787915L289.33961076820907,260.64699233390127L289.7323123540034,261.06210217380794L290.12501393979767,261.47230627046633L290.51771552559205,261.87766341288255L290.9104171113863,262.27823180689813L291.30311869718065,262.674069075256L291.695820282975,263.0652322579352L292.0885218687693,263.45177781274236L292.48122345456363,263.83376161614893L292.87392504035796,264.21123896436245L293.26662662615234,264.58426457462144L293.6593282119466,264.9528925867031L294.05202979774094,265.3171765646342L294.44473138353527,265.6771694985949L294.8374329693296,266.0329238070059L295.2301345551239,266.38449133879084L295.62283614091825,266.73192337580355L296.0155377267125,267.07527063541295L296.4082393125069,267.4145832732364L296.80094089830123,267.74991088601416L297.19364248409556,268.08130251461677L297.5863440698899,268.4088066471786L297.9790456556842,268.7324712223498L298.37174724147854,269.0523436326593L298.7644488272729,269.368470727984L299.1571504130672,269.68089881911567L299.54985199886147,269.9896736814204L299.9425535846558,270.2948405585847L300.3352551704501,270.5964441664422L300.72795675624445,270.8945286968754L301.1206583420388,271.1891378217874L301.51335992783316,271.48031469713845L301.9060615136275,271.768101967042L302.29876309942176,272.0525417679161L302.69146468521615,272.3336757326853L303.0841662710104,272.6115449950285L303.47686785680474,272.886190193669L303.8695694425991,273.15765147670237L304.2622710283934,273.42596850595856L304.6549726141877,273.6911804613938L305.04767419998205,273.95332604551027L305.4403757857764,274.21244348779805L305.8330773715707,274.46857054919826L306.2257789573651,274.7217445265822L306.61848054315936,274.9720022572453L307.0111821289537,275.2193801234118L307.403883714748,275.46391405674774L307.79658530054235,275.7056395428801L308.1892868863366,275.9445916259188L308.581988472131,276.18080491298L308.9746900579253,276.41431357870755L309.3673916437196,276.6451513697912L309.760093229514,276.8733516094791L310.1527948153083,277.0989472020824L310.54549640110264,277.32197063747094L310.93819798689697,277.5424539955569L311.3308995726913,277.76042895076637L311.72360115848556,277.97592677649516L312.11630274427995,278.18897834954964L312.5090043300742,278.39961415456906L312.90170591586855,278.6078642884297L313.2944075016629,278.813758464628L313.6871090874572,279.0173260176427L314.07981067325153,279.21859590727416L314.4725122590459,279.41759672295984L314.86521384484024,279.6143566880651L315.2579154306345,279.80890366414803L315.6506170164289,280.001265155198L316.04331860222317,280.19146831184617L316.4360201880175,280.37953993554794L316.8287217738118,280.56550648273617L317.22142335960615,280.749394068945L317.6141249454004,280.9312284729022L318.0068265311948,281.1110351405918L318.39952811698913,281.288839189284L318.79222970278346,281.4646654115335L319.1849312885778,281.638538279145L319.5776328743721,281.81048194710576L319.97033446016644,281.9805202574845L320.3630360459607,282.1486767432967L320.75573763175515,282.31497463233546L321.14843921754937,282.47943685096817L321.54114080334375,282.64208602789836L321.9338423891381,282.8029444978923L322.32654397493235,282.9620343054712L322.71924556072673,283.1193772085669L323.11194714652106,283.2749946821433L323.5046487323154,283.4289079217811L323.8973503181097,283.5811378472276L324.290051903904,283.7317051059102L324.6827534896983,283.8806300764144L325.07545507549264,284.0279328719253L325.468156661287,284.17363334363426L325.86085824708124,284.3177510841083L326.2535598328756,284.4603054306248L326.64626141866995,284.60131546846964L327.0389630044643,284.74080003419976L327.4316645902586,284.8787777188701L327.82436617605293,285.01526687122475L328.21706776184726,285.1502856008528L328.6097693476416,285.2838517813085L329.002470933436,285.41598305319616L329.3951725192302,285.5466968272202L329.78787410502457,285.6760102872001L330.1805756908189,285.80394039305014L330.5732772766132,285.93050388372495L330.96597886240755,286.0557172801305L331.3586804482019,286.1795968880008L331.7513820339962,286.30215880073996L332.14408361979054,286.4234189022315L332.5367852055849,286.54339286961317L332.92948679137913,286.6620961760183L333.32218837717346,286.7795440932844L333.71488996296785,286.89575169462864L334.1075915487622,287.01073385729046L334.50029313455644,287.1245052651416L334.89299472035077,287.2370804112644L335.2856963061451,287.34847360049775L335.6783978919394,287.4586989519512L336.0710994777338,287.5677704014879L336.4638010635281,287.67570170417633L336.8565026493224,287.78250643671123L337.2492042351168,287.88819799980325L337.6419058209111,287.99278962053927L338.0346074067054,288.0962943547117L338.4273089924997,288.1987250891186L338.82001057829405,288.3000945438342L339.2127121640884,288.40041527444953L339.6054137498827,288.49969967428524L339.998115335677,288.59795997657494L340.39081692147136,288.6952082566204L340.78351850726574,288.7914564339186L341.17622009306007,288.8867162742612L341.5689216788543,288.9809993918062L341.96162326464867,289.07431725112315L342.354324850443,289.16668116920994L342.7470264362373,289.2581023174847L343.1397280220316,289.3485917237503L343.5324296078259,289.4381602741328L343.92513119362025,289.5268187149951L344.31783277941463,289.6145776548235L344.7105343652089,289.70144756609085L345.1032359510032,289.7874387870935L345.4959375367976,289.8725615237644L345.88863912259194,289.95682585146125L346.28134070838627,290.0402417167314L346.67404229418054,290.12281893905197L347.06674387997487,290.2045672125477L347.4594454657692,290.28549610768465L347.8521470515636,290.3656150729411L348.24484863735785,290.4449334364564L348.6375502231522,290.52346040765696L349.03025180894656,290.6012050788599L349.4229533947409,290.6781764268558L349.8156549805352,290.75438331446895L350.2083565663295,290.82983449209655L350.6010581521238,290.90453859922735L350.99375973791814,290.978504165939L351.3864613237125,291.05173961437515L351.77916290950674,291.12425326020207L352.17186449530107,291.1960533140458L352.56456608109545,291.26714788290894L352.9572676668898,291.33754497156826L353.34996925268405,291.40725248395336L353.74267083847843,291.47627822450573L354.13537242427276,291.5446298995196L354.5280740100671,291.6123151184641L354.9207755958614,291.6793413952871L355.3134771816557,291.7457161497013L355.70617876745,291.81144670845225L356.0988803532444,291.87654030656876L356.4915819390387,291.9410040885966L356.884283524833,292.0048451098146L357.2769851106274,292.0680703374336L357.6696866964217,292.1306866517798L358.06238828221603,292.1927008474607L358.45508986801036,292.2541196345154L358.84779145380463,292.3149496395487L359.24049303959896,292.37519740684957L359.63319462539334,292.434869399494L360.02589621118767,292.49397200043273L360.4185977969819,292.5525115135634L360.81129938277627,292.6104941647883L361.2040009685706,292.66792610305714L361.5967025543649,292.7248134013952L361.98940414015925,292.7811620579175L362.3821057259536,292.8369779968287L362.7748073117479,292.8922670694088L363.16750889754223,292.94703505498546L363.5602104833366,293.0012876618929L363.95291206913083,293.0550305284168L364.3456136549252,293.10826922372695L364.73831524071954,293.16100924879584L365.13101682651387,293.21325603730554L365.5237184123082,293.265014956541L365.9164199981025,293.3162913082717L366.30912158389685,293.36709032962017L366.7018231696912,293.41741719391933L367.09452475548557,293.4672770115572L367.4872263412798,293.51667483081013L367.87992792707416,293.5656156386641L368.2726295128685,293.6141043616253L368.6653310986628,293.66214586651853L369.0580326844571,293.70974496127513L369.4507342702514,293.7569063957097L369.84343585604574,293.8036348622858L370.23613744184007,293.8499349968714L370.6288390276344,293.8958113794838L371.0215406134287,293.9412685350235L371.41424219922305,293.9863109339986L371.80694378501744,294.03094299323914L372.19964537081177,294.07516907660096L372.59234695660604,294.11899349566L372.98504854240036,294.16242051039717L373.3777501281947,294.2054543298737L373.770451713989,294.24809911289657L374.16315329978335,294.29035896867526L374.5558548855777,294.3322379574694L374.948556471372,294.3737400912269L375.3412580571664,294.41486933421396L375.7339596429607,294.45562960363543L376.126661228755,294.49602477024763L376.5193628145493,294.53605865896185L376.91206440034364,294.5757350494397L377.30476598613797,294.6150576766806L377.69746757193224,294.65403023160053L378.09016915772656,294.6926563616034L378.4828707435209,294.73093967114374L378.8755723293153,294.7688837222826L379.26827391510955,294.806492035235L379.6609755009039,294.84376808890994L380.05367708669826,294.88071532144323L380.4463786724926,294.9173371307228L380.8390802582869,294.95363687490686L381.2317818440812,294.98961787293484L381.6244834298755,295.02528340503113L382.01718501566984,295.0606367132022L382.4098866014642,295.0956810017268L382.8025881872585,295.1304194376392L383.1952897730528,295.16485515120615L383.5879913588472,295.1989912363969L383.98069294464153,295.23283075134714L384.37339453043586,295.26637671881605L384.76609611623013,295.29963212663796L385.15879770202446,295.33259992816676L385.5514992878188,295.3652830427153L385.9442008736131,295.39768435598756L386.3369024594074,295.42980672050624L386.7296040452017,295.4616529560334L387.1223056309961,295.4932258499861L387.5150072167904,295.52452815784574L387.9077088025847,295.5555626035625L388.3004103883791,295.58633187995366L388.6931119741734,295.6168386490969L389.08581355996773,295.64708554271795L389.47851514576206,295.67707516257326L389.87121673155633,295.7068100808272L390.26391831735066,295.73629284042437L390.65661990314504,295.7655259554565L391.04932148893937,295.79451191152503L391.44202307473364,295.8232531660979L391.834724660528,295.85175214886226L392.22742624632235,295.880011262072L392.6201278321167,295.9080328808908L393.012829417911,295.93581935373027L393.4055310037053,295.9633730025837L393.7982325894996,295.9906961233555L394.19093417529393,296.01779098618584L394.5836357610883,296.04465983577103L394.97633734688253,296.07130489167963L395.3690389326769,296.0977283486644L395.76174051847124,296.12393237696995L396.15444210426557,296.1499191226361" stroke="#4c78a8" stroke-width="2"></path></g></g><path class="foreground" aria-hidden="true" d="" display="none"></path></g></g></g></svg>